<svg xmlns="http://www.w3.org/2000/svg" width="288" height="160.754" viewBox="0 0 288 160.754"><g fill="#01b788"><path d="M6.035 5.008l7.22-.247 7.256.19 7.247.094 7.28.163 7.213-.276 7.275.27 14.478-.165 7.294.254 7.206-.367 7.287.305 7.204-.274 7.287.32 14.472-.5 14.525.283 7.225-.2 7.278.134 7.234-.244 7.234-.005 7.283.228 7.222-.22 7.26.244 7.27.12 7.236-.15 7.283.136 7.235-.315 7.244-.047 7.26.096 7.23.017 7.296.337 7.22-.3 7.26.177 7.282.118 7.25-.272 7.24-.15 7.244.07 6.67.286v-1l-6.644-.285-7.276-.07-7.263.15-7.234.273-7.25-.12-7.287-.176-7.21.3-7.277-.337-7.244-.018-7.267-.096-7.27.048-7.224.315-7.274-.14-7.237.15-7.245-.117-7.283-.245-7.22.22-7.268-.227-7.268.007-7.224.244-7.274-.134-7.227.2-14.525-.28-14.46.5-7.288-.32-7.205.273-7.293-.306-7.21.366-7.275-.255L49.54 4.2l-7.29-.268-7.22.275-7.256-.163-7.244-.095-7.28-.19-7.227.25-6.256-.07v1M5.986 10.056l7.326.47 7.202-.64 7.276.043 7.192-.322 7.275.526 7.256.17 7.27.087 7.212-.193 7.306.385 7.247-.424 7.213-.334 14.54.34 7.206-.514 7.265.137 7.213-.132 7.26.404 7.314.263 7.178-.654 14.527.773 14.547.054 7.17-.596 7.293.553 7.293-.03 7.207-.59 14.473.144 7.318.604 7.24-.338 7.274-.15 7.23-.48 7.186-.104 7.346.866 7.213-.453 7.302.202 7.196-.5 6.682.426V9.046l-6.683-.423-7.214.5-7.3-.2-7.17.455-7.32-.866-7.28.1-7.23.482-7.266.15-7.188.34-7.29-.605-14.554-.145-7.215.59-7.212.03-7.33-.55-7.212.593-14.48-.054-14.57-.772-7.19.654-7.238-.265-7.288-.404-7.23.13-7.293-.134-7.204.514-14.528-.34-7.253.333-7.197.423-7.29-.386-7.232.194-7.245-.085-7.225-.17-7.31-.525-7.224.32-7.297-.043-7.174.642-7.243-.472-6.29-.495v1.003M6 15.605l7.312.245 7.21-1.544 7.23 1.37 7.29-.88 7.15-.333 7.325 1.113 14.576.115 7.206-1.048 7.205-.387 7.175.266 7.334 1.353 7.256-1.276 7.156-.095 7.312 1.33 7.237-.6 7.35.524 7.17-.898 7.282.257 7.278-.2 7.19-.62 7.257 1.24 7.236-.852 7.268.43 7.27.2 7.21-.04 7.32.57 7.233-1.347 7.218-.098 7.222.414 7.325.912 7.273-1.264 7.223.277 7.284-.022 7.197-.444 7.282 1.255 7.288-1.158 7.265.346 6.617-.43V13.28l-6.625.434-7.312-.35-7.227 1.148-7.232-1.246-7.285.45-7.232.022-7.306-.28-7.233 1.255-7.21-.896-7.29-.418-7.34.104-7.188 1.332-7.23-.56-7.237.036-7.236-.197-7.34-.428-7.18.84-7.245-1.24-7.287.63-7.217.2-7.33-.255-7.15.9-7.33-.528-7.183.59-7.278-1.313-7.332.094-7.16 1.253-7.228-1.327-7.293-.274-7.297.392-7.173 1.048-7.255-.083-7.177-.03-7.348-1.114-7.29.33-7.172.864-7.274-1.378-7.288 1.56-7.168-.24-6.287-.448v1.002M6.104 20.958l7.167-1.26 7.244 1.156 7.26.046 7.25-.095 7.234-1.564 7.245 1.896 7.292-1.43 7.172-.366 7.314.797 7.263-1.043 7.204.464 7.293.344 7.23-.34 7.21-.106 7.2.497 7.308 1.234 7.283-.54 7.312-.144 7.16-1.035 7.21.315 7.323.914 7.25-1.21 7.22.886 7.316.32 7.202-.605 7.28.154 7.196-.255 7.315.607 7.218-1.182 7.234 1.635 7.34-.542 7.17-.74 7.326.468 7.19-.593 7.284 1.21 7.327-.09 7.2-1.075 7.246.542 6.646-.035v-1l-6.613.036-7.317-.55-7.242 1.087-7.17.09-7.316-1.222-7.242.602-7.338-.467-7.238.74-7.178.53-7.275-1.645-7.29 1.194-7.25-.598-7.226.252-7.307-.152-7.19.607-7.212-.32-7.324-.9-7.25 1.21-7.22-.9-7.342-.313-7.19 1.034-7.276.142-7.19.53-7.24-1.22-7.288-.503-7.267.104-7.2.343-7.237-.343-7.3-.47-7.24 1.04-7.267-.787-7.322.37-7.14 1.397-7.254-1.898-7.32 1.593-7.19.095-7.174-.04-7.333-1.175-7.25 1.28-6.246.047v1M6.022 24.758l7.15-.075 7.32 1.406 14.552-1.234 14.405-.762 7.31 1.03 7.27-.706 7.198-.12 7.26 1.422 7.374-.354 7.126-1.323 7.24 2.195 7.296-1.12 7.17-.14 7.35 1.034 7.222-1.998 7.117 1.882 7.39.28 7.25-.155 7.295-1.955 7.233.334 7.155-.523 7.16 2.317 7.487.08 7.226-2.4 7.195.82 7.256-.683 7.187.045 7.275 1.037 7.305.71 7.332-.827 7.157-1.23 7.164.157 7.335 1.512 7.336.323 7.167-.797 13.945 1.004v-1.002l-13.964-.998-7.18.797-7.178-.316-7.346-1.512-7.35-.16-7.224 1.233-7.2.812-7.18-.697-7.32-1.04-7.304-.047-7.203.676-7.31-.834-7.28 2.417-7.093-.054-7.272-2.355-7.29.536-7.33-.34-7.267 1.962-7.16.154-7.195-.26-7.325-1.938-7.28 2.014-7.227-1.008-7.314.14-7.14 1.09-7.256-2.198-7.297 1.36-7.186.34-7.244-1.42-7.343.124-7.192.698-7.287-1.02-14.516.76-14.434 1.223-7.28-1.39L6 23.76l-6.233.225v1M6.023 30.22l7.2-1.54 7.243 2.91 7.325-1.382 7.2-.333L42.227 31l7.296.635 7.25-.04 7.317-2.498 7.19.46 7.24-.102 7.192.072L93 31.18l7.332-1.198 7.16-.972 7.213 1.62 7.348.832 7.26-.61 7.168-.736 7.32.433 7.15-.515 7.337.907 7.21-1.577 7.267 2.112 7.318-2.046 14.508.395 7.2-.935 7.247.653 7.2-.056 7.286 1.516L230.78 30l7.312.178 7.168-1.507 7.277 2.704 7.328-2.272 7.07.536 7.424 2.048 7.29-3.16 6.582.958v-1.01l-6.718-.98-7.23 3.134-7.18-1.97-7.352-.568-7.186 2.228-7.228-2.685L238 29.176l-7.275-.17-7.166.983-7.224-1.504-7.258.06-7.308-.662-7.23.945-7.257-.228-7.326-.174-7.187 2.01-7.237-2.104-7.293 1.595-7.263-.89-7.184.512-7.332-.432-7.24.737-7.152.61-7.196-.82-7.335-1.65-7.353.996-7.152 1.17-7.15-1.623-7.365-.085-7.213.104-7.35-.474-7.27 2.51-7.122.04-7.216-.628-7.3-1.137-7.37.348-7.108 1.335-7.256-2.915-7.35 1.583-6.195.066v1M6.027 35.933l7.21-.968 7.242 1.87 7.284-.764 7.27.888 7.397-1.355 7.095-2.428 7.095 2.234 7.46.23 7.243-1.92 7.25.41 7.18-.7 7.14 1.243 7.39 1.875 7.324-2.405 7.084-.353 7.22 1.036 7.344 1.53 7.328-1.286 7.12-1.017 7.216 2.914 7.352-.08 7.28-1.613 7.182-.516 7.17.503 7.37 1.78 7.28-1.763 7.192.932 7.266.506 7.318.35 7.238-1.547 7.315-.366 7.126-1.268 7.256 2.508 7.404-1.43 7.197-1.67 7.092.04 7.37 3.36 7.316-3.393 6.592 1.416v-1.022l-6.71-1.44-7.202 3.34-7.047-3.213-7.52-.088-7.296 1.696-7.12 1.374-7.25-2.506-7.32 1.307-7.33.367-7.19 1.532-7.18-.344-7.223-.504-7.346-.952-7.227 1.75-7.215-1.735-7.323-.516-7.326.527-7.2 1.6-7.1.078-7.28-2.94-7.4 1.058-7.156 1.255-7.188-1.496-7.344-1.047-7.247.352-7.244 2.36-7.144-1.81-7.312-1.277-7.237.715-7.332-.423-7.257 1.923-7.11-.2-7.34-2.313-7.334 2.516-7.177 1.31-7.174-.876-.058-.007-7.217.755-7.258-1.873-7.288.98-6.243-.607v1.005"/><path d="M5.982 41.352l7.303-2.23 7.236 1.67 7.255-1.79 7.183 1.562 7.268.883 7.402.64 7.19-3.997 7.164 2.45 7.267-1.31 7.14 1.98 7.468.053 7.223-2.638 7.212.703 7.128-.39 7.37 3.332 7.32-4.267 7.09 1.105 7.328.92 7.268-1.414 7.208-.474 7.185.11 7.232 2.086 7.39 1.415 7.278-2.772 7.21.636 14.448-.765 7.316.45 7.163-.458 7.343.882 7.192-1.71 7.11 2.606 7.366.137 7.385.916 7.176-3.035 7.235 3.352 7.385-2.47 7.156-.523 6.656.077v-1L281.547 38l-7.262.526-7.19 2.39-7.28-3.372-7.335 3.103-7.173-.886-7.168-.108-7.318-2.68-7.31 1.738-7.256-.863-7.192.454-7.31-.45-14.438.767-7.367-.656-7.23 2.756-7.066-1.352-7.252-2.093-7.423-.13-7.312.485-7.174 1.393-7.154-.9-7.428-1.158-7.18 4.186-7.122-3.218-7.297.404-7.36-.725-7.27 2.655-7.09-.033-7.298-2.023-7.235 1.3L56.72 37l-7.31 4.066-7.08-.613-7.205-.874-7.364-1.604-7.247 1.79-7.264-1.68-7.196 2.2-6.287-2.904v1.102"/><path d="M6.05 46.5l7.275-3.453 7.16 1.632L27.67 44l7.384 3.74 7.358-4.94 6.985.285 7.332 3.46 7.35-2.18 7.176-.878 7.183.233 7.18 2.253 7.44.145 7.16-1.423 7.305 2.76 7.24-3.06 7.255 2.95 7.356-3.244 7.116-.25 7.332.27 7.112-.875 7.265 3.257 7.282-1.355 7.303 2.37 7.244-2.933 7.218 2.578 7.3-1.86 7.222 1.144 7.283-.864 7.185-.29 7.264 1.746 7.314.59 7.317-1.31 7.144-3.037 7.176 3.74 7.404-.736 7.225-3.068 7.18 2.547 7.424-.82 6.546-1.38v-1.023l-6.705 1.418-7.146.785-7.33-2.6-7.368 3.15-7.032.7-7.33-3.82-7.42 3.167-7.132 1.278-7.11-.568-7.322-1.765-7.36.298-7.187.85-7.288-1.156-7.205 1.837-7.29-2.603-7.26 2.94-7.198-2.336-7.224 1.345-7.236-3.244-7.308.908-7.288-.274-7.25.253-7.24 3.155-7.245-2.947-7.255 3.064-7.198-2.72-7.336 1.46-7.118-.12-7.178-2.25-7.462-.257-7.333.897-7.07 2.09-7.078-3.34-7.606-.35-7.144 4.793-7.117-3.603-7.315.688-7.34-1.672-7.224 3.428-6.22-2.096v1.055"/><path d="M6.14 52.1l7.235-4.553 7.07 1.118 7.285 1.085 7.336.572 7.176-1.95 7.097 2.76 7.005.154-6.86 5.28-7.07-4.213-7.46-.207-7.207 2.032-7.276-1.428-7.327 2.864-6.965.843-.085-.055-.2.06-6.127-.678v1.006l3.703.41L-.23 58.33v1.045l6.175-1.88 7.164 4.625 1.878.12-1.813.357-7.25 5.195-6.155-1.792v1.042l6.346 1.848 7.358-5.33 5.416-1.07 1.687.107.192-.056 7.003 6.148 7.28-6.406 7.214 5.206 7.39-5.127 7.144.74 7.066-.382 6.004 4.63-5.836 3.903-7.17-5.13-7.536 2.33-7.147 3.026-7.224-.294-5.43.705-1.75-1.504-1.493 1.245-5.613-1.764-7.466-.252-7.238.97-6.195.702v1.386l4.49 4.178-3.9 4.208-.59-.34v2.448l.78-.842 5.406 3.12 7.365-2.156 7.19-.738 7.19.952 7.367 1.017 5.257-1.75 1.765 2 2.416-.512 3.8 3.396-6.082 4.122-6.995-3.194-7.523-1.033-7.09 2.897-7.415-6.42L5.99 93.2l-6.224-6.924v1.496l6.277 6.98 7.292-9.287 7.085 6.137 7.412-3.03 7.044.946 7.44 3.396 6.753-4.576.447.4.5-.447 6.75 3.855 7.424-4.16 2.93-1.073 4.22-.388.822-.115 6.278 6.028 7.372-4.047 7.215 2.585 7.14-2.96 7.22 6.348 7.508-2.104 7.113-4.056 5.57 3.208-5.766 5.216-7.035.143-7.305-.243-7.167.6-7.1-.625-7.5-5.757-6.16 6.97-.893-.86-1.74.58-5.443-5.096-7.5-.02-7.252.73-7.368 4.178-7.07 1.055-7.07-.165-7.26-6.332-7.646.15-5.777 5.833-1.247-.678-3.358 1.61-3.805-.615-6.35-1.296v1.022l6.17 1.258 2.407.393-2.416 1.16-6.162-.632v1.006l6.34.648 3.965-1.9 3.37.546 1.27-1.282 5.708 3.096 3.198-.396-3.223 1.53-7.08.308-7.462-1.736-6.084 6.43v1.455l6.417-6.78 7.036 1.64 6.035-.264-6.134 3.517-7.29.39-6.063 4.92v1.288l6.44-5.23 7.206-.38 7.198-4.125 7.124 1.206 7.16.503 7.103 3.285 4.787 3.125-3.042 3.715-1.438-2.14-3.504 4.415-3.666 1.436-7.134-10.1-7.71 1.096-5.543 5.207-1.54-.68-5.116 3.663-1.957.54-6.366-5.148v1.285l5.936 4.802-5.936-1.843v1.046l6.34 1.968 2.42-1.734 4.992-1.375 1.43-1.342 5.602 2.475 7.096-4.23 4.355 5.513-4.322 1.56h-7.15l-7.225-.16-7.39-.553-6.147 3.168v1.124l6.354-3.275 7.134.535 7.26.16h7.252l4.882-1.74 2.368 2.996 3.698-4.672 3.836-.973.027-.03 6.78 11.746 7.408-5.264 1.847 1.33-1.107.62-.745-1.376-1.528 2.912-5.743 4.438-7.274-4.642-3.072 2.758-4.02-.174-4.6-1.886-2.756-3.457-7.004 8.71-.332-.335-.292.453-6.546-5.705-7.513-2.394-6.316.29v1l6.186-.28 7.064 2.208 6.578 5.73-1.376 2.143-4.94-6.26-6.642 7.813-.48-.52-2.98 1.1-3.412-2.615v1.26l1.57 1.2-1.57-.195v1.01l1.223.148-1.224.45v1.065l3.248-1.197 2.008 1.535-3.487 7.27-1.77-1.446v1.29l1.325 1.083-1.324 2.76v2.31l2.12-4.418 4.17 3.41 5.14-5.32 1.896 2.564 6.52-2.56.9.33 2.568-.907 4.732-.342 1.132-.103 5.858 5.295 7.633.785 3.31-2.953 3.492 4.82 7.787 1.096 3.658-6.004 3.297 3.735 3.877-3.5 3.444 5.177 2.21-3.854 4.752 8.576 7.754-1.62 6.603-6.62.433.235.72-.53 6.585 2.397 7.257-5.986 6.824 2.312 7.28 10.74 7.714.95 6.71-6.442.185.205 1.132-.23 6.49 3.133 3.61-5.974 3.43-1.433 3.015 1.512 4.203 7.958 7.562-11.295 6.862.328 7.27 3.695 6.975-.142.227.36.476-.273 7.062 1.8 4.358-3.417 2.965 1.6 3.228-5.467 1.927-.907 1.905 3.906 1.056-2.07 6.088 12.5 7.742-8.835 5.293-5.723 1.3.65 7.684 7.364 3.147-6.098 3.783 4.27 7.143-1.337.062.096.12-.022 7.126 8.332 7.657.607 7.354-5.67 6.855-2.818 6.805 8.446v-1.594l-6.493-8.062-7.606 3.13-7.217 5.542-6.858-.547-6.494-7.596 6.126-1.233 7.418 5.674 11.88-11.417 2.674.324 1.99-.854 4.586 4.377v-1.383l-3.585-3.422 3.584-1.533v-1.088l-4.37 1.87-2.28-2.175-2.946 2.83-4.347-.526-7.064 1.82-5.23-5.393 5.17-2.503 5.96.508 1.02 1.002 7.41-.805 6.684 1.668v-1.03l-5.76-1.44 5.76-2.48v-1.09l-6.767 2.952-7.103.328-.795-.066-5.188-5.102 6.04-9.643 4.16 3.987 2.736 4.064 6.913-.06v-1l-6.385.057-.223-.33 6.606-3.59v-1.14l-6.567 3.567-2.312-2.215-5.024-7.468-7.34 10.582-7.025-7.19-6.697 1.37 5.854-5.637.77.322.858-.75 6.287 2.507 7.326-2.34 7.246.773 6.612-1.706v-1.032l-6.688 1.727-7.274-.78-7.187 2.295-5.48-2.186 5.51-4.83.143-.024 7.123 2.56 7.39-4.468.62-.13 2.3-.253 3.546.073v-2.067l-4.657.98-2.067-.042-.366.057-6.563-3.862-7.492-1.576-7.375.976-7.23 1.478-5.288.776-1.73-2.06-2.436.813-5.04-3.19-6.774 6.247-.52.104-.433.26-6.562-2.194-5.89-.49-1.48-1.686-.753.67-6.55-6.388-7.25 7.325-7.126-7.19-5.566 2.113 5.648-5.312 4.863-.225 2.25.72.997-.615 5.953 1.09 7.312 6.896 7.48-.75 7.385-4.367 6.988-1.373 7.113 3.883 7.627 3.757 7.312-9.83 6.87 1.394 7.335 4.186 7.432-1.107 6.484-2.52.092.04v-1.15l-.07.03-6.05-2.585 6.12-1.533v-1.04l-6.72 1.688-7.208 1.022-3.302.116-3.828-2.568-5.38 1.037-1.942-.605-7.31 1-7.013-.652-7.445-7.69-6.385 5.24-.932-.702-.953.844-4.486-2.987 5.59-1.456 7.043-4.136 7.116 7.357 7.693.336 5.692-6.556 1.242 1.306 2.678-1.446 4.59 2.806 7.22-1.504 7.454 5.888 6.584-7.606v-2.404l-4.62-2.36 4.62-2.646V73.3l-5.686 3.255-.893-.456-2.14.4-5.072-1.618-7.24-1.84-3.738-1.062 10.906 1.25 7.23-2.272 6.63 1.486V71.42l-6.673-1.497-7.29 2.29-14.49-1.655-7.095.405-7.432-4.793-7.363 6.444-6.938-1.02-7.28-3.868-6.603-.16 6.487-1.836 7.168 1.554 7.418 1.01 7.204-4.017 7.205 2.513 14.54-5.054 7.23 1.764 7.26-1.845 6.648 1.73V62.35l-6.647-1.73-7.267 1.848-7.277-1.775-14.488 5.036-7.3-2.547-7.307 4.072-7.05-.957-7.372-1.6-7.293 2.064-5.1-.333-2.17-.462-.313.16-6.733-2.418-5.408-1.57 5.398-3.49 6.998.508 7.347 1.892 7.414.473 7.104-4.355.02.007.077-.034 6.988 2.846 7.48.397 7.266-1.555 7.23.046 7.12-.3 7.387 3.845 7.35-4.376 6.546.93v-1.01l-6.754-.96-7.176 4.27-7.127-3.71-7.366.31-7.31-.046-7.243 1.55-7.104-.35-5.996-2.44 5.96-2.567 7.07.943 7.34 1.646 7.312.337 7.257-.43 7.28-3.347 7.138 1.648 6.72.93V54.74l-6.536-.904-7.43-1.717-7.325 3.406-7.11.423-7.17-.328-7.296-1.643-7.394-.987-7.115 3.064-.11-.045-.05.03-7.177-3.148-7.28 3.898-7.17-2.4-7.347 1.295-7.162.782-7.307-.496-7.293.245-7.06.792-7.37-5.435-7.27 4.68-7.1-4.622-7.246-.19 7.117-2.51 7.178 1.8 7.31.736 7.317-.995 7.154-1.08 7.23 1.748 7.407-.455 7.103-1.586 7.27 2.98 7.28-2.07 7.185 2.173 7.39-.042 7.28-.973 7.16-1.348 7.166 1.39 7.414 1.314 7.26-3.453 7.02 1.17 7.51 2.575 6.563-4.83v-1.24l-6.735 4.955-7.092-2.426-7.41-1.242-7.256 3.45-7.092-1.258-7.348-1.425-7.32 1.38-7.19.964-7.175.037-7.322-2.213-7.23 2.053-7.24-2.967-7.325 1.644-7.18.435-7.275-1.758-7.342 1.107-7.193.98-7.12-.713-7.397-1.86-7.266 2.563-7.176-1.312-7.23.268-7.325-.827-7.17.274-7.39-.894-7.15 3.425-7.28-4.02-7.326 4.526-7.072-1.396-7.168-1.138-7.444-2.563-7.33 3.5-7.043-.126-7.32-2.85-7.326 1.992-7.128-.556-7.247-1.08-7.436-1.176-7.264 4.57-6.13-.595v1.004l6.384.622zm6.953 47.118l-1.44-.232 1.6-.77.543.293-.703.708zm-.078 18.827l-2.132.588 2.443-1.748.63.277-.94.883zm14.874-3.51l-7.407 4.417-4.743-2.094 5.004-4.7 6.792-.966 6.627 9.383-1.17.422-5.104-6.46zm7.13 9.025l-1.375-1.74 1.117-.397.046.065 2.314-.586-2.103 2.658zm246.562 20.537l1.28 1.22-1.355.577-1.596-.192 1.672-1.605zM27.768 67.355l-5.867-5.15 5.896-1.73 6.47 1.164-6.498 5.715zm21.618-6.03l-7.11 4.937-6.587-4.752 6.593-3.024 7.157 2.847-.054-.007zm14.793.373l-7.358.405-7.32-.764 7.275-1.448 7.15-.093 7.262 2.922 7.483-.396 7.118-4.186 7.003 3.495 6.845.75-6.798 5.41-6.983.046-7.314-1.27-6.05.605-1.23-.76-.52.345-6.564-5.062zm57.6 4.57l7.368.268 7.327 1.698 7.466.536 7.115-6.49 7.15 4.953 7.386-3.16 7.06.746 7.187 2.803 2.324.272-2.233.714-7.062.356-7.424-3.447-7.368 6.004-7.047.43-.145-.003-7.286-1.198-1.203 1.16-5.77.595-7.107-4.185-7.506-1.053-7.265.026-6.05.21 5.543-4.39h.547l.848-.037 6.15 3.188zm-4.148-3.28l4.55-.204 7.207-5.176 7.145 1.095 7.154-1.787 7.224 4.138-7.33 6.688-6.96-.494-7.347-1.7-7.137-.22-4.508-2.34zm69.477 31.217l-7.003-2.62-6.596-1.195-.84-.28-.313.24-6.826 1.736-7.06-2.31-7.42-4.457-7.263 2.958-3.81-2.02 3.84.352 7.332-2.42 6.16-1.79.962.646.756-.552 6.367 2.854 7.21 1.717 7.378 2.438 7.416-1.42 5.907-1.598-6.198 7.72zm.236 1.157l-.05.014-2.653-1.03 2.703 1.016zm-51.196-9.347l.382-.065.87.077 6.333 3.354 7.233-2.945 7.037 4.23 7.492 2.463 4.894-1.244-4.9 3.815-7.113-4.58-7.438 1.167-7.19 4.02-7.052-3.37-5.582-2.188 5.034-4.735zm-.467-.934l-6.337 1.106-7.176-3.818 7.163 1.765 7.206-3.996 7.284 3.117 7.195-5.09 5.214 3.51-5.38 1.562-7.15 2.36-6.01-.548-1.265-.67-.747.703zm23.227-3.732l-.61-.274-.815.237-6.48-4.362-7.302 5.167-7.22-3.09-7.292 4.042-7.15-1.76-7.194.932-7.113-3.436-7.36-.71-4.222-1.506 4.156-2.51 7.26 3.02 7.303-4.704 6.938 1.19 7.295 5.443 7.617-.263 6.123-5.9.906-.093 7.025.175.033.006 7.362 5.473 7.438-2.465 7.246-1.433 7.188-1.31 7.182-.366 7.123 1.737 3.48 1.82-3.497 1.172-7.006 2.986-7.29-4.833-7.292 4.273-7.28-3.435-6.552 4.778zm-65.918-5.886l-3.087 1.424-3.926-.638-5.727-4.52 5.627-.883 7.122-1.596 7.284 2.043 7.328-2.75 7.15-.247 7.18-.03 7.15.97 7.304 4.3 4.83-.5-4.926 4.744-6.883.237-7.207-5.376-7.56-1.296-7.19 4.63-7.242-3.012-5.286 3.194-1.942-.694zm.838 1.36l-.915.553-1.245-.202 1.37-.632.79.283zm-14.645-5.937l-.48-.38-.87-.024-3.946-2.44 4.616-.463 7.268 1.256 4.625-.025-4.706 1.055-6.51 1.022zm28.317-3.71l-6.383-4.646 6.394.578 5.116.007-5.128 4.06zm-.788.663l-6.473 2.404-6.557-1.84 6.594-5.25 6.437 4.686zm-71.717 4.337l7.363.308 7.306-3.097 7.014-2.167 7.33 5.246 6.692-4.475.422.327 1.13-.113 3.593 2.223-4.648-.13-7.244 2.39-7.248-.446-7.25 2.313-7.262-.473-6.182 2.286-.88-.997-.968.505-3.625-3.114 4.457-.585zm-7.234-.484l.427.368-.377.05-.398-.126.348-.29zm-27.05.492l5.372-.608 7.167-.97 7.182.232 4.934 1.55-4.89 4.078-7.23-4.593-5.51 4.05-1.84-.843-.96 1.036-4.226-3.93zm6.102 4.415l-.76.558-.387-.36.47-.507.677.31zm6.312 5.71L6.083 84.36l-4.838-2.793 3.744-4.04.99.923 1.876-1.378 5.25 2.4 6.383 2.174-6.363.66zm.348-3.763l-4.697-2.15 4.51-3.312 7.27 4.618 5.944-4.957 1.222.384 1.486-.194 4.002 3.438-5.618 2.935-7.05 1.644-7.07-2.406zM34.97 83.49L21.723 81.7l6.16-1.436 6.144-3.193.89.765.8-.296 3.888 4.41-4.633 1.54zm7.48.175l-1.097-1.245.798-.266 1.426 1.273-1.125.238zm-.064-2.642l-1.75.583-3.915-4.438 5.622-2.078 7.238.47 7.25-2.31 7.255.446 7.26-2.395 6.193.172.88.544.488-.077 6.655 5.252 2.72.442-2.75 1.27-6.956 3.786-7.26-5.773-7.335 4.276-7.24-2.913-7.395 3.928-4.556.962-2.404-2.147zm14.386 9.97l-5.964-3.405 6-5.336 6.925 4.847-6.96 3.893zm14.455-5.467l-.453.04.377-.136.1.094-.023.002zm.166-1.25l-4.48 1.646-2.755.252-7.425-5.196-6.84 6.085-.396-.228-.34.23-3.44-3.07 3.906-.826 7.177-3.79 7.262 2.92 7.167-4.178 7.243 5.76 7.508-4.09 4.066-1.874 3.07.5 1.93-1.165 5.05 1.8 7.283.688 7.298 3.523 7.274-.94-7.13 3.32-7.158-5.353-7.517.537-7.19 1.708-7.188.013-7.317 1.954-5.947.843-1.113-1.07zm50.62 2.77l-7.445 4.262-6.926 1.94-7.28-6.397-7.358 3.05-7.275-2.604-7.123 3.91-5.183-4.98 5.23-.74 7.185-1.934 7.18-.013 7.28-1.724 7.066-.5 7.337 5.495 7.294-3.4 7.184 3.823 5.177-.903-4.273 4.017-.926-.363-.797.724-6.348-3.66zM78.394 97.99l.488.472-.393.445-.748-.7.653-.217zm.163 2.35l1.045-1.182 5.957 5.756 7.42.33 7.34.534 7.235-.813 2.253-.18-2.526 2.01-6.987 1.978-6.053-2.515-1.274-.98-.665.687-6.392 1.703-7.23-6.83-7.484 1.47-7.163 1.105-7.215-1.48-4.177-.4 4.223-4.565 7.046 4.178 7.416-.797 5.337-1.775 1.895 1.766zm36.244 4.048l1.81-.964 5.426 3.896 7.32-6.223 2.666 1.067 4.425 2.1 7.275-1.5 7.28 2.663.767-.26 6.492 4.482 6.756-4.655.684.204.457-.596 3.517.307-4.268.95-7.39 4.453-6.113 3.45-.842-.077-.254-.026-6.888-10.056-7.587 4.07-7.182 1.607-7.216 3.716-7.168-1.418-7.236 1.227-4.983-1.238-2.068-1.77-.088-.017 7.257-2.05 3.912-3.087 3.24-.255zm-1.826-.86l1.8-1.422.96.688-1.12.604-1.64.13zm4.62-.63l4.53-2.408 6.088.266-6.23 5.298-4.388-3.155zm24.443-.808l1.703-.573 3.394 1.43-3.336-1.22-1.76.363zm10.913 2.68l5.32-1.796 5.52 1.654-5.53 3.81-5.31-3.667zm34.11 10.96l5.337-1.257 2.07.63 4.324.48-4.395 2.545-7.21-.37-7.354 2.692-4.205 1.623-1.313-1.756 5.93-1.363 5.688-4.785 1.127 1.56zm-.362-2.208l.687-.576 3.11.95-3.015.708-.78-1.082zm22.07 3.916l7.527 6.943 7.48-7.294 1.33-.207 5.792 4.228 2.5-3.36 4.513 2.87 7.254-.355 6.842 4.358-6.622 1.2-7.244-3.958-7.432 1.104-7.396 1.24-7.138 6.565-2.805-1.062-4.38-5.12-1.944 2.8-5.265-1.81-7.304 2.395-6.714-.93-.28-.368-7.365 1.312-.077-.05-3.783-5.04 3.935-1.517 7.156-2.62 7.302.375 5.822-3.375 1.312.146 2.623-.02 4.36 1.552zm-1.512-1.564l1.92-.014 7.115-4.43 6.953 4.096.715.52-.653.104-7.03 6.854-6.903-6.37-2.116-.76zm19.244.793l4.182-.648 1.87 1.19-1.866 2.51-4.186-3.053zm20.117 12.248l-1.18-1.953-3.323 2.53-3.914-.376-7.293-4.29-7.45.61.31-.287 7.095-1.192 7.088-1.053 7.262 3.965 6.826-1.236-5.42 3.28zm5.96-2.437l6.94 3.347 3.862 2.73-3.78.27-6.935 6.112-5.533-9.166 5.446-3.292zm-6.816 2.955l-.582.353-1.596-.152 1.574-1.198.604.997zm-73.09 17.466l-3.97-2.554-3.32-3.55-.392.804-6.363-6.78-.114-.124-3.754-.664 3.643-3.092.693.135 6.332 2.35 7.123-.15 6.148 6.664-6.026 6.96zm2.605-1.483l-2.054 2.98-.414.337-1.312-1.398 1.357.877 2.422-2.796zm-45.708 3.507l-4.703-3.705-1.423-2.12 4.136-2.987 1.42 2.51 7.798-1.446 4.163-5.807 2.748 1.603 2.276-.8 5.17.922 2.613-2.22 4.243.75 2.47 2.634-2.247-1.94-7.283 7.39-7.278-5.073-7.5 8.906-4.927 3.23-1.676-1.85zm.834 2.397l-1.004.66-2.732-4.075 2.223 1.748 1.513 1.668zM117.34 138.46l-.432-.404 5.074-7.842 5.105 9.025-4.197 3.03-.464-.688-5.086-3.122zm4.74 4.396l-.027.02-1.234-1.156.84.51.42.626zm-7.355-4.83l.727.438-.684 1.06-.75-1.19.707-.308zm-1.247-.548l-.438-.692 1.255.338-.817.354zm1.535-1.198l-2.76-.744-2.144-3.398 3.73-3.383 1.088.477 1.072-1.453 5.806.176 7.528 7.146 5.24-7.315 2.16-.047.87-.94 3.954 6.026-.878 1.227-4.222-2.462-7.49 6.295-1.064.77-5.864-10.363-5.874 9.074-1.153-1.086zm-22.186 6.597l-.774.315-6.338-6.097-5.394 7.01-1.176-.36-.72-.57-4.537-5.5 3.883-6.95.816.51 2.633-2.49.994-.04 3.563 3.98 1.236-1.43 5.897 10.364 6.168-6.36.9 1.592-5.33 5.542-1.82.483zm.49.9l-.315.33-.164-.157.306-.125.174-.047zm-2.276-.17l-5.292 2.16-4.405-1.35 4.484-5.827 5.214 5.018zm-19.482-1.758l1.806-3.234 4.49 5.44-1.083 1.89-5.417-2.39-5.48.563 1.662-2.44 4.023.17zm-3.362-1.145l3.115-4.58 1.372 1.662-1.696 3.037-2.79-.118zm10.47 3.944l.006.002.765.606-1.07 1.392-.677-.297.977-1.704zm-.442-16.786l-.813 1.455-1.833-1.15 2.962-3.572 2.57 2.873-.306.29-2.58.104zm1.476.94l-1.24 1.174-.2-.127.563-1.01.877-.036zm13.48-19.17l4.83.78 1.95 1.5 2.07.524 5.358 4.584 7.277-1.87 5.655 3.926-5.607 1.877-7.016-.932-7.546-5.056-6.168 8.147-.805-.688-1.22.136-4.626-7.447 5.85-5.48zm-6.388 4.62l-.447-.722 6.485-6.672.15-.04.753.31 2.604 2-3.483-.56-6.062 5.683zm10.518-5.638l2.642 1.1-1.536-.25-1.106-.85zm75.606 14.508l-1.486-1.717.842-.98.393.274.59-.136 1.414 1.884-1.754.676zm2.373.156l2.43 3.242-4.177-2.568 1.746-.674zm-24.32 10.086l-5.067 1.78-1.838-.33-1.29-1.97 1.208-1.688 7.043 1.44 5.553-1.42-3.1 2.628-2.51-.44zm1.52 1.285l-1.623 1.38-2.96-.53 3.147-1.104 1.436.254zm-8.506 1.166l-.17.06-.22-.128.39.068zm-.577-.178l-1.858-1.084.597-.835 1.26 1.92zm7.593-4.062l-7.454-1.525-1.362 1.9-3.88-5.91 5.694-6.14 6.79-.563 7.245 9.035 7.72-.377 5.017-5.824 1.48 1.71-6.91 7.39-5.973-1.16-1.076-.4-7.29 1.863zm19.768-10.935l-2.83-3.272 3.516 2.48-.686.792zm-.66.765l-4.83 5.61-6.784.333-7.258-9.055-7.708.642-5.788 6.242-.23-.352 6.518-10.883 3.69.395 3.07 2.916 7.534.91 6.598-2.374.354.02 4.835 5.597zm-60.75 11.414l1.472 2.334-3.12-.84 1.647-1.493zm-2.103.61l-6.76 2.305-.69-1.222.772-.797 6.776-4.073 1.48 2.346-1.578 1.442zm.422-5.15l-7.67 4.614-.708.728-5.104-9.006 5.998 5.11 7.337-3.733 5.313 2.325-3.26 2.982-1.906-3.02zm-9.105 6.087l-5.45 5.602-5.415-9.516 4.637-5.365.63 1.016.524-.688 5.074 8.952zm8.927-9.48l-7.166 3.645-5.59-4.765 5.633-7.442 6.956 4.66 7.477.99 5.617-1.88-4.922 6.667-.932-.026-.924.845-6.15-2.697zm14.21-4.844l.167.115.58-.057 6.577 7.8 4.29-.093-4.135 5.77-6.974-6.616-5.494-.165 4.99-6.755zm7.78 6.848l-5.826-6.91 5.588-.556 2.955.422 3.254 4.98-1.408 1.968-4.562.096zm-6.59-7.84l6.213-3.937 2.365 3.618-2.205-.312-6.373.633zm13.148 6.674l.48.737.41-.684.1.154-.75.812-.987.02.748-1.04zm.85-1.826l-.37-.562-.442.62-2.562-3.92 3.216.46 7.094-9.847 2.69 2.558-3.026-.322-6.6 11.013zm21.31-6.754l-6.972-.84-1.883-1.79.895.095.61.896 1.265-.713 6.107.547 4.203.285-4.226 1.52zm-10.048-3.763l-4.468-4.247-7.41 10.283-3.486-.498-3.386-5.18-7.164 4.557-.26-.312-.503.68-6.624-4.596-7.218 1.854-3.424-2.927 3.277.832 7.26-1.23 7.33 1.45 7.35-3.804 7.186-1.603 6.984-3.73 5.9 8.613-1.344-.14zm-56.368 10.814l-4.61 5.334-1.127-1.982-3.41.137-.142-.158 3.49-3.305 5.444-.594.355.568zm-5.303 6.137l-.726.84-2.255-2.522 1.977-.078 1.002 1.76zm13.888 7.547l2.002.92-2.363 2.164-3.5.934 3.86-4.017zm.06-1.07l6.56-2.232-3.818 3.49-2.74-1.26zm7.212-1.476l3.966 1.07.933 1.478-5.03 2.184-3.353-1.543 3.483-3.19zm32.446-.468l-3.873 5.402-6.7 1.242-1.124-1.984 1.185-.855 6.98-5.865 3.53 2.06zm32.886-2.597l-7.383.155-.454-.168.545.104 7.163-7.66 6.502 3.998.445.6 7.432-1.294 1.852 2.435-2.102.57-5.775 7.313-1.47.425-.376.436-6.378-6.915zm15.64-4.09l5.813.805-4.312 1.172-1.5-1.976zm-1.06 3.71l2.176-.592 4.562 5.998 5.236-.648-5.062 4.34-6.656-4.146-.42-.405-2.14.716-2.403.694 4.707-5.955zm7.01 10.332l6.762-5.8.383-.046-7.19 6.962-3.306-3.203 3.352 2.087zm6.34-6.754l-6.162.767-3.97-5.22 3.755-1.02 6.94 1.626 1.315 1.908-.896 1.287-.107-.1-.875.753zm1.168-4.732l-7.46-1.75 7.155-2.34 4.68 1.604-3.053 4.396-1.322-1.91zm4.658 8.517l-4.096-3.754.756-1.09 3.34 4.844zm-4.676-2.918l.004-.01 6.518 5.968-2.012 3.41-4.564-9.36.054-.01zm1.946-2.804l3.43-4.94 1.418.485 3.922 1.49 3.064 3.585-6.738 6.766-5.096-7.384zm4.02-5.795l1.046-1.503 2.35 2.75-2.23-.848-1.165-.4zm6.697 3.567l1.674.636 6.177-5.685-6.275 6.892-1.577-1.843zm9.054-4.884l6.895-.564 7.115 4.187 3.188.324-3.088 2.355-7.146-.438-7.262 1.812-6.55-.165 6.847-7.512zm-43.99-8.38l-6.128 1.41-.87-1.157-.685.8-6.52-4.6-.812.292-6.47-.44-4.646-.417 4.86-2.74 7.182-4.358 7.04-1.565 7.328 4.502 1.642-1.44 3.636 5.038-5.56 4.676zm-4.99-12.69l4.954.258 1.373 1.905-1.16 1.014-5.166-3.177zm5.485-.718l-7.264-.376-.095-.06-6.047-.525 5.996-7.807 6.86 4.636 6.76 2.328-4.612 4.02-1.597-2.217zm-159.67-3.558l-5.17-2.803 5.284-5.337 6.854-.138 7.24 6.313 7.518.168 7.25-1.07 7.334-4.17 7.093-.718 7.053.02 4.76 4.457-4.67 1.56-7.03.76-7.457-4.42-5.288 5.715-1.933-.188-2.62.926-4.536-2.455L35 102.6l-4.546-1.537-2.685-1.334-1.28.605-5.876.732zm29.922 1.26l-1.12 1.213-1.393-.754 1.558-.55.955.092zm-4.97.267l-3.37 1.19-6.56-.36 6.6-2.634 3.33 1.804zm-3.088 6.188l-7.252-3.36-7.376-.548-6.382-1.082 5.286-2.48.96-.118 2.364.8 4.716 2.344 7.546.455 4.41-1.558 2.872 1.555 2.166-2.342 4.88.47 7.34 1.508 7.36-1.14 7-1.37 7.263 6.858 5.317-1.418-5.222 5.375-7.187-5.603-7.2 5.11-7.168-7.584-7.55 2.412-5.396 4.738-1.67-2.408L47.42 112l-4.943-3.218zm36.046 3.084l-7.48 3.494-7.183 3.63-3.625.603-3.565-2.025-.83.896-4.053-5.838 5.23-4.636 6.852-2.188 7.333 7.76 7.303-5.185 6.49 5.062-1.423.85-5.05-2.424zm4.02 3.035l-4.342 2.6-7.063 5.876-6.937-1.533-2.583-1.467 2.484-.412 7.38-3.703 7.038-3.288 4.025 1.93zm-23.875 4.953l-1.67.276-.574-.83.44-.474 1.805 1.027zm26.935-5.618l.442.71-.37.347-1.02-.488.948-.57zm-35.138-1.766l-.995.872-1.21-.79 1.224-1.496.98 1.413zm-2.842.86l1.94 1.267 1.473-1.305 4.108 5.918-5.563 5.982-5.26-7.828 3.302-4.035zm-5.64 5.308l-.224.057.264-.103-.038.046zm.735-.897l-.233-.403-1.84.72 1.59-2.005.84 1.254-.357.435zm14.052 7.01l-7.095 5.04-6.422-11.123.406-.494 5.796 8.625 6.273-6.746.81 1.168 3.513-.584 3.722 2.113 7.63 1.708 7.376-6.143 4.848-2.896 2.236 1.07.722-.677 4.268 6.87-5.304.58-3.713 3.515-3.327-3.717-3.787 4.565-3.45-2.164-3.773 2.355-3.382-3.604-4.542 2.556-2.804-2.017zm17.307 3.655l-2.83 3.412-3.053-3.254 3.075-1.92 2.807 1.762zm-7.445-.047l-2.594 1.62-3.57-2.57 3.455-1.938 2.71 2.888zm-7.128-.41l4.495 3.234 3.33-2.08 3.964 4.227 3.638-4.39 1.99 1.25-3.718 6.656-1.972-2.39-4.212 6.19-2.695-.113-6.344-11.732 1.524-.852zm-3.483 2.164l.99-.766.095-.055 6.605 12.218 2.643.113-1.787 2.626-.567.06-.28.01-6.8-12.856-2.847 2.365 1.948-3.713zm-21.052 17.364l-3.002.274-3.875-3.933-.252-.22 7.434-6.33 6.948-2.64 1.958 1.13 5.43 6.582 3.257-6.212 3.746-3.114 5.996 11.338-5.858.192-7.213 2.79-7.37-3.566-2.852 2.823-4.346.886zm3.053.4l-3.003 2.975-2.147-2.18 2.242-.207 2.908-.588zm8.633-10.686l2.913 1.682 1.3-1.078-1.444 2.752-2.768-3.356zm-4.338-6.675l7.226 4.608 4.58-3.54-2.05 3.904-2.61 2.17-4.627-2.674-2.327-2.817-1.94-.084 1.747-1.567zm-2.8 2.513l2.505.12.337.407-.05-.027-5.8 2.2 3.01-2.7zm-4.69-.222l3.27.155-3.02 2.71-3.273-4.104 3.022 1.24zm-.282 3.804l-6.75 5.715-4.35-4.396 4.536-7.93 1.922.787 4.642 5.823zm-8.035 5.84l-3.78-3.27.2-.35 3.58 3.62zm1.254-14.346l.86 1.078-1.075-.44-4.833 8.448-1.246-1.26 6.293-7.826zm-7.41 8.743l.224.194.264-.327 1.36 1.377-.24.42-1.53-1.323-1.498 2.047-.06-.075 1.482-2.313zm1.1 2.55l-1.006 1.76-.872-1.107 1.022-1.396.858.742zm-3.155.648l.02.024-.285.387.265-.412zm-5.05-6.4l4.395 5.57-4.556 7.093-1-.51-4.768-5.18 5.93-6.972zM6.67 141.39l2.86 3.108-1.913-.976-1.285-1.737.337-.395zm-.793-.86l.11.12-.176.204-.61-.076.677-.248zm-1.02 1.213l.78.1-.176.366-.603-.465zm1.12 12.277l-3.645-2.98 3.505-7.308 1.106.56 3.65 4.944-4.615 4.783zm2.96-8.705l2.533 1.29.814.886-.985 1.02-2.362-3.196zm4.504 6.095l-1.54-2.084 1.063-1.098.347.377.498-.682 4.414 1.623-4.78 1.864zm14.292-3.265l-1.08.077 1.002-.355.284.256-.206.022zm.15-1.416l-5.004 1.767-2.397.174-.85.332-5.207-1.915 4.54-6.196 1.62 2.052 1.645-2.877 5.183 4.485 3.273 3.322-1.393.127-1.408-1.274zm14.22 7.35l-6.87-.708-4.934-4.46 1.29-.118 3.425 3.477 4.797-4.752 2.242-.453 3.105 4.287-3.056 2.725zm.383-8.122l-1.38.28 1.264-1.255 6.437 3.11-2.9 2.588-3.422-4.724zm14.03 11.04l-6.716-.942-3.303-4.56 3.248-2.895 6.834-1.174 3.41 3.865-3.476 5.707zm4.02-6.6l-3.574-4.052-3.796.652 3.708-1.45 6.26-.208.225.427-2.82 4.63zm3.527 3.996l-2.833-3.21 2.67-4.39.067.126.155-.228 3.177 4.774-3.238 2.928zm7.18 1.194l-2.632-3.955 2.53-2.283 1.808 3.264-1.707 2.974zm.162-7.824l-3.354 3.027-3.32-4.992.41-.6 6.052-.62 5.08 2.236-2.742 4.78-2.126-3.83zm14.118 11.91l-6.74 1.408-4.688-8.46 3.096-5.4 1.49.657 1.54-2 5.31 4.215 6.178 3.377-6.186 6.203zm8.097-7.12l-.733-.265-.444.444-6.36-3.473-4.798-3.813 4.51 1.382 6.032-2.466 1.203 1.156 2.152-2.235 5.33-1.418 2.855-2.612 4.143 1.906 5.58-2.425 1.668 2.647 1.55-2.396.37.227 4.303 4.03-6.358.847-7.21 2.14-7.25 1.562-6.543 4.765zm35.468 10.488l-6.79-.838-7.216-10.643-7.67-2.602-7.245 5.98-5.424-1.978 5.73-4.223 7.184-1.547 7.17-2.13 7.04-.935 2.255 1.77 5 7.458 1.965-1.29 4.388 4.835-6.387 6.143zm14.482-3.584l-4.49-2.168 4.876-1 2.048-.855-2.434 4.024zm7.46-7.207l-2.59 1.086 2.542-4.207 2.225 4.213-2.176-1.093zm.01-5.15l-4.165 6.894-3.212 1.347-6.065 1.235-1.182-.57-.22.212-4.267-4.692 4.854-3.185 7.066-8.36 7.22 5.032 7.22-7.32 6.058 5.226-6.312 12.848-3.293-1.65-3.702-7.017zm29.095 7.445l-7.14-3.63-7.74-.415-6.94 10.37-2.766-5.237 2.94 1.475 6.64-13.518.046.04 7.676 7.075 1.117-1.62 5.927-4.82 6.363 10.157-6.125.122zm14.275 1.658l-5.594-1.424 5.72-3.31 3.51 1.894-3.636 2.84zm7.182-2.065l-1.734-.934 2.188-1.713 1.54-.726-1.994 3.375zm2.894-4.904l-2.92 1.378-2.662 2.08-4.387-2.363-7.078 4.092-7.298-11.645-4.154 3.377 3.61-5.24.448.487 1.562-1.982 3.94-1.316 1.644-.476.006.002 7.322 7.1 7.105-6.88 4.332 8.884-1.47 2.5zm1.61-.756l.393-.666.19.392-.584.274zm2.947 2.29l-1.02-2.092.776-.366.73 1.502-.487.957zm.223-3.785l-1.682.792-.486-.996 2.156-3.654.912.32 1.914 1.355-1.98 3.893-.834-1.71zm13.9 6.953l-6.76 7.713-5.758-11.828 2.258-4.435 3.375 2.394 3.013-2.045 1.615.1 2.492 3.913 3.14-2.197 1.73.867-5.104 5.518zm-7.045-8.395l1.538.094-1.365.928-2.695-1.908 2.523.886zm-2.333-1.88l2.55-5.005 3.503 5.5-.86.584-2.593-.166-2.6-.913zm9.98 1.382l-2.27-.143-.292-.463 2.342-1.592 4.115 2.695-1.217.854-2.68-1.35zm1.754 1.998l-1.837 1.287-1.543-2.422 1.27.078 2.11 1.058zm3.445.62l-1.506-.757 1.103-.77 1.133.74-.73.79zm.48-2.148l1.48-1.034 1.5.166-1.27 1.274-.583.006-.188.203-.94-.615zm8.463 9.735l-6.77-6.49-1.244-.627.646-.703.314.207.72-.72 6.243-.077 2.8 3.158-2.71 5.252zm3.203-6.205l-2.843-3.21-5.688.07 1.104-1.118 4.467.496 6.968-4.115.027.05-4.034 7.827zm4.376 4.94l-3.664-4.14 3.525-6.828 6.32 9.81-6.18 1.157zm-.01-14.188l-7.54 4.455-3.346-.37 3.764-3.79 6.805-3.938 7.237 10.185 4.557-2.35-4.408 7.852-7.07-12.045zm21.434 8.16l7.445-1.918 3.348.406-10.676 10.256-7.096-5.428-6.68 1.348 5.313-9.463 1.46-.756 1.02-.492 5.867 6.047zm-7.457-6.383l.463-.827.393.406-.73.353-.127.066zm12.555-3.214l-5.035-.436-5.715 2.77-1.557-1.605-1.86 3.316-5.13 2.647-7.267-10.22-7.648 4.427-4.467 4.48-2.668-.296-2.115 1.48-5.008-3.277-2.87 1.947-4.43-6.95-3.403 6.682-2.213-.78-1.015-.72 6.883-6.91 7.11.18 7.237-1.812 7.363.453 4.232-3.225 2.98.304.865-.523 6.152 10.19 7.576-6.683 4.662-.33 2.535 1.793.63-1.004 4.178 4.103zm-5.762-5l.63-.045.23.228-.187.297-.674-.48zm-6.605-9.262l7.49 7.664 7.187-10.358 1.64 2.437-1.728-1.66-6.575 10.496-.396-.39-2.302.164-4.932-3.48-7.193-3.478 6.808-1.396zm-7.152-.35l-7.055-4.493-7.254.355-4.183-2.66 4.232-5.688 6.9 2.182 7.224 2.464 5.77 2.414-5.636 5.427zm21.78-9.572l-5.027-1.807 5.157-.91 5.9-.9-6.03 3.617zm-7.22-9.175l7.09 1.465 5.437 3.2-5.34.808-6.893 1.215-.297-.104-6.943-5.664 6.945-.92zm-7.187 2.01l6.356 5.19-5.656 4.956-.867-.346-.78.754-6.198-2.593-.018-.006 7.164-7.952zm-7.208.413l6.73-1.375-6.815 7.57-4.62-5.503 4.705-.692zm-7.517-1.103l.895 1.062-.617.09-1.29-.815 1.012-.338zm-7.033-2.287l3.703 2.344-3.855 1.286-4.846.978 4.998-4.608zm-7.756 6.437l.568.19.773-.715 6.516-1.318 4.69-1.562 2.296 1.453 1.593-.233 5.484 6.534-6.818-2.328-7.593-2.398-4.703 6.318-2.252-1.436-5.543.857-1.565-1.142-.23-.135 6.78-4.086zm-6.905-2.31l5.69 1.902-5.49 3.278-4.884-5.564 4.685.382zm-14.4-7.452l5.788 5.646-5.863 5.218-6.88-3.834 6.954-7.03zm-7.224 8.024l7.283 4.055 6.444-5.737.52.508 1.257.104 5.855 6.666-6.896-4.063-7.392 4.602-4.35.03-2.81-1.012-1.48.86-5.577-.612-.35-.105.32-.076 7.176-5.22zm-7.416-8.133l7.076 7.144-7.164 5.26-1.89.443-5.267-1.61-1.045.88-3.646-5.06 5.063-4.446 6.873-2.61zm-.082-5.345l-7.17 6.74-6.904-2.363-7.588-5.126-6.957 9.06-.32-.027-.532.365-6.592-1.978-6.33 2.138-.63-.435-7.513-3.18-7.257 2.444-4.092-1.64-2.958-1.402-7.58-.37-5.18 2.79-1.97-1.416-3.54 2.816-3.748.3-7.16.81-7.26-.535-7.057-.313-5.715-5.522 5.57-6.304 6.99 5.364 7.48.646 7.192-.596 7.274.246 7.437-.15 6.282-5.684.843.485.972-.913 5.99 2.348 7.486 3.58 7.398-4.173 6.975-1.094 7.39 4.757 7.257-5.646.46.082 6.58 2.197 7.407 2.872 7.27-2.042 2.343.75-2.542.12zm8.33-.19l-.78-.144-.056-.01-2.082.096-5.195-1.66-7.04 1.978 7.087-8.817 6.998 6.416 4.43.067-3.362 2.075zm-7.003-8.942l6.145-.107 7.38-3.113 6.99-1.93 6.37 5.63-6.217 6.25-7.37-1.672-1.353.837-5.61-.09-6.335-5.805zm78.748 8.725l5.78-.82-5.788 2.21-1.967-1.317 1.975-.073zm-7.434-2.387l2.337 1.566-2.164.076-3.32-1.037 3.146-.605zm-28.954-6.62l7.062 7.298 7.438.693.057.004 7.004-.958-7.13 6.004-6.993-2.036-7.168-2.168-5.754-4.334 5.484-4.503zm-7.188 4.474l.086.065-.145.117-.087-.058.145-.124zm-.916.81l.922.613.902-.74 6.018 4.533 7.416 2.272 7.51 2.188 7.36-6.196 1.706-.33 5.262 1.646 3.715-.133 3.545 2.38 7.314-2.796 5.258 2.247-5.377 2.096-7.033 1.05-7.105-4.052-7.72-1.59-7.194 9.67-6.858-3.378-7.412-4.047-7.434 1.46-7.312 4.35-6.918.69-7.193-6.78-5.152-.943 3.755-2.313 1.092.017 7.504 1.084.11-.12 7.066 2.67 6.256-5.547zm-.86-.572l-5.606 4.97-6.088-2.292 5.932-5.967.133.116.62-.162 5.008 3.336zm23.292-2.59l-6.814-.3-7.39-7.637-7.532 4.45-6.385 1.66-.736-.49-.24.244-6.82-6.027-7.578 2.096-7.165 3.057-7.098.125-.104-.095-.11.138-7.183 1.93-7.125 1.362-7.17-2.367-7.162-1.696-5.76-2.588 5.607-4.09 7.224 3.408 7.21-4.225 7.22 4.786 7.464-3.183 4.367-1.462 2.493 1.306 3.76.307 3.73 2.583 7.336-5.207 7.004 2.244 7.437 2.61 4.23-1.856 3.145-.126 1.483-.847 5.683 1.308 7.084-3.28 5.338 5.604-5.444 6.26zm-51.967-11.347l1.332-.446 2.015 1.395-1.795-.137-1.553-.812zm6.93 2.214l1.918.156 7.105-6.723 6.016 4.642-6.135-1.966-7.17 5.09-1.733-1.2zm19.03-.566l4.423.952 1.55-.062-1.528.67-4.444-1.56zm11.232-.323l.534-.235.143.033-.332.188-.346.014zm22.346 4.548l-.78-.82.782-.9 1.498.917-1.5.803zm21.735-4.256l.94-.538 5.507 2.814-6.564 7.587-7.068-5.585-7.29 1.52-3.755-2.295 3.826-2.067 7.184-1.188 5.04-.944 2.18.695zm-21.85-6.253l7.153 2.03 7.227 1.838 3.275 1.045-3.205.6-7.256 1.2-4.56 2.444-2.718-1.662-1.273 1.467-5.768-6.056-7.424 3.437-4.288-.986 4.52-2.576 7.18-1.325 7.137-1.456zm-51.065-4.76l.14.05 2.052.14 5.357 1.135 7.14.18 7.145 3.796 7.644 1.154 7.146-6.25 7.07 4.56 3.28-.19-3.237.66-7.252 1.34-5.685 3.214-1.527-.352-3.184 1.395-3.98.16-7.077-1.475-7.502-5.788-7.402 7.007-3.162-.24-3.83-2.653-2.716.91-4.385-2.293-7.44-1.83-7.39.38-7.26 1.318-7.313 1.45-7.004 2.318-5.974-4.44 6.073-.37 7.133-5.812 7.08 3.288 7.377-.372 4.48-1.433 2.896.34 1.614-1.313 5.375-.217 7.36 3.797 6.955-3.562zm-21.897.22l.53-.17h.013l-.25.203-.292-.034zm14.78-2.772l5.825 2.09-5.654 2.9-7.142-3.684-4.307.174 3.692-3.004.53.267.84-.543 6.217 1.8zm-36.112-11.87l7.133 5.258 7.405-.833 7.203-.243 7.342.492 7.285-.79 7.13-1.254 7.337 2.455 7.23-3.87 6.096 2.673-6.244 3.826-7.002-.44-7.342-1.89-7.422-.547-6.41 4.143-.824-.24-.514.418-6.518-3.295-7.44.212-7.103 1.077-7.117-3.253-5.992-.19 5.766-3.712zm-7.12 4.668l7.024.187 7.295 3.334 7.338-1.116 7.127-.2 5.89 2.978-4.384 3.566-1.414.057-2.8.893-4.31-.495-7.19-2.805-7.514-.812-7.113 3.047-7.264-5.03 7.315-3.604zM64.05 47.875l7.14 2.45 7.235 1.157 7.44 1.47 7.164-4.425 7.218 3.99 7.353-3.523 7.182.863 7.174-.273 7.325.827 7.195-.26 7.167 1.312-7.27 1.85-7.063 2.023-7.325-3.554-7.393 4.514-7.053.916-7.177-.343-7.3-2.634-7.32 1.225-7.175.417-7.25-1.73-7.195-.686-6.997-2.277 6.926-3.308zm-7.186 4.273l7 2.277 7.29.7 7.324 1.754 7.374-.432 7.116-1.188 7.125 2.57 7.485.374 7.247-.934 7.213-4.353 7.177 3.483 7.42-2.125 7.184-1.83 7.04.186 6.488 4.225-6.315 3.112-7.192-4.12-7.348 1.837-7.352-1.127-7.297 5.242-5.982.27-1.15-.598-.815.646-6.33-.008-7.244-.657-7.16-.753-7.406-3.697-7.376 4.337-7.02.37-7.24-2.914-7.443.105-7.106 1.406-7.313-2.908-7.303 3.35-7.21-1.298-6.73 1.973-.35-.307-1.844.364-5.39-.342-5.936-3.83 5.833-.708 7.236-2.812 7.226 1.418 7.29-2.056 7.045.195 7.43 4.428 7.31-5.625z"/></g></svg>