<svg xmlns="http://www.w3.org/2000/svg" width="289.254" height="158.607" viewBox="0 0 289.254 158.607"><g fill="#01B788"><path d="M275.114 2.65l-7.262-.116-7.252.088-7.264-.11-7.246.103-7.252-.073-7.262-.146-7.243.11-7.26-.122-7.26.06-7.247.146-7.248.018-7.266-.156-7.245.234h-7.245L166.3 2.48l-7.245.09-7.255-.09-14.507-.037-7.243.165-7.254.013-7.246.07-7.238.006-7.27-.274-7.234.256-7.252-.094-7.235.09-7.268-.267-7.242.214-7.25-.01-7.256-.062-7.245.102-7.25-.06-7.26-.144-7.246.197-7.25.04-7.246.007L0 2.637v.5l6.806.057 7.25-.007 7.256-.04 7.24-.197 7.252.145 7.257.06 7.246-.103 7.25.06 7.26.012 7.234-.213 7.265.268 7.24-.09 7.258.094 7.23-.256 7.26.273 7.25-.008 7.246-.07 7.256-.012 7.242-.165 14.5.037 7.257.09 7.24-.09 7.26.203h7.26l7.24-.233 7.26.156 7.257-.018 7.25-.145 7.248-.06 7.263.122 7.242-.11 7.256.145 7.26.073 7.246-.102 7.264.11 7.25-.09 7.26.117 7.267-.06 6.877-.174v-.5l-6.885.175M275.116 5.81l-7.272-.17-7.24.298-7.263-.29-7.257-.04-7.235.138-7.28-.435-7.23.347-7.28-.297-7.224.54-7.273-.434-7.248.203-14.49.084-7.278-.484-7.245.312-7.245.09-7.263-.08-7.243.237-7.235.035-7.267-.486-7.265.058-7.228.47-7.257-.14-7.24.16-7.247-.14-7.25-.182-7.24-.042-7.265-.197-7.24.146-7.26-.132-14.503.164-7.24.16-7.26-.18-7.242.103-7.252-.127-7.253-.08L0 5.446v.5l6.803-.026L14.05 6l7.26.127 7.24-.104 7.262.182 7.25-.16 14.49-.164 7.262.133 7.24-.146 7.257.197 7.242.042 7.247.18 7.258.142 7.24-.16 7.268.14 7.235-.47 7.234-.06 7.266.487 7.26-.036 7.237-.237 7.258.08 7.257-.09 7.227-.314 7.27.483 14.51-.084 7.232-.205 7.286.434 7.226-.54 7.277.296 7.224-.346 7.274.436 7.248-.137 7.245.037 7.275.29 7.243-.296 7.27.17 7.256-.24 6.88-.09v-.5l-6.89.09M275.098 8.715l-7.218.35-7.297-.767-7.23.367-7.287-.38-7.212.613-7.303-.575-7.19.82-7.314-.846-7.223.818-7.245-.077-7.27-.306-7.24.225-7.25-.26-7.29-.35-7.203.756-7.292-.64-7.206.568-7.298-.765-7.207.64-7.29-.705-7.226.488-7.273-.245-7.224.48-7.247-.203-7.275-.304-7.217.49-7.278-.35-7.223.6-7.258-.28-7.25-.05-7.265-.13-7.238.294-7.228-.05-7.308-.75-7.197.934-7.275-.632-7.24.086L0 8.383v.5l6.81.195 7.224-.087 7.304.63 7.192-.934 7.274.752 7.263.052 7.236-.294 7.253.13 7.244.05 7.28.278 7.22-.6 7.276.35 7.217-.49 7.252.306 7.275.203 7.222-.48 7.273.245 7.21-.49 7.296.704 7.204-.64 7.296.766 7.21-.567 7.298.64 7.215-.754 7.254.352 7.27.26 7.236-.226 7.26.306 7.285.077 7.197-.82 7.312.846 7.204-.82 7.295.576 7.22-.613 7.28.38 7.215-.367 7.296.768 7.236-.35 7.278.24 6.874-.256v-.502l-6.876.26M275.134 11.885l-7.3-.717-7.23.562-7.263-.21-7.242-.024-7.29-.323-7.212.755-7.258-.47-7.283-.25-7.23.57-7.238-.125-7.293-.59-7.244.554-7.228.28-7.28-.45-7.214.352-7.305-.74-7.232.86-7.227.3-7.27-.377-7.238.134-7.247-.132-7.24-.272-7.295-.503-7.228.89-7.243.192-7.23.075-7.272-.384-7.244.353-7.24.093-7.235-.167-7.27-.678-7.263-.087-7.257.304-7.202.478-7.284-.936-7.242 1.026-7.223-.188-6.84-.92v.505l6.8.913 7.29.188 7.217-1.02 7.266.93 7.243-.476 7.238-.304 7.23.086 7.268.678 7.26.167 7.26-.095 7.227-.353 7.26.385 7.25-.075 7.273-.194 7.203-.89 7.255.505 7.254.272 7.26.132 7.232-.134 7.275.375 7.27-.3 7.197-.86 7.287.74 7.226-.35 7.276.448 7.264-.28 7.213-.554 7.27.59 7.276.125 7.226-.57 7.246.25 7.293.47 7.218-.756 7.263.326 7.247.025 7.283.21 7.214-.564 7.283.718 7.28-.084 6.86-.602v-.5l-6.885.603M267.836 14.423l-7.23.512-7.29-.347-7.195.69-7.304-.967-7.207.483-7.314-.853-7.198.97-7.312-.67-7.23 1-7.202.336-7.284-1.19-7.26-.29-7.272-.093-7.268.503-7.187.937-7.276-.88-7.257-.18-7.29.02-7.19 1.12-7.266-.56-7.23-.162-7.303-.66-7.207.95-7.25-.32-7.24-.236-7.295-.373-7.213.987-7.258-.16-7.23.07-7.277-.595-7.245.206-7.23.07-7.282-.506-14.478.73-7.285-.3-6.78.69v.502l6.795-.694 7.272.302 7.252-.35 7.22-.38 7.27.506 7.254-.07 7.223-.207 7.273.596 7.244-.07 7.29.16 7.205-.988 7.25.376 7.243.235 7.292.317 7.195-.95 7.265.663 7.235.16 7.308.56 7.21-1.12 7.246-.017 7.226.18 7.314.876 7.236-.936 7.232-.502 7.244.095 7.224.284 7.306 1.193 7.276-.335 7.194-1 7.31.67 7.194-.972 7.296.855 7.204-.482 7.31.968 7.22-.69 7.284.348 7.245-.51 7.23-.14 14.164 1.093v-.502l-14.15-1.09M275.158 16.804l-.036-.007-7.298.7-7.217.887-7.244-1.603-7.293.262-7.242.52-7.25.18-7.27.078-7.236.596-7.224.09-7.27-.82-7.3-.306-7.23 1.056-7.217.337-7.257-.723-7.303-.52-7.22.978-7.262-.852-7.197.37-7.298-1.196-7.255 1.565-7.214.396-7.255-.7-7.27-.505-7.235.117-7.303-.302-7.2 1.294-7.234-1.377-7.276.58-7.262.287-7.23.622-7.196-.03-7.306-1.637-7.293.047-7.214 1.255-7.26-.863-7.197.46-7.29-1.115L0 18.13v.507l6.81-1.205 7.26 1.105 7.206-.46 7.287.87 7.245-1.264 7.194-.05 7.304 1.637 7.273.035 7.24-.622 7.26-.288 7.218-.574 7.26 1.383 7.235-1.307 7.263.306 7.23-.118 7.24.505 7.286.7 7.29-.4 7.203-1.55 7.258 1.183 7.208-.37 7.253.855.032.004 7.23-.985 7.246.522 7.288.72 7.278-.337 7.207-1.055 7.236.307 7.283.82 7.273-.09 7.237-.596 7.252-.077 7.267-.18 7.244-.522 7.222-.258 7.266 1.61 7.293-.9 7.22-.69 7.282 1.403 6.874-.23v-.5l-6.836.234M275.137 21.653l-7.266-.798-7.278-.48-7.303.11-7.2 1.54-7.25-.055-7.213-.163-7.292-1.436-7.255 1.087-7.268-1.36-7.26 1.81-7.25-1.006-7.24.343-7.21-.068-7.305-1.376-7.263 1.854-7.26-.738-7.212.855-7.26-1.524-7.267 1.503-7.23-.69-7.235-.154-7.248-.618-.032-.003-7.24 1.23-7.24-1.077-7.272-.23-7.232.48-7.27.085-7.216.79-7.246-.297-7.285-.427-7.247.556-7.21.416-7.267-1.86-7.28 1.295-7.198.616-7.276-.96-7.267-.216L0 20.97v.5l6.798-.283 7.224.213 7.305.96 7.273-.618 7.196-1.278 7.237 1.852 7.294-.42 7.216-.558 7.256.427 7.287.297 7.228-.79 7.26-.083 7.22-.482 7.22.228 7.29 1.086 7.256-1.233 7.233.616 7.233.152 7.25.692.036.003 7.238-1.496 7.24 1.52 7.237-.864 7.25.743.043.005 7.242-1.85 7.24 1.36 7.27.072 7.207-.344 7.3 1.016 7.248-1.805 7.242 1.354 7.254-1.086 7.25 1.424 7.258.168 7.307.05 7.204-1.54 7.236-.106 7.247.48 7.298.797 7.24-.42 6.89.16v-.5l-6.9-.16M275.125 23.326l-7.313-.433-7.22 1.23-7.274-1.082-7.22.655-7.286-.322-7.236.59-7.256.103-7.224.265-7.282-.592-7.277.148-7.22.878-7.242-1.114-7.257-.412-7.29-.373-7.25 1.934-7.205-.427-7.26-.608-7.28-.43-7.25 1.43-7.195.477-7.29-1.13-7.23 1.123-7.233-.547-7.28-.938-7.3-.057-7.182 1.453-7.227-2.35-7.308.36-7.238.62-7.237.263-7.283-.155-7.204.79-7.257-.55-7.278-.38-7.19.435-7.307-1.386-7.262 1.98L0 24.2v.502l6.83.58 7.235-1.975 7.255 1.368 7.223-.43 7.244.38 7.297.55 7.218-.79 7.265.154 7.264-.266 7.242-.618 7.206-.356 7.203 2.343.064.02 7.258-1.475 7.218.06 7.264.938 7.304.546 7.21-1.114 7.268 1.12 7.28-.477 7.222-1.423 7.21.427 7.26.608 7.29.43 7.254-1.934 7.21.37 7.23.41 7.29 1.12 7.26-.884 7.227-.147 7.283.593 7.25-.264 7.267-.105 7.223-.588 7.286.32 7.193-.655 7.297 1.092 7.24-1.24 7.215.43 7.302 1.67 6.897-.862v-.504l-6.87.86"/><path d="M275.096 25.552l-7.246.388-7.258.105-7.267 1.968-7.23-1.12-7.278.734-7.213.518-7.26-1.985-7.303-.403-7.278.963-7.185 1.698-7.244-2.336-7.278 1.164-7.216.137-7.257-.98-7.313-.83-7.244 2.747-7.22-1.104-7.223.784-7.284-.924-7.233-.004-7.256-.473-7.23-.34-7.295-.82-7.247 1.937-7.23-1.073-7.264.835-7.21.436-7.216-1.71-.04-.012-7.26.688-7.29-.21-7.223.855-7.225.104-7.25-.648-7.257-.69-7.3-.5-7.218.926-7.298.01L0 27.736v.51l6.806-1.36 7.28-.007 7.203-.927 7.243.5 7.25.69 7.278.65 7.277-.104 7.213-.855 7.283.21 7.21-.682 7.21 1.71.037.01 7.297-.44 7.213-.83 7.267 1.078 7.255-1.938 7.216.812 7.244.34 7.268.474 7.217.002 7.31.923 7.218-.777 5.74.878-5.73.757-7.3-.14-7.21 1.325-7.255-1.01-7.24 1.686-7.202.006-7.268-2.815-14.505 2.417-7.278-2.41-7.28 3.19-7.21-.355-7.204.093-7.286-1.254-7.23.77-7.237-.864-7.25-1.27-.046-.007-7.248 1.386-7.238-1.405-7.28-.385-7.25.462L0 31.09v.696l6.745 1.695.032.01 7.264-.114 7.288.41 7.203-1.69 7.267 3.285 7.314-2.7 7.204-.52 7.214-.164 7.217 1.956.035.01 7.325-.18 7.226-1.304 7.205-.516 7.246 1.957 7.284.69 7.23-.332 7.256.323 7.265.037 14.49-.922 7.307-.123 7.19-1.767 7.25 1.804 6.935-1.584.275.125.596-.06 6.64 1.63.052.013 7.236-1.254 7.27 2.686 7.282-2.265 7.207.97 7.29.712 7.292-.355 7.207-1.477 7.244 1.35 7.25-1.128 7.27 1.653 7.274-2.16 7.226.335 14.46.04 7.26 1.597.04.01 6.898-.713v-.502l-6.87.71-7.272-1.595-14.504-.044-7.297-.34-7.23 2.147-7.236-1.646-7.26 1.13-7.208-1.342-.05-.01-7.265 1.492-7.22.353-7.243-.71-7.252-.975-.056-.008-7.226 2.247-7.237-2.674-7.266 1.26-5.23-1.283 5.3-.54 7.192-2.39 7.21 1.19 7.287.654 7.248-.28 7.228-.175 7.24.617 7.327 1.062 7.243-3.24 7.177 1.406.043.01 7.27-1.14 7.197-.312 7.26 3.038 7.28-.555 7.293.565 7.266-1.628 6.86.283v-.5l-6.873-.284h-.03l-7.26 1.625-7.255-.56-7.197.544-6.97-2.916 6.963-1.895 7.237-.105 7.235-.388 7.258.204 6.894.235v-.5l-6.877-.236-7.28-.202zM72.054 33.284l-7.214.174-7.217-1.956-.035-.01-7.298.168-7.25.52-7.223 2.658-7.157-3.235-.078-.035-7.298 1.713-7.232-.406-7.216.112-6.248-1.57 6.268-2.143 7.187-.46 7.216.38 7.25 1.412.046.01 7.252-1.39 7.22 1.264 7.306.856 7.215-.76 7.262 1.247 7.235-.09 6.688.332-6.68 1.21zm87-.17l-7.192-1.79-.062-.014-7.253 1.79-7.264.115-14.483.922-7.24-.037-7.27-.323-7.215.333-7.207-.684-7.287-1.97-6.86.49 6.85-3 7.213 2.388 14.493-2.414 7.183 2.783.042.017 7.352-.01 7.206-1.673 7.203 1.003.04.005 7.242-1.335 7.287.143 7.182-.945 6.215 2.798-6.175 1.41zm65.24-1.528l-7.198-1.045-7.28-.62-7.26.175-7.22.28-7.234-.65-7.315-1.208-7.257 2.417-6.64.672-.585-.144-.27.06-6.417-2.89 6.716-2.546 7.188.816 7.29.98 7.288-.14 7.194-1.147 7.263 2.342 7.297-1.726 7.207-.956 7.204.396 6.856 1.882-6.827 3.054zm21.754-2.947l-7.21 1.128-6.127-1.2 6.147-.44 7.223-.73 6.254.97-6.286.27z"/><path d="M275.136 34.865l-7.313-.777-7.287.935-7.205 1.838-7.245-1.19-7.23 1.43-7.27-2.625-7.252 2.468-7.266-2.56-6.672 2.874-.584-.103-1.19.303-6.042-.345-7.207-.25-7.253-1.637-.046-.01-7.28 1.132-7.266.55-6.63.894-.59.035h-.188l-7.06-1.575-6.964 1.314-.29-.01-1.78-.01-5.484-.225-7.21.43-7.225-.782-7.31-1.5-7.274 1.97-7.182.028-7.248-.947-7.3-1.04-7.19.47-7.282-1.216-7.307.914-7.205 1.45-7.207-1.164-.032-.005-7.232.704-7.25-.738-.04-.004-7.224 1.533-7.187-2.3-.045-.014-7.312.485-7.212.894-7.3-.225L0 37.428v.507l6.798-1.173 7.288.225 7.236-.894 7.203-.477 7.268 2.324 7.278-1.544 7.262.735 7.218-.698 7.265 1.173 7.276-1.465 7.217-.9 7.268 1.207 7.194-.47 7.25 1.038 7.284.95 7.247-.026 7.256-1.958 7.217 1.48 7.29.786 6.22-.37-6.266 2.365-7.18.892-7.282-3.284-7.272 2.805-7.228-1.81-7.255 1.633-7.085.03-.18-.07-.068.037-7.136-1.998-7.258.63-7.22-1.272-.035-.006-7.252.77-7.265-1.167-7.283 1.585-7.206 1.162-7.214-1.473-7.307-1.23-7.24.454-7.285.146L6.79 39.21 0 39.56v.5l6.844-.352 7.216-1.135 7.26-.143 7.194-.457 7.242 1.226 7.25 1.478.045.01 7.31-1.18 7.204-1.567L64.77 39.1l.033.005 7.248-.77 7.22 1.27.03.006 7.235-.63 6.558 1.837-6.6 3.64-3.758.01-3.32-1.52-3.798-.058-3.523-1.495-7.29.973-7.292.167-7.202 1.336-7.27-.087-7.233.495-1.613-.01-5.632-1.368-1.852.35-5.385-2.77-7.27 2.416L6.832 40.4 0 41.177v.503l6.778-.768 7.276 2.515 7.23-2.404 4.628 2.382-4.683.885-7.17 2.308-7.264-2.554L0 47.03v.547l6.816-2.997 7.236 2.544 7.3-2.353 5.283-.995 1.807.93 5.668.058 1.606.39 7.344 2.833 7.262-3.022 7.166 2.052.038.01 7.292-.27 7.295-3.416 3.374.042 3.773 1.6 3.365-.01 3.153 1.443-6.505 3.698-7.224-1.725-7.28 2.302-4.488-.017-2.718-1.95-1.75 1.13-5.507-2.482L43 50.64l-4.81.103-2.377-.983-1.264.43-5.98-2.75-7.298 2.395-7.18-.416-7.25-1.08-.033-.005L0 49.07v.503l6.8-.735 7.24 1.076 5.626.327-5.66.27-7.188 1.455L0 49.942v.522l6.794 2.015 7.272-1.477 7.21-.34 7.285 2.1 5.962-2.034 1.23.565 2.343-.05 4.865 2.012 4.78.454-4.715 2.272-7.215-1.552-7.25 1.28-7.21-.13-7.265-2.457-7.33.67L0 55.19v.51l6.828-1.414 7.197-.655 7.2 2.436 7.374.142 7.2-1.27 7.288 1.57 5.614-2.707 1.668.16.82-.53 6.317 2.896 7.312-.282 7.23-3.386 7.23 4.053 7.327-2.13 7.192-1.446 7.24.12 7.01.362.235.148.16-.075 7.1 2.38 7.242-2.086 5.19 2.045-4.628 1.95-.515-.39-1.324.557-5.89-.39-7.295-2.172-7.3-.658-7.297 2.24-7.17 2.266-7.25-2.264-5.705 1.89-1.542-.986-1.532.938-5.678-2.067-7.342.09-13.506 2.615-.83-.428-.06-.03-7.33.388-1.186.12-5.958-2.063-7.29-.13-7.27-2.402-7.314 1.117L0 57.368v.507l6.843-1.16 7.19-1.1 7.193 2.377 7.285.13 4.9 1.693-4.843.485-7.227-1.45-7.344-1.09-7.224 4.682L0 59.927v.533l6.836 2.537 7.275-4.714 7.146 1.06 7.288 1.463 5.992-.6 1.19.41.043.016 7.335-.302.82-.16 6.268 3.228 7.335.88.036.006 7.287-1.23 5.73-3.49 1.475.536 1.48-.49 4.992 3.193-6.49 4.175-7.195-3.218-7.316 1.203-7.178.896-7.293-3.447-4.967 2.408-2.26-1.093-3.817 1.13-3.414-.98-7.213-1.2-7.34-2.437-7.273 3.18L0 62.477v.505l6.84.953 7.227-3.16 7.197 2.39 7.223 1.2 2.635.758-2.598.77-7.283-.3-7.203 4.27-7.116-3.092L0 63.128v.564l6.706 3.53 7.367 3.202 6.94-4.115-5.71 5.697-1.253-.733-2.608 1.67-4.557-.708L0 69.945v.527l6.767 2.245 4.04.63-2.093 1.343-1.936.055L0 75.488v.504l6.812-.75 1.086-.03-1.17.75L0 76.145v.5l6.882-.188 1.985-1.27 5.018-.14-7.15 4.057L0 79.287v.5l6.812-.187 7.196-4.05 7.243 7.664 7.38-3.653 7.142-.872 7.23 2.962 1.314.302-1.39 1.113-6.664 2.853-.352-.09-7.362-3.41-5.858 3.075-1.344.33-7.26-4.394-7.292 2.295-4.72-1.074L0 80.618v.7l1.145 1.125L0 82.182v.513l1.825.416 4.95 4.86 7.298-4.74 7.237 3.556 1.56-.818 5.682-1.396 7.27 2.08.486-.208 3.55.918-2.268 2.98-.53.264-1.307-.062-1.125.543-.583-.082-5.314-5.27-.092-.093-7.303 1.347-7.33-3.273-7.228 6.72L0 85.957v.6l6.832 4.512 7.272-6.764 7.1 3.17.07.03 7.2-1.326 4.744 4.705-4.597-.65-7.246-1.972-7.404-2.135-6.328 7.258-.784-.82-2.863 1.412L0 93.272v.507l3.24.57L0 95.95v.558l4.073-2.01 2.83.5.758-.87 2.92 3.052-3.776.783L0 96.67v.51l6.76 1.284.047.01 4.18-.867 1.53 1.603-4.596 5.135-1.186-.745-1.07 1.578-4.26-1.914L0 101.41v.827l.453.6L0 102.63v.55l1.083.486 1.644 2.17-2.727.456v.507l3.07-.51.972 1.283-1.22 1.8L0 107.218v.63l2.54 1.94-1.607 2.372L0 110.83v.87l.632.902-.632.934v.893l.94-1.388 5.88 8.394 6.767-11.06.5-.194.513-.07 5.75 6.39-3.347 4.218-2.94-1.937-5.558 3.24-1.792-.495-1.034 1.297L0 121.378v.516l2.388.607L0 122.205v.504l5.25.653L0 129.947v1.385l.635.584-.635.598v1.104l3.99 1.38.58.532-3.864 2.18-.706.034v.938l.848-.48 5.923-.292 7.154 2.405.14.13 4.784 4.483-.705.987-4.08-5.472-4.774 5.94-2.412-2.688-4.75 1.8L0 143.798v.64l1.586 1.266-1.586.6v.534l2.04-.773 2.657 2.118-.52 1.097L0 148.733V149.704l2.867 2.343L0 158.1v1.17l3.266-6.895 3.56 2.91 3.472-3.596 2.575 1.367 1.095 1.502 7.395-2.942 7.217-.528 2.062-.192 5.163 5.386 1.724-1.756 5.503.566.11.01 2.565-2.288 4.46 6.237 7.52 1.07 4.458-7.414 2.644 2.995 3.085-2.785 4.2 6.397 2.793-4.932 4.315 7.79 7.427-1.55.073-.018 5.39-5.404 1.75.97 2.51-1.872 4.768 1.738 7.255-5.987 7.036 2.387 7.202 10.622.064.093 7.482.923 5.817-5.587 1.254 1.398 4.062-.842 3.375 1.63 1.892-3.13 5.25-2.222 4.653 2.36 2.584 4.895 7.404-11.064 3.16.15 2.942 1.974 1.064 1.01.99-1.48.443-.533 5.715 2.906 5.813-.116 1.285 2.078.13.207 2.77-1.623 4.624 1.176 2.875-2.256 4.414 2.408 4.096-7.032 3.06 6.442 2.06-4.148 5.14 10.56 7.5-8.56 3.244-3.51.026-.02 3.828 2.61 1.02-1.07 6.27 6.088 3.8-7.453 3.197 3.612.096.105 5.242-.98 2.107 3.688 1.215-2.22.225-.048 5.69 6.653 7.456.594 7.305-5.63 7.06-2.905 6.96 8.643v-.797l-6.807-8.45-7.434 3.06-7.236 5.567-7.06-.562-5.376-6.285 5.19-1.062 7.34 5.688 7.41-7.243 2.52-2.442 4.604.575 3.53-1.553 3.315 3.206v-.695l-2.82-2.728.4-.178 2.42.64v-.52l-1.683-.442 1.682-.74v-.545l-2.46 1.08-1.5-.396-2.925-2.828-2.414 2.34-4.75.548-2.787-2.897 2.703.24 7.26-.347 1.964-.887 4.91-.046v-.5l-3.78.035 3.78-1.708v-.548l-4.99 2.268-1.756.018-5.37-8.73 5.188 5.35 6.927-4.05v-.578l-6.842 3.998-6.485-6.687-.59-.96 7.053.843 6.863-1.975v-.87l-6.82.89-3.294-2.302 3.225-.568 6.89.164v-.5l-6.926-.16-3 .528 3.146-2.162 6.78-1.615v-.514l-6.942 1.653-3.898 2.668-3.16-2.207-7.34-1.817-.05-.012-5.574.874-1.722-1.63-1.813 2.337-4.674 1.133 4.477-7.312 2.014-.353 7.19 2.88.052.022 5.815-.265 1.34.93.084.06 7.362-1.336 3.42-1.618 3.42 1.822v-.566l-2.855-1.52 2.854-1.352v-.554l-.143.068-3.836 1.235-2.456-1.31 5.295-8.094 1.14.798v-.61l-.865-.604.866-1.324v-1.312l-.978-.323.98-.795v-.645l-1.543 1.252-5.358-1.772-3.697 1.716-3.602.924-.385.087-6.724-2.423-7.34-2.954-7.026 2.03-.173-.247-.812.514-.9.235-4.648-4.426 6.174 3.32.117.064 10.912-5.854 3.626-.365.073-.01 1.045-.832 6.122 5.168 5.56-5.36.575-.227 1.178.736.66-.885 6.16 2.476v-.538l-5.853-2.35.445-.6 5.408 1.243v-.595l-5.003-1.187 5.003-6.713v-.836l-5.53 7.422-1.262-.3-7.396-2.928-.592.47-6.27-1.922 2.97-2.114 3.79 2.635.09.062 7.41-1.598 6.788-2.81v-.542l-6.937 2.875-7.153 1.537-3.555-2.47 2.44-1.737 1.06 1.137 2.087-2.27 5.165-.802 6.89.17v-.5l-6.92-.166-4.595.71 4.688-5.1 6.827 3.437v-.558l-6.94-3.494-5.367 5.837-1.875.29-.94.665-4.43-4.74 5.446 3.958 5.628-6.426 8.48 1.855v-.512l-8.105-1.773 1.293-1.477 6.81 2.615v-.536l-6.956-2.67-1.704 1.944-5.498-1.204-7.093 2.374.005.004-7.47-1.542-.368.3-6.69-4.213-1.66-.124 1.493-.45 7.227 4.406 7.334-.313 7.275-3.935 7.165 1.965.034.01 6.914-.13v-.5l-6.854.128-7.322-2.01-7.293 3.974-7.124.302-7.285-4.443-2.957.888-4.384-.326-2.146 1.114-5.072-1.194-7.303 2.724-6.342 1.708-.743-.22-1.187-.516-6.146-5.065-3.92 2.342-3.354-.077h-.037l-3.575 1.02-2.353-.713 6.06-5.23 7.13-.444 1.27.342 5.98 3.32 1.898-.593 5.403 3.134 7.178-5.81.087-.013.148-.063 7.075 1.256 7.253-.1 4.535-1.297 2.68 2.13 2.354-.986 4.936 3.96 6.532-4.835.763.142 1.065-.49 6.172 1.377 5.778-1.747 1.096.468v-.544l-.346-.15.35-.104v-.522l-1.064.322-5.822-2.487-6.215 2.862-1.1-.246-.797.59-6.43-1.194-4.834 2.024-2.202-1.767 7.125-3.43 5.358-1.403 1.79.655 7.308 1.287 2.713-.017 4.17 2.277v-.57l-3.137-1.714 3.137-.02v-.5l-4.038.026-2.726-1.49-7.397-.93-1.795.47-5.472-2.01-7.303 4.388-6.896.155-.21-.168-.33.03-6.896-3.234-.08-.037-7.3 1.758-7.17-.656-7.31-1.937-7.263-.092-.803.012.82-.11 7.206-.458 7.31 2.555 7.317-4.117 7.138-1.51 7.326 2.258 1.798-1.317 5.36 3.632 7.31-1.597 7.222-.015 7.325 2.044 6.854-3.8v-.574l-6.916 3.835-7.194-2.007-7.344.02-7.152 1.56-5.034-3.412 3.727-2.73 1.247.35 1.655-.343 5.613 3.234 6.254-3.752.938.097 1.812.452 5.462 3.552 6.93-1.564V54.7l-6.835 1.542-4.07-2.648 3.962.986.043.01 6.9-.665v-.502l-6.863.662-5.318-1.322-1.956-1.27-1.12.67-6.153-.64-5.515 1.143-1.747-1.006-1.338.98-5.83-1.633-6.922-2.1 6.884.272 7.25-.97 6.027-.637 1.165.173.086.013.66-.38 6.493-.6 7.193 3.968 7.005.182v-.5l-6.814-.15-7.274-4.01-5.558.512 5.51-3.158 7.21 3.72 6.93-.953v-.503l-6.84.94-7.312-3.77-6.695 3.837-.58.055-1.166.12-6.044-.895-7.256-.623-.032-.003-7.198 1.257-5.03-2.783 4.99.02 7.253-.082 7.262-2.562 7.23 2 7.328-.78 7.194-1.558 6.896 2.275v-.527l-6.87-2.266-7.3 1.58-7.21.77-7.287-2.018-7.292 2.584-7.207.083-5.898-.025-1.33-.734-2.34.73-4.923.004-7.21-.528-7.31-3.03-7.312 2.9-7.15.324-7.26-3.322-7.322.77-6.145 3.193-1.106-.226-.74.294-6.455-4.054-7.323 2.503-7.172-.158-7.27-2.153-7.292.856-7.26.58-7.253.778-7.235.938-7.2.463-7.274-2.353-7.243 1.996-5.843-2.295 5.884-.03 7.193-1.613 7.266 1.82 7.225-2.785 7.222 3.256 7.375-.923 7.21-2.714 5.555.03 1.693.068.256-.048 6.95.238 7.004.02.236.054.66-.09 6.576-.38 7.254 2.027 7.324-.61 7.205-1.38 7.26 1.562 6.096-1.547 1.197.067.59-.254 6.558 1.15 7.255 1.89.06.017 7.252-1.625 7.248.094 7.267.246 7.23-.082 7.255.568.047.005 7.222-2.198 7.256 2.816 7.287-2.23 6.865-.478v-.498l-6.957.49-7.178 2.19-7.256-2.817-7.296 2.22-7.23-.565-7.24.08-7.26-.246-7.313-.088-7.19 1.604-7.217-1.88-5.826-1.02 5.792-2.495 7.245 2.552 7.247-2.467 7.237 2.61 7.276-1.438 7.208 1.187.053.01 7.277-1.858 7.2-.93 7.293.777 7.208-.332 6.925 1.15v-.507l-6.896-1.14-7.22.337zm-246.518 9.37l-1.183-.608 1.115-.21 3.47.84-3.402-.022zm43.387-1.397l-7.256 3.418-7.162.267-7.296-2.09-7.24 3.015-6.964-2.685 6.965-.478 7.3.084 7.21-1.337 7.28-.164 7.18-.957 2.266.96-2.285-.035zm7.357 1.642l-2.555-1.083 2.448.03 2.286 1.046-2.178.007zM28.55 52.24l-6.926-1.995 6.917-2.27 5.325 2.45-5.315 1.815zm7.308-1.448l-.648-.298.588-.2 1.15.475-1.09.022zm7.19 9.043l-7.205.294-.123-.043.1-.01 7.183-.38.206.106-.163.032zM64.72 62.57l-7.17 1.21-7.168-.847-5.664-2.915 12.842-2.486 7.207-.084 5.218 1.9-5.265 3.223zm7.343-2.997l-.936-.342.93-.564.936.6-.93.307zm-58.025 23.08l-7.2 4.68-4.084-4.012 3.996.91.066.016 7.206-2.27 5.89 3.563-5.874-2.886zm268.337-18.296l5.068 2.166-5.082 1.536-5.402-1.207 5.417-2.496zm-7.208 2.608l.237.053-.326.15-.148-.027.237-.175zm-7.286-.624l5.828 1.083-5.85 4.33-4.423-3.55 4.446-1.862zm7.224-14.257l.48.312-.45-.11-.31-.034.28-.167zm-7.237-.05l5.416.56-5.432 3.258-4.872-2.805 4.89-1.013zm-7.254.225l.978.562-.984.204-.752-.21.76-.556zM64.81 51.19l7.26-2.284 7.28 1.737 6.99-3.974.175.08.556-.056 6.693 2.27 3.28.54-3.27.722-7.243.894-7.222.8-7.252.09-7.198 1.946-3.89-2.792 3.84.026zm137.788-3.226l2.133-.78 5.083.23 7.236.232 7.22.738 7.334 1.846 7.252-3.302 7.076 1.926-5.852 4.07-1.256-.384-2.475.942-4.694-.685-7.307-2.357-7.282 1.117-7.254.133-7.265 2.418-7.213-1.476-7.22-.74-7.312-1.747-7.2-.085-7.362-1.6-7.215 5.29-5.113-2.767 5.19.193 7.253-3.68 7.214.08 7.194-.578 7.2 2.81.048.02 7.307-.275 5.348-1.813 1.93.224zm-.82-.598l.825-.28.834.038-.9.33-.76-.088zm37.78 5.925l-.786.548-1.405-.205 1.477-.562.715.22zm-58.72 5.63l1.225-.564 5.908 1.685 7.242 2.795-7.16 1.896-7.147-1.492-5.67-2.445 4.264-2.123 1.338.25zm-.598-.62l.59-.294.494.14-.55.254-.534-.1zm15.048 4.027l-7.16-2.762-5.368-1.53 5.307-2.444 7.203 2.983 6.356-.205-6.338 3.96zm-20.656-1.794l-1.07-.463-1.056.41-6.083-3.37-.062-.032-7.31.24-7.3.048-3.553.707 3.51-2.812 7.315.702 7.313.813 1.065-.45 6.104 1.226 5.173.968-4.045 2.015zm-.585.292l-.486.24-.485-.27.477-.186.495.215zm-29.56-2.013l-2.48.652-4.625-1.72-5.5-1.937 5.494-3.174 4.362-.392 2.84.2.564-.16 6.053 2.75-4.06 3.253-2.648.53zm1.805.15l-1.787 1.43-1.683-.625 1.778-.468 1.692-.34zm-4.564-7.22l-4.443-.312-7.275.41-7.178 1.185-6.8-3 6.753-.612 7.25 1.464 7.29.432 7.232-2.083 5.227 1.217-4.603 1.31-.588-.267-2.864.255zm12.856 3.3l4.428-.12 7.24 1.17.283.058-.27.114-7.19-.8-4.49-.422zm11.758.56l-7.297-1.178-7.336.196-.077.06-5.748-2.61 4.903-1.395 1.002.233 1 .036 6.282 3.396L166.36 49l7.19 1.558 7.196.084 7.287 1.747 7.23.74 7.316 1.5 7.28-2.438 7.25-.135 7.194-1.102 7.234 2.33 3.852.563-3.828 1.458-7.262-1.928-7.222 3.457-7.27-4.025-7.286 4.425-7.123-1.91-7.33-2.908-7.282 1.91-7.27-1.134-6.17 2.61-1.006-.202zm28.926-6.544l-7.164.27-7.26-2.833-7.285.586-7.316-.08-7.247 3.676-6.065-.222-1.102-.596-1.06.303-6.227-1.453-7.273 2.094-7.17-.42-7.29-1.475-7.27.66-7.234.24-5.49-.106-1.72-1.094-2.748.608-4.466-.733-5.603-1.9 5.502-.535 7.31 1.848 7.218-4.463 7.12 3.75 7.366.196 7.227-.002 7.335.732 7.222-4.616 7.135 2.518 7.37.054 7.2-1.042 7.282 2.006 6.423-2.564.802.503 1.165-.608 6.05 1.23 7.276 1.54 4.23.485-4.245 1.446zm-80.31 1.027l-6.544 3.066-.03-.01-.16-.007-4.597-2.92 4.685.092 6.647-.22zm-13.103-.405l-.762-.015-1.413-.232 1.326-.293.85.54zm-44.305-.352l1.87 1.343-1.81-.006-1.254-.566 1.194-.77zm-8.945 3.966l-5.488-.514-3.777-1.562 3.722-.08 7.245-3.22 5.006 2.26-4.163 2.687-.74-.34-.105-.05-1.7.82zm1.64.154l-.675-.063.74-.357.342.157-.407.263zm14.504 2.1l-7.143.275-5.918-2.714 4.166-2.69 1.598.722 2.648.02 4.658 3.34 5.207-1.413-5.218 2.457zm36.307-2.792l-7.302-.116-7.266 1.457-7.147 2.076L72.79 52.5l6.55-.082 7.25-.8 7.27-.898 4.512-.997 2.676.44 1.616.03 4.543 2.888-6.15-.324zm14.5 2.792l-6.457-2.165 6.453-3.025 7.116 3.14-7.114 2.05zm7.39-2.037l7.117-1.176 7.217-.406 1.33.094-1.334.12-6.01 3.45-1.224-.43-1.406.592-5.688-2.243zm7.747 2.41l-.665.382-.73-.287.757-.32.637.225zm-2.05.373l1.427.562 1.243-.718 5.9 2.077 3.956 1.47-3.95 1.04-7.123 2.364-6.287-4.758 4.833-2.037zm-5.88 1.872l.053.04-.06.025-.132-.01.138-.055zm-1.166.49l1.244.083.436-.184 6.727 5.09 7.358-2.44 4.62-1.217 2.615.973 2.76-2.21 4.443-.89 7.26-.04 7.183-.237 5.66 3.136-5.6 2.183-7.203-2.893-7.302.072-7.27 3.106-7.243-1.72-7.25 2.555-7.173-1.645-6.215-1.646 4.95-2.076zm-47.45.753l5.166-1.71 7.245 2.262 7.317-2.314 7.2-2.21 7.154.642 7.303 2.172 4.95.333-4.63 1.944-.324-.086-.28.124-6.963-2.314-7.238 3.41-7.276-3.246-7.282 5.3-6.082-.81-1.11-.596-.31.2-4.843-3.1zm84.825 10.4l4.207.15 1.744 1.39-2.814 1.713-3.13-.442-1.796 1.473-5.28-2.403-7.312-1.18-.082-.012-7.28 3.804-4.374.31-1.99-1.6 6.483-3.754 7.2 1.187 7.284-.927 2.868-1.15 4.27 1.443zm-3.56-1.73l3.6-1.443 3.52 2.805-3.435-.115-3.684-1.248zm18.205 2.112l2.103-1.153 5.056 1.395 7.29.92 7.208-.168 4.377 1.587-1.57.203-2.83-.98-1.22 1.23-5.996-.466-7.243 2.215-4.978-.81-2.078-2.045-.1-.096-2.67.595-2.762-1.238 2.28-1.24 3.136.053zm-2.246-.538l2.215-1.204 1.442.397-1.537.843-2.12-.036zm25.59 3.464l-1.63.21-.652-.053.7-.706 1.582.55zm41.876 6.37l6.48 5.252-1.67 1.396-4.727-.152-5.515-4.295 5.312-2.21.12.01zm14.418 12.612l7.39-1.438.06-.013 4.57-3.832 2.32 2.285-6.708 5.816-.29.02-.972-.01-6.205-2.007-7.334-2.594-5.853 2.01-1.46-.334-1.692 1.25-2.59.633-1.595-1.052 6.02-2.11 4.904-4.088 2.2.07 2.63.692 4.606 4.7zm-3.658-4.45l3.81 1.008 7.182-6.464 4.333 4.27-4.438 3.72-7.06 1.373-3.827-3.906zm-47.125 6.896l-2.408 2.52-1.756.326-3.07-1.373-1.4 1.76-4.397-.512-1.297-1.062-7.396.34-7.137 1.757-1.018-.753-3.47-4.38 3.312-.822 1.137.723 1.936-1.535 5.28-1.453 7.233 3.188 7.32-.808 5.204-2.112 1.947.605.063.02 1.44-.333 5.27 3.938-1.864.562-4.93-.596zm3.75.95l-3.7 1.116-1.618.3 1.758-1.842 3.56.427zm54.316 10.543l-2.55 3.878-2.672-3.836 5.268-.444 7.23 1.258 4.062.67-4.078.922-2.217 1.632-5.044-4.08zm4.626 4.386l-4.512 3.317-2.354-3.383 2.354-3.585 4.512 3.65zm-7.47-.058l-4.485 6.827-6.99-.406-4.944-6.76 2.68-2.17 2.17.685 5.723-3.623 1.32 1.258.082.078 1.494-.126 2.95 4.238zm-16.714-.738l-1.328-1.817.812-1.05 2.933.924-2.418 1.943zm4.976 13.78l.166.1 3.044 4.207-3.018.525-4.367-3.28 4.115-1.592.06.038zm7.375 10.066l.96-1.236 3.413 1.623-2.36 2.532-.08.02-1.938-1.01-2.347 1.527-4.747-3.37-.07-.05-7.255.393-3.343-2.37 3.37-5.145 7.06 2.536 5.627 2.184 1.71 2.365zm-.853-2.033l.752.292.6.284-.484.622-.868-1.198zm15.396 12.83l-.07-.005-.29.146-4.006-3.043 1.89-.143 2.49 2.787 1.077-1.702.096.1-1.09 1.87-.097-.007zm-7.334-.73l-3.396 6.214-3.727 2.003-7.26-10.643-7.457 4.498-.695.73-6.54.078-2.878 3.11-4.147-2.108-3.62-.224-2.492-4.018.338-.396 5.69.15 7.245-1.916 7.213.47.1.008 1.75-1.413 5.484.584 1.94-1.263 5.188 9.095 7.423-6.924 2.06-.154 4.26 3.237-3.67 1.852-2.808-2.97zm2.342 3.21l-2.405 1.213-2.525 1.355 2.696-4.935 2.234 2.366zm-8.654 8.34l-.77.157-.91-1.43.695-.13 1.07 1.25-.085.152zm-.794-1.947l-1.177.222-6.197-9.74-.47.926-5.35 3.247-1.224-1.38-.077-.085-.248.003.296-.31 7.023-4.237 7.12 10.438.125.188 3.447-1.854-2.138 3.91-1.13-1.327zm-1.706.32l-.234.043-2.305-4.033 2.54 3.99zm-6.57-8.068l-2.57 5.05-2.01-2.27 4.58-2.78zm-13.553 2.472l-.096-.013-2.053 1.478 2.23-2.413 5.837-.073-1.46 1.528-4.457-.508zm4.027.962l-3.013 3.153-.867-.844-2.315-1.18 2.21-1.587 3.986.456zm2.58-1.992l.51-.006 1.085 1.227-1.032.624-2.094-.238 1.53-1.608zm-27.912 1.474l-.364-.75-.328.155-.834-.796 1.156-1.982 3.37 1.2-2.44 2.59-.56-.416zm-3.607.78l-2.36-4.975.297-.463 1.65 1.574 1.53 2.352-.79 1.355-.327.157zm-62.19-6.098l-.77.94-1.226-2.007.216-.32 1.797 1.093 6.84-2.5.443.095.584-.158 5.586 1.03-6.254 5.71-2.45-.47-4.766-3.413zm3.593 3.187l-3.392-.648-.697-1.144.585-.714 3.503 2.507zm-32.62.292l-.913.274-2.16-3.625 1.377-.613 1.64.46 2.164 2.114-.738 1.208-1.37.184zm1.035.362l-.96 1.57-.726-1.22.756-.227.93-.123zm-44.183 1.94l-.114-.204.18.08-.066.125zm-29.324-.534l-.24.243-6.982 1.434-3.836.356-2.044-1.848 4.022-3.57 1.85 2.494 6.717-6.486.44.02 6.316 8.103-1.695 1.513-4.55-2.26zm4.146 2.616l-1.362 1.215-2.096-2.93 3.458 1.716zm-5.014-1.734l-4.8 4.883-1.425-.146-3.463-3.132 3.407-.316 6.28-1.29zm-20.83.718l-.33-.12-2.385-3.198.715-1.16 2.03 1.902 2.184-2.92.554.584-2.63 4.862-.14.05zm.04-7.554l1.42 1.262.405.428-1.9 2.542-1.697-1.59.715-1.16 1.058-1.482zm-10.464-36.09l-1.627-1.018 3.22-.64-1.593 1.658zm2.45-1.83l.71-.142.756.036 5.13 4.622-3.408.467-2.334-1.088-2.87-1.796 2.015-2.1zm.596-.62l.138-.146.155.14-.216-.01-.077.016zm7.38 4.95l-.73.1-4.99-4.496 5.656.27 2.977 1.382-2.4 2.838-.512-.095zm.14.532l-.168.2-.215-.194.234-.03.15.024zm-1.033.093l.913.823.69-.815 4.118.722-4.815 1.536-3.968-1.85 3.062-.415zm1.974-.43l2.302-2.723 3.76 1.743.072.033 2.51-.48-2.59 1.85-1.32.422-4.733-.846zm13.346-8.782l.12.034 2.197-1.634 5 5.567 5.423-5.808 1.696 1.093.1.064 6.735-2.16.57.093 4.51-.377 2.65-.057.22.144 4.13 4.917-.003.003-4.32 2.022-2.208-.194-4.94-5.218-7.44 3.396-6.485 4.054-.684-.063-.855.448-4.906-.302-1.37-2.125-2.963 2.115-2.382-2.903 2.807-3.81 2.4.7zm-2.085-1.13l2.175-2.95 1.893 2.107-1.96 1.458-2.107-.614zm4.807-.77l4.61-3.426 4.983 3.212-4.99 5.342-4.603-5.127zm4.735-10.507l-.112-.08-.075.038-2.295-.593 2.463-3.237 7.028.562 2.19 2.023-2.18 2.58L43.19 87.7zm7.213 1.838l2.353-2.784 3.63 3.355-2.14 2.823-3.857-.125-6.23-4.422 6.245 1.152zm21.658-18.762l7.322-2.864 3.01-.93 4.052.71 4.536 3.898-4.368-.754-7.337-1.723-7.233 3.787-4.284-1.702 1.89-1.28 2.413.858zm-1.897-1.206l1.998-1.353 7.158-1.775 1.995.35-2.095.647-7.165 2.804-1.89-.674zm16.387-2.8l1.708-.827 5.504.83 6.75 1.114-4.718 3.85-1.992.343-1.86-.32-5.275-4.533-3.228-.565 1.842-.57 1.27.678zm-.597-.89l.622-.19.808.12-.82.398-.61-.327zM115.5 73.8l.993-.38 6.266 3.855 2.108-.568-2.114 1.776-7.16-3.055-7.306.407-.45.208-6.887 2.46-.384.167-5.86-5.4 1.304-1.063 5.054-.868 7.213-.38 5.525 1.4 1.7 1.44zm-.593-1.16l.545.138.505.312-.358.137-.693-.587zm15.17.824l.322-.187 1.72 1.383-2.135.15-3.07.828 2.752-2.313.41.14zm28.99 2.032l3.148-1.916 4.097.58 4.598-1.02 2.543 1.14 2.11.346 3.6 3.542-4.167 3.067-1.44-.242-1.395.23-5.838-4.468-7.178 4.137-.02-.01-.39-.014-6.462-2.104 4.985-4.09 1.81.822zm-1.376-1.177l1.436-1.178 2.312.328-2.4 1.462-1.347-.613zm8.585-1.895l1.373-.747 2.498 1.12-3.854.855-3.403-.48 2.45-1.493.935.745zm-.48-1.023l.523-.318.756.338-.746.406-.533-.426zm5.932 1.556l1.75-.39 1.48 1.456-1.33-.216-1.9-.85zm16.334 13.89l5.687-3.23 1.596-.186 1.75-.19 5.436 1.647 7.265 1.19 7.255.813.074.01 5.622-2.81 1.615.414 3.174-1.604 4.077-.472 1.272-.526 5.802 4.52.063.05 4.334.136-4.37 3.654-6.332 2.223-.827-.547-.722.72-6.422-1.02-7.28-3.435-7.358.584-5.65 1.307-1.51-1.13-2.078.848-5.137-1.596-.097-.03-7.21 3.6-7.133-4.99-.153-.106-5.52 4.383-1.782.49-.973.24-6.086-3.867-.105-.065-7.228 2.636-4.46-3.916 4.413-.113 4.47-2.31 2.68 1.643 7.392 3.01 7.274-5.897.38.072 6.805 3.85zm-5.28-3.565l5.233.99.037.007 4.422-.515-4.412 2.506-5.28-2.987zm12.08-.298l.483-.273.53.16-.59.064-.422.05zm3.495.12l4.18-.458 7.252.958.033.004 7.24-.965 4.957 1.27-4.988 2.478-7.17-.806-7.222-1.183-4.283-1.3zm25.07.65l.978-.486 1.69-.195-1.793.905-.874-.224zm5.397-1.5l2.73-1.38.88.687-.916.382-2.694.31zm2.782 11.035l.703-.247 1.523 1.006-2.253.55-2.015.02 1.436-1.426.606.096zm-.166-.532l.174-.174.172.113-.227.078-.12-.017zm-21.594 1.626l-5.208-3.893 5.203-1.205 7.187-.566 7.065 3.332-1.67 1.53-5.346-2.946-7.232 3.748zm14.502-1.886l2.85 2.143-2.803.027-1.506-.83 1.46-1.34zm-20.87-2.25l-.898.208-1.302-.404 1.256-.51.943.706zm-3.68-.133l-4.545 1.852-7.15.79-7.192-3.17-.08-.037-4.32 1.188 4.31-3.42 7.224 5.055 7.297-3.644 4.456 1.385zm-25.52 1.756l-.736.585-.435-.276.517-.13.653-.18zm-.822 7.57l7.366-1.42 7.21-.418 1.204.142 1.12.92-2.31.137-7.305 3.455-2.306.172-4.752-2.86-6.275-1.04-1.153-.79-1.09 1.31-6.075 4.015-5.293-5.654 2.554-2.04 2.7 3.013 4.542-5.01 2.718.5.354-.088 5.576 4.13 1.214 1.527zm.146-.623l7.22-1.778 7.157-.327.547.448-.48-.056-7.285.42-7.104 1.366-.056-.073zm28.816 5.523l.15.114.156-.117 5.838 5.53-2.224 1.257-3.676-.397-5.538-4.114 5.168-2.365.126.092zm16.584-.59l5.25-2.293 7.176 5.624 3.723.82-3.58 2.147-7.138-3.424-4.675-2.048-.757-.826zm19.883 3.007l-1.462 1.142-.95-.207 2.397-1.436 1.092.344-.61.79-.467-.633zm.144 1.045l-.295.382-.678-.146.73-.568.243.332zm-2.11.49l-4.48 3.503-.827.047-7.142-2.11-3.88-4.244 3.635 1.593 7.37 3.537 4.267-2.557 1.057.233zm4.317 16.88l3.854 2.894-5.88-2.11 2.026-.785zm-2.457.416l-2.443.572 2.53-2.77 1.9 1.427-1.987.77zm-.297.58l-3.324 5.075-2.104-1.492 2.687-2.938 2.74-.644zm16.262 10.872l-1.436 1.54-1.347-.955 1.434-.284 1.348-.3zm-1.45-.188l-1.836.364 1.9-1.236 1.152.6-1.216.272zm-2.005.907l2.088 1.48 2.042-2.19 5.028 2.61 1.718 1.307-1.585.12-.088.005-7.09 6.612-4.892-8.57 1.82-1.186.96-.19zm4.67-.99l4.55-1.02 4.474 5.006-2.067.155-2.2-1.67-4.757-2.47zm-48.098 9.965l.286.273-.053.088-.234-.36zm-1.19-1.825l-1.432-2.195 1.645-2.548 2.842 1.066 5.892 2.445-1.94 2.062-3.967-1.415-1.305 2.24-1.736-1.655zm-1.73-1.735l.15.23-.184-.177.035-.053zm0-.92l-2.218-3.4-.605-.15.447-.16 3.84 1.442-1.465 2.27zm4.968-1.485l-2.747-1.032 2.682-4.153 6.123 7.7-6.057-2.515zm5.29 4.084l-.604 1.216-.404-.145 1.008-1.07zm1.017-.926l.39.162.464.583.923-1.09 2.22 3.58-3.087-.19-2.057-.734 1.145-2.312zm.8-.208l-.1-.04-.28-.354.545-.58.297.01.19.307-.65.657zm.035-1.477l.05-.1.062.103-.112-.003zm.71.02l-.71-1.145-.834 1.68-6.418-8.072-3.116 4.83-4.113-1.545-1.33.478-5.864-1.454-.064-.018-5.824 1.675-1.313-1.856-7.312 1.4-2.686-1.775 2.727-1.172 6.127-2.5.82 1.317.1.158 5.82-1.59 1.532.09.082.003 2.523-1.63 4.664.585 7.254-.056h.077l.31-.22 6.687 6.878.185.19 6.26-6.807.937 1.235.995-.695 3.414 2.834-4.48.394-5.765 6.805-.685-.018zm-31.468-.953l-5.647 1.938-1.996 2.976-4.982-5.714-5.812.13 3.856-4.436 1.765 2.27 4.006-1.72 3.12 4.55.09.134 6.417-1.22-.818 1.092zm-7.583 5.743l-.034.028.024-.037.01.01zm-26.864-7.525l-.066-.012-.45.164-6.89-1.492-1.86 2.744-1.076-.654-1.895-3.104 5.067-5.983 4.69-.424 1.308 1.41 1.045 1.772.86-.562 1.308.18 3.46 4.717-4.976 1.346-.526-.102zm-1.394.474l-5.874 2.146-1.57-.954 1.656-2.443 5.788 1.252zm-8.23 1.458l-.152-.252.23.14-.077.112zm-19.69 4.063l-3.35-2.098 3.542-5.79.25.255 4.38 8.19-1.918 1.442-2.564-2.047-.34.048zm-36.002-4.066l-.11.146-2.42-2.908 2.47-2.56 1.847 3.44-1.634 2.03-.153-.148zm-14.49-.64l-.61.938-1.535-1.76 2.017-1.377.22.055.065-.062 1.845 1.27-1.355 1.756-.647-.82zm.333 1.226l-.325.42-.277-.317.31-.473.293.37zm-6.705 6.603l-.868-1.32-.443.734-4.218-8.252 4.66 3.667 4.68-3.197 1.665 1.91-4.122 6.315-1.355.143zm1.002.398l-.18.275-.39-.02-.123-.185.693-.07zm-2.045-.46l.193-.32.29.442-.308.03-.096.005-.08-.155zm.793.592l.064.1-.517-.023-.013-.026.466-.05zm-29.74-25.327l.942.063 1.125.604-1.947.945-6.133-2.52 5.197.425.817.482zm14.7-10.094l.558-.405 1.278.94-1.906 2.242-1.765-2.086.276-.238 1.557-.452zm-.66-.33l.603-.525.204.15-.328.237-.48.14zm1.643-.383l4.964-3.594-3.786 4.454-1.177-.86zm27.92 1.635l3.957-2.946 3.365-1.196 4.274-.01 2.995.69 1.323-1.134 5.883-1.845.382-.035 6.364.814.514.303.11-.102 4.287 2.83 2.782 2.755 2.125-1.31 5.054-.897-7.262 5.334-7.054 2.536-7.27-8.2-7.312 3.894-7.264-3.338-7.173 5.054-3.362-4.144 2.06-.386 1.223 1.332zm-.643-1.438l.76-.144 2.238-.797-2.292 1.706-.706-.766zm-9.19-11.606l-3.043-3.62 4.04 2.636-.998.984zm1.425-.705l.2.13-.633.296.432-.427zm1.197-.307l-.062-.002-.404.19-.37-.242.832-.82 1 .914-.997-.04zm.244.51l-.19.017-.027-.018.014-.007.204.008zm-.75.248l.36.235.07.048 1.982-.17 2.896 2.644-4.71.73-2.27-2.702 1.672-.784zm3.09.055l1.663-.144 2.88.114 2.722 3.05-2.594-.696-1.82.28-2.852-2.603zm4.644 2.833l3.012.81-2.926.677-1.404-1.28 1.318-.207zm.18-3.298l4.167-3.973 2.982-.298 2.235-.642 4.835 3.913 4.046.69-1.613 1.98-2.23-.925-.087-.035-7.312 2.422-3.156.73-.543-.146-3.322-3.716zm-21.955-9.81l1.68-.975.94.523-2.676 2.328-2.608-.084 1.897-2.503.766.71zm-.462-1.108l.566-.745 1.072.6-1.106.638-.53-.493zm2.648-.157l4.105-2.38-3.27 2.846-.835-.465zm34.23-17.333l1.07-.184-.672.55-.397-.366zm.007.685l-.137.11-.208-.178.17-.096.175.163zm-.748-.414l-.513-.44.99.17-.477.27zm.603 1.177l.517-.42 5.75 5.297-5.487 2.363-.68-.405-4.106-1.677-3.163-1.892-1.005-.025.97-.14 6.54-3.67.665.57zm7.206 5.744l6.854-3.188.417-.148 4.448 2.634-4.52.514-4.238 3.264-2.903.336-5.033-1.054-.92-.547 5.357-2.308.54.497zm-.036-.713l.166-.07 1.645-.588-1.68.777-.13-.12zm58.11 2.465l.06-.032 3.91 2.4-4.062 2.108-4.896.126-2.225-1.953-1.668.402-2.94-2.782 4.532-.635 6.854.227.435.14zm.55-.316l6.652-3.836 5.202 3.982-5.225.87-2.696 1.4-3.935-2.417zm-6.275 4.937l-1.46.037-1.264-1.197 1.102-.266 1.623 1.427zm13.034 6.825l-2.33-.102 2.23-2.46 1.96 2.48-1.478.364-.32-.237-.063-.045zm-3.415.354l-3.922 4.325-2.312-2.577 2.395-1.912 3.84.166zm-4.006-.673l-2.563 2.047-4.49-5.01-.724-.03.627-.405 7.187 3.29.788.145-.826-.037zm-7.286-2.472l4.332 4.832-2.56 2.046-1.683-1.798-1.316 1.853-4.44-4.122 4.45-2.863 1.217.054zm14.675 8.697l.853.14 6.27 4.3 4.83-.36 1.214.73-6.04 1.558-5.472 1.535-1.748-1.128-3.043 3.034-1.78.837-2.265-1.346-.105-.062-1.716.658-1.362-1.437 3.076-.274.104-.01 6.324-7.608.857-.567zm2.014.33l5.094.83 4.107 2.475-3.95.295-5.25-3.6zm28.66 1.055l-1.74 1.822-2.562-2.1.79-.99 1.714-.102 1.798 1.37zm-4.688-.593l-.687-.563 1.19-.07-.504.632zm-.31.39l-2.59 3.25-1.304-.454-.05-.018-7.35.533-.537.14-1.028-.618 1.646-.123 7.3-3.453 2.8-.167 1.112.91zm32.214 15.528l3.494-1.203.895.765-4.372 4.836-4.746-2.233 3.127-4.035 1.6 1.87zm-1.29-2.276l1.406-1.813 2.937 2.508-2.895.997-1.447-1.693zm8.7-.276l.203-.158 1.902 1.788-2.203 2.322-2.207-1.886 1.67-1.85.636-.216zm-2.685 1.742l-.682-.582 1.753-.604-1.07 1.186zm-9.916 2.755l-1.917-.9-7.375-2.087-3.194 2.458-3.95-.88-.035-.01-2.057.115-1.978-2.327 4.02-.094 3.842-2.155 3.378.365.142.015 2.4-3.224 4.662-1.7 5.317 6.218-3.258 4.205zm5.11 13.82l.702.584-.49.34-.698-.924.186-.2.3.2zm-.793-.404l-.19-.255.264.177-.073.077zm-.342.373l-5.965 6.483-6.45-6.634 5.81-4.106.457.528.064.075 2.008.192 2.96 1.98 1.117 1.48zm-34.96.542l-.058-.003-.787.32-1.17-1.88 2.062-1.96 7.16 2.482.905.113-.994.847-1.48.404-5.638-.323zm4.125.738l-4.025 1.1-.677-1.088.604-.247 4.098.235zm-14.524 3.545l-.035-.023-.024-.038.52-.136-.46.198zm-25.753-3.34l-.85-.916-.706-1.197 1.314-.12 1.397 1.904-.617.4-.537-.07zM129.9 144.165l-.045.034-6.476-6.607-.567-1.058-.344.562-3.892-.125 1.63-2.418 2.515 1.983 4.22-.478 2.985 3.873 3.08-.072-2.525 3.792-.583.514zm-9.913-10.424l-3.692-2.91 5.043 1.155-1.127 1.672-.223.083zm-18.995-4.92l-.222.326-.725-.646 1.04.093 2.332-.318.55.536-2.06.692-.915-.682zm-5.257 7.456l-1.887-3.582-1.66 2.065-.875.103-2.64-4.734 2.2-2.343 2.91.156 2.96.265 3.496 1.723-4.386 6.456-.12-.11zm-16.27.05l1.85-.077 2.014 2.42-4.05 4.196-2.397-1.646 2.583-4.893zm-2.998 4.61l-1.708-1.17 4.56-5.914 1.59 1.913-1.752.074-2.69 5.097zm5.475-4.714l3.91-.166-2.174 2.253-1.736-2.088zm-.403-.485l-2.235-2.685-4.957 6.43-1.775-1.22 6.878-6.378 2.855-1.9 4.305 2.345 1.705-1.817 2.462 4.417-4.335.52-.083.086-4.82.2zm-9.48 2.174l-.245.168-4.574-1.127-1.155-1.323 6.09-3.485 7.135-3.787 2.5 1.36-2.668 1.778-6.993 6.48-.09-.062zm-14.804-1.43l.305-.615.623 1.217-.502.095-.424-.698zm1.164 1.064l.222.434-.012.007-.492-.388.282-.053zm.512-.096l.854-.16-.715.43-.138-.27zm2.255-.427l2.932-.552.556.353 2.283.567 2.19 2.512-4.33 2.956-5.225-4.11-.298-.583 1.89-1.142zm4.457-1.14l.753.863-1.488-.366-.07-.044.017-.003.787-.45zm-.922-.034l-.503.095-.607-.382 1.146-.69.556.638-.594.34zm-1.223.23l-1.086.205.72-.435.365.23zm4.305 1.522l3.458.858-1.698 1.16-1.76-2.018zm-17.44-10.272l.397-.522 1.862 3.05-2.342 2.396-2.894-2.19 2.293-3.184.685.45zm-.39-.855l.316-.438.194.314-.233.307-.276-.182zm1.112-.093l3.478-4.57 2.934.335 4.457 1.087-4.486 1.662-4.485 4.592-1.898-3.107zm6.5-4.727l-2.67-.306 2.48-3.26.013.01.146.105.3-.218 6.2 4.468-1.262.468-5.208-1.268zm7.053-6.37l.085.078 7.38-.895 3.334-.625 3.815 4.704-3.608 1.466-3.473-4.055-7.396-.023-4.927.62 3.47-2.49 1.32 1.22zm-.905-1.518l1.18-.85 7.074-3.325 3.092 3.812-3.052.57-7.135.865-1.16-1.073zm51.87-.415l-2.557-1.688-3.49-3.457 6.062-5.537 7.047 1.716 7.2 7.618.08.083 3.454-.17-2.252 1.71-1.16-.566-.937 1.06-6.107-4.302-.135-.096-5.352 3.3-1.85.327zm.696.384l-.713.44-.72-.713.63.416.804-.142zm-22.534-3.712l-2.836.007-4.108-.947 4.615-2.91 2.487-.02.834-1.024 3.48 1.695-3.31 2.834-1.162.364zm.216.444l-.245.21-.662-.152.73-.002.177-.056zm-8.11-14.186l-1.64.162.573-.547 1.066.386zm-.662-.77l1.362-1.3.857.693-.946 1.063-1.274-.457zm2.61-.29l.57.462-1.317.378.746-.84zm.33-.374l4.05-4.563 1.595.052.05.002 1.316-.514 5.878 5.925 5.073-4.433 2.2 1.627 3.45-2.855 3.735.823.035.008 4.61-.313 1.137.906-4.896 5.12-.868-.694-1.677 2.05-5.55 1.226-5.315-.438-1.927-2.164-1.06 1.304-6.142-3.796-4.864 1.394-.826-.67zm5.673-13.266l-1.185-.708 1.038.424.338.202-.19.082zm.043.595l1.987.417 5.217 3.104 3.092-2.38 4.052-.47 5.33 5.123-1.914 1.582-3.397-.75-2.147 1.876-4.997-3.696-5.805 2.262-1.492-1.504-1.81 2.04-5.352-.176-2.996-1.842 3.007.03 7.226-5.613zm3.492.73l3.643.765.04.008 2.158-.25-2.163 1.665-3.677-2.187zm18.216 7.013l1.447-1.796 2.542 2.022-3.992.27-3.32-.73 1.657-1.37 1.667 1.603zm-1.28-1.923l1.26-1.042 1.076.856-1.104 1.37-1.232-1.184zm-3.152 1.958l-2.847 2.354-1.796-1.33 1.873-1.636 2.77.612zm-5.44 1.06l-4.637 4.05-5.394-5.436 5.345-2.083 4.687 3.467zM94.778 89.43l-1.017.396-1.126-.037 1.18-1.33.964.972zm35.237 7.172l4.42-2.17 2.803.696.08.02 4.985-2.02 2.282.76.997-.64 4.583 4.254-3.116 4.386-2.604-.606-2.908 3.974-4.155-.456-6.318-2.27-.85-.74-.05-.043-6.168-1.232 4.467-5.2 1.55 1.286zm-1.224-1.667l1.35-1.57 3.543.882-3.598 1.765-1.294-1.078zm14.228-2.095l1.48-.6.706.655-.688.442-1.498-.498zm15.977 18.36l2.422-1.14.254.152-2.624 2.618-3.213-2.96 1.396-.534 1.765 1.865zm-1.263-2.056l1.297-.498 1.868 1.11-1.79.84-1.376-1.452zm37.627 4.81l2.55-.06 1.996 2.348-4.71.263-.958 1.093-3.975 1.394 2.592-4.14 2.504-.897zm-2.085.226l2.068-3.303 2.15 2.527-2.188.05-2.03.725zm16.802 4.752l-.26-.302-.21.25-4.562-.093 1.646-1.27 2.993.668.7.802-.306-.056zm-36.567 14.44l-1.607 1.85-.842-.676-.15-.194 2.633-3.344 2.99 4.36-3.023-1.997zm2.873 2.498l-2.77.724-1.322-1.06 1.31-1.505 2.783 1.842zm-2.815-5.706l-2.976 3.78-4.094-5.273-.067-.088-5.088-.385 1.857-1.52 3.203 1.168 2.234-3.535 4.822.5 7.372 5.377 2.777-2.896 1.81 2.913-4.745 4.54-3.365.88-3.742-5.46zm-58.014-.02l-7.24 1.423-1.125-.325-2.284-2.22 3.477-1.166.306-.29 6.884-.667 3.847-2.5 3.393 2.892 4.835-4.878 2.33.123 5.897 3.403-5.888 1.527-6.18 3.7-1.022-1.328-1.146 1.7-6.086-1.396zm-3.74 1.245l-3.44 1.005-.426-.413.344.102 3.522-.693zm-35.826-10.983l3.25-1.317 2.032 2.386-.392.554-1.38-1.547-.1-.11-2.87.668-.54-.633zm10.45 7.14l.23.013.434.778-.465.146-.776-.87.406-.27.172.203zm.82.044l1.883.104-1.552.49-.33-.593zm.697 2.277l-1.42 1.696-2.8-2.532 1.707-1.136 1.04 1.164.87-.274.603 1.083zm-2.43-2.63l-4.305-4.824.385-.543 4.335 5.093-.415.275zm-6.3-6.31l1.356 1.52-1.287 1.818-2.397-2.8 2.328-.54zm1.698 1.903l4.18 4.688-1.75 1.168-4.01-3.627 1.58-2.23zm4.17 8.104l-2.32-1.263.532-.353 1.787 1.617zm2.744-2.304l1.57-.496-1.11 1.323-.46-.827zm5.988-2.418l-2.097.663 2.166-2.308 1.246.23 3.452 3.076-1.705-.153-3.062-1.508zm1.678 1.385l-1.686-.15-1.91-.105 1.876-.593 1.72.847zm-3.8-1.425l2.127-2.54.59.525-.705-.13-2.013 2.145zm7.508 2.255l1.105.984-2.192-1.08 1.088.097zm-3.125-3.456l4.847.89 2.033 1.98-1.89.26-1.65-.148-3.34-2.98zm5.142.478l-.055-.054-5.805-1.064-1.59-1.416-3.627 4.333-3.18-.173-.325-.583-.286.19-4.457-5.234 4.692-6.625 7.098 6.8 7.385.798 7.215-.744 5.688.24-5.473 5.17-.236.023-4.673.644-2.37-2.302zm14.33-3.468l.994-.024 2.485 2.118-3.57 2.337-6.18.6 5.388-5.065.884.035zm-.375-.515l.377-.354.42.36-.42.01-.378-.015zm-9.41-19.546l.22.03-.13.07-.09-.1zm-4.85-2.84l1.788.152 1.774 1.993-3.39-.5-2.422-.412 1.42-1.746.83.513zm-.51-.902l.648-.797 1.188 1.335-1.115-.092-.72-.445zm3.023 1.118l4.885.418 5.005-1.104-1.555 1.9-3.48.177-1.578.868-1.457-.215-1.82-2.044zm12.243-1.206l.75-.783 3.728 2.985-4.618.023-3.093.158 1.67-2.04 1.563-.343zm-1.053-.28l.962-1.175.448.358-.613.642-.797.176zm9.003 3.138l6.14 1.23-6.876-.34-.078-.06h.003l.104-.008.708-.822zm-.95.34l-.438.03-.674-.54 1.184-.007.315.064-.388.453zm-1.172.085l-5.956.436-4.19-.01.656-.803 3.536-.182 5.22-.03.734.588zm-13.166.42l-.844-.123.878-.486 2.97-.15-.63.767-2.374-.006zm1.968.503l-2.013 2.46-2.104-2.363.588-.325 1.524.225 2.006.003zm-1.997 3.228l2.643-3.228 4.32.01-6.07 5.544-.807-.798-2.518.237-4.13-2.44 3.996-2.212 2.567 2.886zm13.77-3.692l.626.5 7.295.35.807.287 6.416 5.576 2.15-.33-1.015 1.387-1.077-.63-3.173 2.407-3.954.193-7.223-7.644-6.828-1.663 5.978-.435zm29.743 5.86l.82-.073 2.257 2.078-2.568.985-.505-.39-6.71 3.51-.59.257-2.842-1.933 2.904 1.7 6.373-6.168.86.03zm-.364-.512l.345-.334.344.316-.34.03-.35-.012zm7.44 9.2l3.836 1.615 3.582 2.877 2.154-2.093 3.87-1.265-3.327 5.268-2.775.717-3.523 2.473-3.578-1.306-.092-.032-3.897 1.6-3.235-2.647-6.003-3.003 5.99-4.214 5.57-1.09 1.428 1.1zm-.775-1.23l.86-.168 2.348 1.887-2.153-.905-1.055-.814zm6.29 3.552l1.877.79 1.1-.36-1.103 1.074-1.875-1.504zm9.15-1.585l1.22.28 5.638 4.635-6.853-.413-.04-.003-3.808.982 3.366-5.328.478-.155zm-.057-.507l.107-.17.3.245-.304-.07-.067-.017-.035.012zm14.323 5.597l-1.696 1.762-5.196-2.163-5.057-4.152 4.817 1.118 7.134 3.434zm.65-.367l1.357-2.17 3.732-1.308-1.71 1.95-3.38 1.528zm2.59-.62l-3.08 3.52-1.374-.57 1.59-1.658 2.864-1.292zm-31.993 6.808l-1.976-.196-1.512-1.237 3.468-1.424 3.16 1.152-2.5 1.756-.64-.05zm-7.247-.723l-.967-.115-3.463-1.54-2.55-4.32.597-.42 6.195 3.095 2.985 2.446-2.226.913-.57-.058zm-3.992-.914l1.348.602-1.067-.127-.282-.474zm-10.53 7.015l-1.79 2.688-.36-.06-4.78-8.147 6.115-1.586.77.443 7.15-1.797-6.25 9.86-.855-1.4zm.556 1.87l-.688 1.086-1.115-.18 1.23-1.846.574.942zm6.676-14.34l-.48-.286.48-.192.4.2-.4.278zm-.405.34L137.2 125.6l-.634.164-6.39-3.688-2.075-.118 2.003-2.02 7.187 3.415 6.184-2.47.66.396zm-6.8 4.932l-.15-.088.177-.047 7.104-4.413 2.147 3.638-2.04-.907-7.237 1.817zm17.73.602l1.14.933-2.743-.273 1.604-.66zm11.315-2.73l1.705.177-1.887 2.985-2.548-.93 2.73-2.232zm1.115-.388l1.132-.292-.243.385-.89-.093zm1.838-.474l4.247-1.097 7.082.428 2.684 4.314-2.568 2.666-7.13-5.2-4.708-.486.393-.624zm11.85-.778l4.58 1.912-2.06 2.14-2.52-4.052zm-29.43-6.55l-6.35 4.44-.74-.37-.102-.05-1.043.416-6.11-3.644-4.115-2.012.042-.05 3.978-.92 7.043.848.18.12.802-.42 6.554-2.86.357-.14 4.696 3.623-5.19 1.02zm-13.82-5.706l-.766 1.046-1.063.053 1.242-1.497.587.398zm-2.506 1.13l-.436.02 1.127-.853-.69.834zm.244.49l1.76-.086.917-1.253 5.11 3.474-6.13-.737-.042-.007-3.424.79 1.81-2.182zm16.01-.87l.094-.048.012.008-.084.032-.022.01zm-7.167 2.27l-5.72-3.348 1.278-1.748 4.472-.685 5.73.21-5.76 5.572zm-4.725-5.556l-2.413.368-5.273-4.583 5.17 1.852 3.928.436-1.412 1.928zm-5.502 4.223l.708-.033-1.937 2.336-.533.123-.873-.427 2.636-2zm-2.534 2.605l-1.293.3.745-.566.547.265zm-1.747.015l-.477-.16.583-.658.592.29-.697.528zm-.007.903l2.468-.57.038.02-2.494 3.008-2.174-1.605 1.294-1.46.868.608zm-2.567.55l-4.458-3.296 5.683 1.916-1.224 1.38zm.07.674l2.59 1.915 2.875-3.466 4.206 2.057 5.764 3.437-5.626 2.25-7.31-3.476-2.562 2.586-4.41-.25 4.475-5.053zm-.52 5.762l-4.196 4.23-2.926-2.493 3.01-1.956 4.11.22zm-7.51 1.407l-2.17-1.852 5.198-.13-3.027 1.982zm-12.43 3.994l-2.537.852-.456-.442 2.992-.41zm-.873 3.17l-3.764-1.088 1.968-.66 1.797 1.747zm19.37-.236l-1.346.952-.076-.1 1.422-.852zm-2.16.713l-.62.37-.597-.136.652-.966.564.733zm-1.516.68l.98.225.843-.506.1.13-1.102.78-1.664.62.845-1.25zm1.026 1.086l1.198-.848 2.504 3.25-3.716.42-2.383-1.878.045-.068 2.35-.877zm1.607-1.135l5.48-3.876 4.543 7.747-4.426-.72-.034-.005-2.887.326-2.677-3.472zm5.55 3.65l4.8.78.193.327-1.69 2.536-3.175.075-2.645-3.434 2.52-.28zm5.713.93l1.665.27.734-1.155.66 1.08-.734 1.367-.808-.49-.748.653-.897-1.53.13-.195zm2.697-1.357l6.135-9.676.873.942-1.048-.125-5.323 9.9-.637-1.04zM144.707 125l2.344 1.043.443.75-1.267-.15-1.52-1.642zm3.105 2.333l1.662 2.813-2.724-2.938 1.062.126zm.626.075l2.293.272.97.43.098.044.682-.277 4.428.44 1.113.913-4.52 2.96-1.495-2.04-.083-.113-1.833.166-1.652-2.795zm9.363.998l1.233.123.04.003-.158.11-.46.3-.654-.537zm1.395.65l.66-.464.203.015-1.007.822-.19-.155.335-.22zm1.303-.917l.956-.674-.834.684-.122-.01zm23.473-1.212l2.276-2.37 1.884.786 4.04-4.616 3.073-1.386 6.043 7.24-4.59 3.905-1.302-.163-7.397-2.57-2.202 2.105-1.824-2.93zm11.414-8.197l-2.422 1.092 1.567-1.793.776-.27 7.3 2.91 1.806-1.39 4.787.096-5.652 6.78-1.002-.646-.878.748-6.284-7.528zm7.203 7.4l.64.41-.66.792-.58-.695.6-.51zm1.06.685l4.74 3.062-5.476-2.18.738-.882zm6.136 3.37l-5.812-3.756 5.855-7.02 4.902 5.672-4.944 5.103zm-5.537-11.41l-1.562-.03-1.744-2.054 1.606-.09 3.51.782-1.81 1.393zm-1.796.465l1.163.023-1.086.835-7.12-2.84-.087-.035-.12.043.233-.27 4.88-.27 2.137 2.514zm-12.942.02l-1.433.502-4.35-2.103 4.417-1.12 3.953-1.413-2.587 4.133zm-1.556.997l.093.046 1.04-.364-1.117 1.782-6.997-3.362 2.005-.508 4.977 2.406zm-7.124-2.38l-7.197-3.145-.74-.233.722-.703 7.088 2.955 1.576.76-1.448.365zm-7.373-2.678l6.757 2.956-5.198-1.21-1.52-1.248-.73 1.16-3.474 1.133 3.19-3.098.975.306zm-5.247 3.144l-1.896.62-3.308-1.39-3.888-3.124-1.52.3-4.804-3.705 2.518-.965 3.57 3.287.176.163 3.057-3.047 4.11 2.44 5.714 1.8-3.73 3.622zm-6.173-8.486l-.074-.044.224-.104-.15.148zm-6.613-.357l-2.105-1.94 2.047-.183 1.492 1.572-1.434.55zm-2.602-2.395l-1.023-.942-1.03.995-6.252-.227-4.027.614 1.288-1.76 2.896.32 2.593-3.648 4.408 1.027 3.254 3.433-2.107.19zm-10.708-1.783l2.542-3.475 2.08.485-2.302 3.243-2.32-.254zm-18.677-4.916l-.637-.127-1.847.01-4.176-3.343 4.897-5.123 1.135.904 1.247-1.077 4.028 3.35-4.645 5.407zm-1.416-8.946l.798-.836.843.7-.868.752-.773-.616zm2.026-.467l-.49-.406.775.16-.284.247zm-2.42.156l-.744-.593 1.4-.095-.656.688zm-27.86 3.51l5.9 3.647-1.56 1.914-4.195-.716-4.46-3.608 4.317-1.235zm4.544 6.103l2.706.46 3.985.586.413.464-4.164 2.29-.224-.132-.19.164-4.222-1.75 1.696-2.083zm2.098 4.196l-1.757 1.506-3.567-1.74 1.2-1.474 4.125 1.708zm-5.786-.46l-.833-.405-2.5 1.578-4.7.04-2.22-.598 2.267-.524 7.157-2.37 2.007.832-1.178 1.45zm-.325.4l-.612.752-1.445.013 1.58-.995.477.23zm4.43 2.16l1.75.854-4.337 1.36 2.586-2.214zm2.398.613l-1.985-.97 1.786-1.53.03.014.112.047.173-.095 3.79 2.235-3.6.338-.305-.04zm4.635.13l1.02.602-3.122-.403 2.102-.2zm.85-.078l1.6-.148.622.615-.46.42-.332-.044-1.43-.844zm2.578.82l1.727 1.71-2.088-1.38.36-.33zm13.602 1.776l4.743 3.34-4.654-1.568-.06-.02-4.025.713 3.995-2.465zm4.308 6l-4.415 4.982-5.954.15-1.19-1.014-1.054.997-6.208-.26-7.2.744-7.163-.778-7.394-7.082-4.953 6.994-2.183-2.563-.067.025 7.267-5.12 7.228 3.322 7.183-3.823 7.233 8.158 7.406-2.664 7.164-5.25 4.3 3.18zm-62.29.11l7.137.026 3.214 3.754-3.165 1.285-6.897.9-.207-.253-.27.1-6.334-4.564.714-.513 5.81-.734zm-6.95.94l-.072-.053.176-.02-.104.073zm6.687 5.436l.198.143.142-.02.333.41-.402.074-1.154-.28.883-.326zm7.547-.82l3.407-1.38.48.562-3.966.924-6.234 1.144-.312-.383 6.624-.865zm.024.596l4.23-.984 2.96 3.454-7.21 5.937-5.955-7.31 5.976-1.097zm7.188 3.117l3.62 3.274-.645.43-2.967-1.613-7.17 3.808 7.16-5.898zM91.04 135.4l.26.467-2.642 3.284-1.75-3.256 4.13-.495zm.536-.064l.165-.02-.103.13-.06-.11zm2.143-.257l1.61 1.503.17.32-1.675 2.468-1.926-3.454.55-.686 1.27-.15zm-.823-.405l.863-1.074.864 1.642-.734-.686-.993.12zm14.025-2.993l1.312 1.275 7.263-2.12 3.942 3.107-3.916 1.46-7.12-1.054-4.923-3.675 3.442 1.007zm26.698 8.165l1.244-.03-2.938 2.574 1.694-2.543zm.338-.508l1.36-2.044.822 1.403-.69.603-1.492.036zm2.44-.202l.083.144-.25.006.168-.15zm.383-.336l.545-.477.43.26-.575.68-.127.002-.272-.465zm2.486-1.228l1.305 2.14-2.056-1.25.752-.89zm5.424-10.614l1.294.154 2.95 3.188-4.51.407-4.796 5.662 5.062-9.412zm8.684 5.903l.103.14-.26-.036.157-.104zm5.05-3.304l.628.515 1.73-1.414 5.39.408 3.21 4.137-3.038-2.438-7.324 2.995-4.855-.666-.37-.507 4.628-3.03zm.594 4.707l.066.01 7.176-2.936 3.914 3.14-3.998 5.078-2.35.125-4.76-1.87-1.205.327-3.286-4.48 4.444.607zm.02 4.072l3.585 1.407-3.448.184-.995-1.357.858-.234zm4.707 1.848l2.513.987.477-.01-.523.603-6.51-1.364 4.043-.216zm2.603.485l-1.398-.55 1.367-.072.11-.006 4.138-5.253.138.11.696.9-4.222 4.853-.83.02zm7.15-3.53l3.445-.9.184.122-3.492 1.5-1.257-1.618 1.12.896zm12.19-6.51l1.07 1.723-5.048 2.06 3.98-3.782zm11.146.368l.3.038-1.45.938 1.15-.975zm.514-.435l4.258-3.606.646.772-4.47 2.89-.434-.057zm5.246-2.46l7.084 2.798.176.182-.113.08-7.142.06-4.045-.507 4.04-2.613zm12.46-2.648l1.046 1.208-5.832 4.127-.19-.196 4.977-5.14zm2.145 1.715l-.36-.416.24-.17 1.003.673-.884-.088zm-1.283-2.606l1.134-1.17 1.822 2.406-1.696.206-1.26-1.442zm.792 1.668l-.2.142-1.105-1.28.164-.168 1.14 1.306zm-1.634-1.518l-4.48-5.18.313.058 4.325 4.955-.16.166zm-5.068-6.917l-.054-.063-2.746-.61 2.664-2.05 7.096 2.003 1.778.838-1.775 2.292-5.794-1.07-1.168-1.34zm-7.51-4.51l-4.36.103-2.853-3.356-2.767 4.416-4.52 1.607-4.973 1.26-2.123-1.026-7.403-3.088-1.155 1.12-5.915-1.857-3.95-2.35 1.044-1.043 2.847-1.34 1.563-.437 5.64 3.638 7.226-5.79 7.23 6.56 7.39-4.313 1.188-.543 5.812 4.318.055.04 3.117.337-3.093 1.744zm-37.934-5.254l1.77-1.768 1.04.67-1.18.33-1.63.768zm30.624-1.086l-7.096 4.137-7.275-6.598-7.276 5.83-4.963-3.2 5.042-1.414 6.506-1.683.553.333 7.484 1.345 1.455-1.825 5.576 1.93.95.706-.958.44zm-14.386-3.1l.02-.006 7.203-.52 1.09.378-1.158 1.454-7.062-1.252-.093-.054zm-21.876 2.704l-3.365.302-3.63-3.826-4.354-1.017 2.96-4.165 1.252 1.163 1.62-1.292 5.605 5.992 5.047-3.334-5.134 6.178zm-8.098-9.118l1-1.405 1.236 1.322-1.252 1-.984-.916zm-5.19-4.817l-1.034-.96-2.316.938-2.274-.758 4.583-2 5.004.228-3.963 2.55zm-4.064.268l-4.293 1.738-2.146-.533 2.266-1.112 1.93-.84 2.244.748zm-4.386-.362l-2.81 1.38-4.268-1.062-.15-.038-1.555 1.812-3.97-3.302.513-.44 5.084 1.052 7.233-.475 1.354.45-1.432.623zm-14.372-2.606l-2.514.17-2.967-2.362 4.208-5.22 1.246.375 1.668-.37 5.583 2.73 2.985-1.23 4.208 1.126.082.02 7.3-3.016 2.01-.28 2.994 2.834-5.09 1.23-7.25-.536-7.248.495-.083.005-5.143 4.442-1.99-.414zm28.95-9.278l-4.97.694-1.13-1.07 6.117-1.136 5.16 1.68-5.177-.168zm-6.55-.8l-.327-.312 3.082-.202-2.755.513zm-.728-.003l.122.114-.062.012-.298-.047.238-.08zm.024.626l.042.006.504-.094 1.104 1.045-1.646.23-7.234 2.978-3.494-.934 3.59-1.48 5.844-1.956 1.29.206zm-7.308 1.286l-4.212 1.732-2.862-.765-2.64-.877 2.626-.58 7.197-1.932 4.838.762-4.946 1.66zm-7.218 1.447l2.244.6-2.17.893-4.818-2.352 1.295-.285 3.45 1.144zm-5.467-1.21l-1.642-.802-.213-.07.22-.273 2.725.904-1.09.24zm-1.83-.34l1.047.512-.93.205-.926-.278.452-.56.357.12zm-1.326.284l-5.686-1.706-1.426-.846 1.27-.146 6.304 2.122-.462.576zm-5.886-1.252l5.548 1.67-4.082 5.064-1.397-1.112-1.616 1.337-5.54-5.323-3.458.4 3.468-2.67 5.038-.572 2.04 1.207zm-22.082 1.22l-6.92 5.38-3.667-.036-3.367-2.068-3.967-.27-3.29-1.937-.103-.06-7.236 2.77-3.217-2.34 3.163.21.08.005 7.242-4.5 7.163.97.045.007 7.213-1.654 3.025 1.234 3.836 2.29zm-11.558 5.333l-2.457-.023-2.978-1.757 2.832.18 2.604 1.6zm-2.653.44l.058.034 3.422.033 3.763 2.312.057.035 5.067.166-3.79 4.27-1.217-.982-1.86 1.772-5.303-1.91-7.22-2.103-7.096-4.457 7.015-1.666 3.218.205 3.887 2.29zm-14.352-.384l7.093 4.455 7.3 2.137 5.053 1.82-.857.815-4.074.405-7.25-2.967-7.208-1.173-3.885-2.165 3.826-3.326zm21.694 18.917l3.96-.033-4.07 2.566-3.01-3.37 3.12.837zm-.155 3.232l.053.06 2.304.53-2.17.005-1.988.703 1.778-1.324.022.025zm-10.73 3.854l-3.51-4.326-6.885 3.24 6.787-5.41 5.628 6.118-2.02.378zm-10.978-.81l-1.3.934-4.503-4.167 5.83 3.207.014.008-.04.018zm-7.085-3.74l5.368 4.97-4.135 2.97-1.287.16-.495.354-4.088-2.995 4.637-5.46zm-3.242 12.534l-1.92-.22 4.553-3.24-2.632 3.46zm-.35.462l-3.18 4.18-.483-.792-.77 1.066-4.174-2.748 4.973-.917 1.458-1.038 2.177.248zm-3.78.31l-2.854.527 2.99-1.253.76.087-.896.64zm-7.144 1.32l-1.71-.05 1.685-.816 1.033.68-1.01.187zm-4.37.687l-.396.192-.47-.253.867.06zm1.004.068l3.402.233 1.685-.706 4.48 2.947-2.275 3.155-3.814-2.887-4.334-2.33.856-.413zm7.4 6.34l3.235 2.45 2.556-2.63 2.447 4.01-4.997 5.987-4.7-7.797 1.457-2.02zm6.15-.548l4.45-4.576 5.127-1.9 1.977.483.777-.144 6.424 7.887-.07.037-6.176 3.547-.898-1.03-1.72 1.04-5.634-3.564-1.83 2.194-2.427-3.973zm4.36 2.435l5.054 3.196-1.652.998-2.315.438-1.14-2.23-.607 1.223-.998-1.635 1.66-1.99zm-.614 4.657l.237.387-.697.543.46-.93zm1.178 1.25l-.18.11-.21-.417.39.308zm.418.33l.61.48 4.853 9.495-.122.202-.65.022-5.062-9.978.372-.222zm15.864 1.57l1.778 1.222-1.498 2.838-1.728-2.182 1.448-1.877zm2.193 1.507l2.697 1.852 4.306-4.463 2.46 2.958-4.284 5.72-2.588-2.085-1.406 2.483-2.76-3.484 1.575-2.983zm11.927-1.614l3.926 7.3-5.46-5.392 1.534-1.907zm.34-.424l2.647-3.293 2.223 3.984 1.98-2.916 3.078 5.842-5.043 5.39-.085-.085-4.797-8.92zm7.528-2.012l4.095 3.817-1.333 1.424-2.762-5.242zm4.552 3.33l-.116.123-4.655-4.34 4.468-6.577.252.124.092.045.572-.19.502.145 6.045 4.515 7.36 1.118.063.01 4.153-1.548-1.742 2.58-2.43-.078-.108-.003-2.61 2.567-3.687-1.768-.77-1.29-7.268 4.626-.12-.058zm14.47-.255l-2.15-1.03 2.336-2.287 2.01.064-2.196 3.253zm-4.283.376l-1.563-2.626 2.845 1.364-1.28 1.26zm-2.84-3.792l-.045-.02-2.837 1.58 2.763-1.76.12.2zm-.028.54l.49.235 1.822 3.057-2.253-.642-.136-.04-2.76 2.634-3.56-1.68 6.398-3.563zm4.622 2.216l2.49 1.192-1.712.765-2.15-.612 1.372-1.344zm2.597 1.693l2.975 1.853-.65 1.063-2.13-2.078-1.264-.36 1.07-.478zm.167-.486l2.552-3.78 3.92.126-3.41 5.574-3.063-1.92zm8.524-2.076l5.232 5.338-1.695 1.274-3.536-6.612zm5.584 5.697l.283.29.776-1.166 4.78-4.186 1.126-.026.537.918.963-1.79 2.867 1.742.776 1.27-4.765 7.034-6.966 1.367-2.188-4.092 1.81-1.36zm27.857-6.15l1.19 1.625.016.02-.425.39-4.933-.908 4.154-1.126zm8.59 3.577l.145.028 1.017-1.167 6.032-.135 4.918 5.638-1.032 1.54-3.75 3.09-7.343-7.94-1.24 2.562-5.734-5.08 6.988 1.465zm14.67-1.4l-2.527-3.686 2.275 1.506.085.056 7.195-1.38 1.028 1.455-1.067.307-.36.48-6.63 1.262zm8.363-1.618l.354.497-1.367-.206 1.013-.29zm11.108-.48l-5.102 1.83-4.968-.75-.53-.748 5.528-1.59 5.073 1.26zm31.258-7.504l1.062-1.164 2.17 1.54-2.148 3.276-.72.117-.3-.19-.07-.046-2.248.197-3.7-3.066 2.764-1.933 3.19 1.27zm-2.623-1.58l2.494-.43.78.555-.79.863-2.485-.986zm.23 5.847l-4.97.912-.078.015-1.34 1.35 1.586-1.872 4.78-.42.022.015zm2.365.075l.288-.047.285.183-.67 1.022-1.125-.935 1.222-.222zm-7.168 1.314l5.306-.973 1.88 1.557.98-1.498 6.082 3.847 1.263.135-1.21.976-7.155-.466-.04-.003-7.257 1.916-5.167-.137 5.32-5.358zm14.465 2.48l-6.026-3.812.14-.213 5.755-.936 4.63 2.767-2.922 2.355-1.576-.16zm4.954-1.92l2.172 1.297 1.528-.304.27.475-1.814 1.184-4.826-.496 2.67-2.156zm.416-.334l1.73-1.396 1.292 2.267-1.176.23-1.846-1.102zm3.976 1.53l-.175-.306.925-.184-.75.49zm1.875-1.22l-2.312.458-1.667-2.92-2.33 1.878-4.232-2.527 6.418-.35 4.516 3.205-.393.256zm-16.735-2.647l1.888-2.88 2.953 2.094-4.84.787zm-.76-5.37l-.917-.65-.086-.06-1.814.312 1.858-1.3 3.19-.75-2.233 2.447zm-7.345 2.16l-.83-.687-.257-.173.245-.267 3.27-.563-2.428 1.69zm-1.093-1.59l-.413.448-1.524-1.02-1.058-1.398 3.062.295 2.922 1.16-2.988.516zm-4.198-2.086l.525.052.464.61-.988-.662zm-.87-.583l-1.374-.918 1.46-.178.903 1.193-.99-.096zm-2.038-4.732l-1.512 1.56-3.883-4.446 5.477 1.015 2.03-2.62 5.013 2.36.168.08 4.63-5.122 2.578 2.202 2.532-2.67 3.61 3.396-6.22 1.486-7.286 5.28-4.788.583-2.348-3.105zm15.164-10.08l.336-.262 3.604-.206-2.093 2.203-1.848-1.736zm-13.746-8.587l.11.122-.194-.085.084-.036zm-.707-.236l-.635-.277-.153-.067-.64.62-.44-.045 1.152-1.548 1.065 1.166-.35.15zm-.624.273l-.15.064.094-.09.056.027zm-1.27.452l-1.246 1.21.928-1.244.32.033zm.65.067l.482.05.064.007.693-.304 1.65.725 4.688 5.127.047.05 7.045 2.084-.496.55-2.89.995-3.56-3.04-1.664 2.146-5.478-6.4-4.22 1.542 3.638-3.53zm-6.744 6.545l.723-.7-.84 1.126-2.536-.273 1.768-.99.884.837zm-.43-1.096l.515-.287.998-.365-1.086 1.055-.427-.404zm-12.726-3.693l-1.202-.894-5.517-1.918 2.475-3.105 2.913 2.39 2.1-2.2 4.406 3.355-5.174 2.37zm-1.193-7.847l2.773-.515.71.317-1.576 1.65-1.907-1.45zm-.168-.478l-.882-.104.966-1.212 2.054.918-2.14.398zm-.467.45l-.896.053.115-.145.78.092zm-1.568.092l-2.18.13-.938-.77 3.318.386-.2.254zm-25.976-4.868l1.297-.322 2.46 3.104-3.756-2.782zm-.98-4.003l-2.903 3.204h-.023l-4.23-.774-7.25-3.327-.126-.057-1.45.934-5.767-.26-.058-.003-5.2 2.267-1.973-.658-7.264.478-4.642-.96 4.725-4.083 7.13-.49 7.292.542 5.48-1.323 1.652 1.562 2.207-.057 4.98 4.37.11.1 7.27-2.653 5.58 3.546-3.066.762-2.47-3.12zm7.198-1.373l-7.078-2.88-2.39-1.467 2.338-1.208 5.646-.94 1.523 1.167 1.574-1.16 5.298.885-6.91 5.602zm-.807-6.607l.852-.142.883.146-.88.647-.855-.65zm-21-3.056l-7.126.47-7.18-.794-3.975-3.194 3.893-.274 7.277-3.78 7.133 1.143 5.026 2.288-5.05 4.14zm-14.506.158l6.768.743-.79.266-5.893-.927-7.29 1.955-3.433.76-3.85-1.277-.553.688-6.53-2.2-.054-.02-2.038.233-4.492-2.665 6.458-.36 7.336 3.13 3.17-2.667 4.056-1.094 2.622-.185 4.51 3.622zm-11.428-2.794l-2.935.79-5.757-3.544L122.803 71l6.31 2.138-3.34 2.81zm-17.444-5.49l-7.318.384-4.21.722 4.348-3.548 7.07-.39 4.73 4.008-4.62-1.177zm-14.487-4.18l-4.784-.722 4.74-2.295 7.242 4.098 2.624-1.153-2.647 1.258-7.174-1.186zm-26.634 4.7l-2.37-.94-7.324 1.33-1.213.86-5.91-.138-5.75-4.092 5.647.897 7.25.576.032.004 7.217-1.288 4.29 1.527-1.87 1.265zm-.502.338l-1.965 1.326-7.176-.385-.464-.01.557-.4 7.126-1.294 1.92.763zM56.422 72.73l1.123.026 7.336.394 2.382-1.61 4.573 1.816-7.096.364-7.167 2.11-3.434-1.472 2.282-1.628zm22.924-3.087l7.17 1.684 5.207.9 1.01.867-6.257 3.53-3.814.55-3.36-.09-.834.032-6.27-3.73 7.148-3.743zm.386 7.952l-.37.053-.104-.062.047-.002.427.01zm-.472.573l3.435-.495 3.792.1.226.136-.132-.056-7.28 1.668-7.295-.986-7.258 4.51-3.874-.257-1.524-1.11 5.538-5.037 7.18 1.21 6.27-.232.922.548zm-19.322 4.56l-1.62-.107.653-.596.968.703zm-2.305-.163l-.822-.606.788-.933.96.697-.925.84zm-.618.165l-.867.014.34-.402.527.388zm-1.294.518l1.936-.027.147-.133 2.892.19 4.078 2.965 7.264-2.78 2.327 1.37-2.288-.153-.038-.004-7.286 1.73-5.55 3.205-1.712-.952-.798 1.053-3.61-3.338 2.64-3.124zm-.236-.495l-5.12.08-4.942-1.135 4.89-3.917 5.772 4.263-.6.71zM54.49 93.44l3.157.105 2.96-2.575 4.08 2.273 7.278 1.192 7.31 2.998 3.562-.354-3.634 3.463-2.893.248-2.468-.097-1.79-1.634-1.245 1.23-5.513-3.6-.376-.447-2.803.236-4.562.098-.577.184-4.46-.718 1.973-2.603zm1.442 3.656l-5.56 1.772 1.802-2.374 3.758.602zm-5.648 1.064l-.873-.893.99-1.06 1.216.194-1.332 1.76zm-.095.618l-1.367-.88.246-.264 1.12 1.144zm17.833 4.26l-3.208 3.167-1.74-1.84 1.78.155 3.168-1.482zm-6.217.715l-4.292-.375-7.25 3.278-5.75-.53 5.897-3.69 7.09-3.23 4.306 4.547zm-28.56 2.778l-.02-.023 2.513-1.79.886 1.378-.804-.05h-.03l-2.545.486zm2.576.016l1.14.07 1.224 1.896-2.315 1.214-2.262-2.757 2.214-.424zm1.76.108l3.713.23-2.665 1.395-1.05-1.626zm-7.38-3.834l-1.643-2-1.67 1.976-2.17-2.94 3.858-1.833 4.247 1.238-2.623 3.56zm-.306.416l-1.34 1.818-1.36-1.846 1.358-1.608 1.342 1.636zm-1.34 2.66l1.667-2.263 2.28 2.78-.496.353-3.418.654-3.563-1.65 1.835-2.172 1.694 2.298zm.076 3.882l3.563-2.536.854-.164 2.692 3.28 2.715-1.423.585.907-3.267 1.438-7.596-1.356.452-.146zm10.27-1.076l3.357-1.76.86.054.693-.434 6.537.604 7.25-3.278 4.723.413 2.48 2.62 4.573-4.517.045-.02 2.537 3.018 5.387-.832 1.798 1.643.097.09 3.584-.83 3.19 3.57-3.04 2.263-3.71 1.313-1.026.19-6.154-6.69-7.302 5.82-7.245-3.985-6.59 4.79-.655-.48-1.717 1.494-.497.144-4.953-5.853-3.622 1.594-.6-.938zm4.085-.05l4.567 5.397-4.387 1.267-3.387-5.253 3.207-1.41zm5.18 6.12l2.14 2.53 2.31-2.72 3.985 2.92-4.89 3.475-1.376-.157-.065-.008-5.233 2.193-.255.047-1.707-1.123-2.802 1.36-3.975-.117-.375-.2-.195-.018-6.99-7.604-.076-.083-3.315.083 3.25-1.704 7.12 1.23 7.368 4.315 5.08-4.417zm-19.563 7.583l-3.623-.713 3.573-1.998 5.353 3.158-5.302-.447zm-1.055.3l-6 .905 2.758-1.543 3.24.64zm-6.316.54l-.437.02-1.062-.697 1.623-1.08 2.217.438-2.34 1.318zm-1.28.066l-1.447.076.777-.518.67.443zm-2.427.126l-2.09.108 1.674-2.106 1.72 1.132-1.303.866zm.162.493l2.97-.154.588.39 7.277-1.1 7.186 2.952.105.042 2.474-1.2 4.617 2.48 3.792 2.872-1.34 1.857-2.285-3.79-.865 1.22-6.495 2.78-2.434.962-4.6-7.4-7.498 1.21-3.942 4.21-3.216-1.583-5.99 4.776-1.208-.1-.077-.006-1.233.695-1.267-.438-2.882-2.647 5.543-5.226 7.16-.438.067-.005 3.552-2.36zM7.462 134.86l-.706.564-.608-.21.712-.402.6.05zm-1.896.682l1.287.444 1.336-1.065 4.127.34-5.45 1.705-1.453-1.336.153-.088zm3.194-1.076l5.327-4.25 2.795 1.376-2.965 3.166-.33.104-4.826-.396zm8.592-2.643l3.973 1.953 7.168-4.763 3.362 4.74-3.346 1.322H21.31l-6.852-.166 2.892-3.087zm11.268-3.494l-7.333 4.87-3.578-1.76 3.72-3.973 7.002-1.13 4.376 7.04-.474.19-3.714-5.238zm4.453 5.476l2.62 4.216.537-.153-.424.596-3.18-4.483.447-.177zm2.846 3.63l-2.374-3.814 2.358-.927 5.75-2.464-4.96 6.984-.775.223zm6.617-7.583l.407-.175 1.735 3.287-1.775 2.462-5.44 1.564 5.072-7.137zm2 1.77l.504.84-.036.05-.468-.89zm.785 1.305l4.953 8.214 5.337-6.396 1.074 1.76-1.06 2.14-5.237 4.07-5.126-9.71.058-.078zm10.7 6.042l1.074-.836-1.157 1.002.082-.166zm1.457-.506l.082.165-.165.1-2.136 1.773.105-.208 2.114-1.83zm-7.215 9.667l-.07.013-.573.51-6.438-8.255-.198-.01.1-.095 7.237 4.966 3.445-2.866-2.78 5.613-.723.124zm.447.432l-.452.91-.33-.423.49-.44.292-.048zm1.173-5.252l2.504-2.17-.075.15-2.43 2.02zm-1.592 1.322l-.05-.034.053.032-.003.002zm-8.487-3.8l-5.97 5.762-1.535-2.072 1.64-1.454 5.675-2.243.19.007zm-6.092 1.787l-1.705 1.508-4.726-6.374 6.422 2.786 4.695.225-4.686 1.854zm-2.08 1.84l-4.103 3.63-.917-.83-.66.232-3.17-2.82 3.797-7.026 5.053 6.815zm-9.235-.13l-.522-.463 2.786-3.727-2.265 4.19zm-6.09 2.65l1.81 2.424-2.693-.99.884-1.435zm6.128-1.67l2.434 2.565-4.723 1.668 2.288-4.234zm2.736 2.156l.243.217-.028.01-.216-.227zm.67.596l.532.474.3.312-.104.092-.806-.85.078-.028zm.537-.19l.12-.042.654.593-.105.093-.328-.34-.34-.304zm1.147.887l1.745 1.576-.437.04-1.44-1.5.132-.117zm20.03.623l.798 1.025.967-1.952 6.14-1.056 1.36 1.54-1.272.044-7.23 2.888-2.284-1.135 1.52-1.354zm8.096-2.52l-6.056 1.04 3.12-6.3 2.97-2.47.103-.06 4.942 9.734-3.26.11-1.82-2.055zm5.327 2.438l.29.57-1.2 1.995-2.172-2.46 3.082-.104zm.55-.018l.095-.005-.052.087-.042-.082zm.69-.024l.185-.006.182.355.066.13 1.167.053.182.276-1.166 1.786-.997-1.963.38-.632zm2.533.575l3.61.163-2.39 2.16-1.373-2.09.153-.233zm.317-.486l.24-.37 4.708-.496.017.01-1.144 1.03-3.82-.173zm4.924-.148l.058.103-.14.263-.31-.014.392-.353zm.17-1.203l-.063-.028-4.436.467 3.823-5.855.584.67.622-.804 1.788 2.257-1.85 3.505-.467-.213zm2.655-2.865l2.748 3.47-.83 1.467-3.652-1.653 1.733-3.285zm3.082 3.893l1.26 1.593.407.13-.338.45-2.038-.923.708-1.25zm1.558 1.163l-1.292-1.632 1.216-2.147 2.144 1.725-1.64 2.19-.428-.137zm2.458-1.742l4.52 3.64.42.23-.312.133-6.155-1.966 1.528-2.038zm4.797 3.225l-4.5-3.622 4.225-5.638.12.146.165-.204 6.58 6.502.315.584-6.185 2.632-.72-.4zm12.42-7.865l1.798 3.41.3-.108-.308.293-6.82 1.892 5.03-5.487zm2.036 2.792l-1.676-3.184 1.457-1.59.064.06.362-.202 3.708 1.753-2.946 2.81-.967.354zm4.39-2.94l1.59.75-3.883 1.422 2.292-2.174zm.388-.37l2.425-2.3 2.25.632-2.456 2.414-.36.132-1.86-.88zm5.122-1.428l.617 1.033-3.072 1.37 2.455-2.404zm.618.06l1.34.375-.88.394-.46-.77zm6.265 3.518l.63.616-1.097.147.467-.762zm.267-.437l.708-1.157 2.86 1.78-2.577.347-.99-.97zm4.234 1.037l.166.104 1.534 2.35-1.333 1.005-3.154-3.08 2.788-.378zm1.105.628l1.464 1.17-.47.353-.995-1.523zm1.87 1.49l4.435 3.537 2.903 3.24-2.646 1.78-5.293-8.105.6-.45zm4.776 3.176l-4.366-3.483 1.75-1.318 2.327 4.35 7.53-1.48 4.753-7.015 1.197 1.962-6.27 7.65-3.944 2.655-2.977-3.32zm21.547-3.94l.123.025 5.215-4.764-5.176 5.393-.1-.19-.157.262-1.414-1.013 1.51.29zm13.015-1.02l-.226.464-2.95-3.278 3.176 2.814zm.39.345l.973.863 3.82 3.615-.188-.01-3.273-2.19-1.585-1.76.252-.518zm1.31.494l-1.085-.963.984-2.03 6.592 7.13-2.242-.113-4.25-4.025zm9.89 2.43l-1.56 2.32-.777-.397 2.337-1.923zm1.346-1.11l.296-.243-.688.825.392-.583zm2.358-1.943l.683-.562.92 1.486-.873 1.17-1.265-1.45.535-.643zm.958-1.07l-.012-.017 2.783-.84-1.806 2.42-.964-1.562zm-.358-.435l-.954 1.147-.61.503-.106-.122 1.978-2.945 4.795-1.646-1.468 1.965-3.635 1.097zm5.94-3.35l1.393-.478 4.375 4.354-4.27-2.77-3 .903 1.502-2.008zm1.524-1.05l-.995.34.706-.94.23-.045 1.97.298 4.923 6.957-.555-.358-6.28-6.253zm7.68 6.362l-.374.05-4.71-6.657 4.556.688.062.01 5.93-2.125 1.144.283 2.23 3.424-.104.16-1.452-1.386-.444-.938-3.834 3.812-3.003 2.68zm3.355-2.327l3.4-3.038.113.107 1.088 2.292-1.342 2.08-5.44.728 2.183-2.17zm4.526-1.964l.578.55-.183.282-.394-.832zm4.433 5.296l.185.282-.482.228.296-.51zm.28-.485l.117-.2.607.58-.365.173-.36-.553zm1.112.748l.16.15.23.173.356.732-.403.43-.82-1.26.477-.225zm4.302-1.99l.557.197-1.74 3.51-1.358-1.005 2.542-2.702zm1.032.366l2.146.765 3.532.213 1.385 2.23-4.83 3.414-4.04-2.98 1.806-3.643zm51.18-5.51l1.73-.13.855.89-.79 1.247-1.793-2.008zm3.397 1.604l1.71 1.777-2.61-.23.9-1.546zm-.18-.91l1.606-2.533-1.526 2.62-.08-.085zm-.357-.37l-.934-.97-2.347.175-4.91-5.5 2.615-2.605 4.44 1.975.092.04 6.98-2.484-5.936 9.368zm-8.342-6.85l-2.007-.953 2.12-2.273 2.163.96-2.276 2.267zm.03.57l-4.364.976 1.972-2.114 2.39 1.137zm-13.89-6.57l2.81-.49 1.59 2.198-4.4-1.71zm.528-4.497l5.044 3.02-2.54.44-2.504-3.46zm-5.898.45l-2.513-1.89-3.33 3.645-3.947.926-2.832 1.97-.554.097-3.716-1.476-3.618-.355-1.007-1.33 4.628-.562 7.262-5.29 6.492-1.55.484.456 2.41.914 4.317 2.866-4.073 1.576zm-2.555-5.955l.025-.007.47.312-.287-.107-.21-.198zm.12-.544l-.558.135-3.85-3.617 2.457-2.587 1.996-.115.804-.65 6.156 8.166.063.086 7.357.88.036.006 4.185-.734-4.26 4.47-7.097-2.578-4.824-1.818-2.465-1.644zm-1.446-6.6l1.38-1.45.616.82-.69.556-1.306.075zm1.42-2.223l-2.15 2.265-3.412.195 4.255-3.313 1.39.308.4-.518 1.257 1.72-.773.622-.965-1.28zm-.053-3.573l-3.043 1.825-4.067-.886-6.18-4.844 6.018 2.015 7.375 1.55 6.01-5.17-4.628 5.98-1.484-.468zm-20.157-2.352l-1.588-1.737-1.693 2.27-5.465-.548-3.387-1.876 3.357-2.542 7.132 2.24 6.12.234-4.477 1.958zm-8.944.448l5.317.55-2.598 3.485-.644.623-2.082.76-.678.385-5.892-5.578 2.947-2.23 3.63 2.006zm-6.94-.126l-.144-.135-.26.12-4.577-3.484 1.66-1.738 3.005 1.346 3.15 1.746-2.836 2.146zm-3.438-5.837l-.21-.094.362-.066-.152.16zm10.442-2.897l.03.022.024-.013 2.877 1.647-2.78-1.165-1.276-.154 1.124-.338zm.584-.262l6.723-3.482 4.967 2.736-4.927 4.52-.668-.28-6.094-3.494zm12.15-.493l1.71.943.06.032 3.582-.037.278.21-3.89 3.863-6.473-.67 4.733-4.34zm5.52.44l-3.235-2.432 5.604.896-1.54 1.53-.83.007zm1.04.486l2.58-.027 2.757-.672.584.386-3.398 2.506-2.69-2.022.167-.17zm6-.86l.987-.24-.64.472-.348-.232zm2.247-.548l1.61-.394 1.35-.463 5.732 1.31 4.422 1.706-4.365 1.507-7.138-.57-3.065-2.022 1.453-1.073zm1.04-.768l.546-.4.45.103-.566.194-.428.104zm7.798.743l-4.98-1.14 4.925-1.69 7.177 2.538 4.687 1.517-4.604-.05-2.19.758-5.015-1.933zm-.047-7.473l-1.7-.055 1.32-1.103.334.27.4-.18 1.526 1.56-1.88-.493zm.008-2.13l-.394.328-6.377-5.168 6.712-3.714 6.47 6.326-5.952 2.693-.46-.467zM232.96 81.34l-1.353-1.054-4.225 2.135-3.083.356-1.6.794-5.566-1.423-.047-.012-7.27.97-7.28-.956-5.396.584-1.858-.563-1.696.964-5.52.64-6.642-1.255-.498-.283-5.246-.886 3.842-2.828 1.105 1.09.07.068 7.46.168 1.713-1.727 5.472.452 7.234-2.475 7.214 1.72 7.22-.148 7.295 3.997 7.31-2.646 5.98.387-4.634 1.933zm-53.028-3.118l.95-.7 7.157.448 1.183.098-1.265 1.275-7.048-.158-.978-.963zm8.144-.75l-7.346-.46-1.16.855-3.15-3.103 4.348.71.058.01 7.265-2.222 5.48.422-3.886 3.918-1.608-.13zm-20.45-6.35l-1.342-.604-.905.55-1.362-1.083 2.28.08 3.167.055-1.838 1zm-15.89-2.1l-7.18.914-6.817-1.124 6.837-4.127 7.144 2.67 2.26.766-2.244.9zm-21.29 3.65l-.4-.32-.485.41-6.766-2.293-6.25 2.395-.863-.53-1.625-.416-5.59-4.74-.076-.062-6.2.343 6.155-2.924 7.235.897 7.188-.867 7.222 2.688 6.897 1.688-6.44 3.73zm-29.38-5.872l-7.253-4.103-5.632 2.728-1.584-.24-.056-.008-1.202.372-3.718-1.998 5.005.682 7.21-5.25 7.22 3.22 7.264-3.42 6.25 2.077-13.504 5.94zM43.06 62.968l7.207 3.407 7.332-.916 7.177-1.182 7.305 3.27 6.91-4.447.186.12 1.025.14 4.463 2.397-2.303.712-3.06-.538L72 67.742l-2.406 1.625-4.762-1.695-7.286 1.3-7.2-.572-6.605-1.042-.626-.445-.49.104-3.96-1.916 4.395-2.132zm-7.276 1.295l1.73.837-1.73.84-2.878-.825 2.878-.852zm-7.238 2.13h.042l3.43-1.015 3.812 1.096 2.26-1.096 3.734 1.806-6.068 1.28-7.166 4.005-7.213-6.374 7.17.296zm-7.23.32l7.208 6.366 7.372-4.133 6.663-1.407.39.188.58.092 6.697 4.765 5.393.126-2.004 1.423-3.276-1.403-3.362.534-3.906-3.727-6.85 5.436-.478.076-1.587.402-5.595.27-7.186-.17-5.626-3.288 5.566-5.552zm31.82 7.76l-2.806 1.99-2.898-2.764 2.843-.452 2.86 1.225zm-6.78-1.11l-9.128 1.45 5.814-4.612 3.315 3.163zm-32.295-1.505l.876.513-.968.967-1.78-.277 1.873-1.202zm-4.377 2.805l1.87-1.198 2.59.404 1.24-1.24 5.852 3.422 7.333.172 3.155-.153-3.23.822-7.15 1.864-7.223-4.216-4.437.123zm33.47 6.514l-7.312-3-7.314.894-7.166 3.533-6.868-7.267 6.777 3.956 7.348-1.917 5.612-1.426 1.668-.082.533-.423 10.38-1.648 3.474 3.313 3.38-2.41 3.794 1.625.083.034 7.28-2.152 7.175-.36 5.552 3.302-5.447.207-7.37-1.248-5.796 5.27-1.42-1.032-1.107 1.312-6.107-4.51-5.492 4.406-1.656-.38zm1.776.916l5.38 1.233 4.748-.068-2.345 2.774-2.236-2.067-.064-.06-7.045-.562 1.56-1.25zm-16.37 1.96l-3.85.945 3.853-2.022 6.11 2.826-6.112-1.75zm8.495 2.07l5.55-2.374-2.42 3.18-3.13-.807zm3.328 1.373l1.938.5-3.722 1.846 1.785-2.346zm2.65.705l7.13 5.06.06.044 3.654.118-1.92 2.532-1.61-.26-.13-.02-1.155 1.235-5.894-6.02-5.08-.24 4.946-2.45zM35.86 91.05l.28.014-.373.186-.245-.035.338-.165zm-1.146.554l1.06.15.076.012 1.06-.526-1.128 1.484-1.11-1.1.042-.02zM6.71 94.457l-1.88-.332 1.922-.948.562.588-.604.692zm1.28-.708l6.15-7.055 7.1 2.05 7.28 1.977 5.292.752.005.005-5.277 2.548-7.27-2.442-7.313 4.895-2.8.582L7.99 93.75zm3.574 3.736l2.542-.526 7.237-4.822 7.23 2.43 5.62-2.715 1.64 1.626 1.784-2.347 5.33.253 5.772 5.893-.324.346-5.35-3.448-4.926 3.66-2.334-2.598-2.647 3.594-4.606-1.343-4.12 1.957-3.013-4.084-7.485 2.284-1.063 1.188-1.288-1.35zm12.392 2.178l-2.694 1.278-7.09-.73-.973-1.02.995-1.11 7.015-2.142 2.746 3.724zm-11.092-.094l1.074 1.123 7.412.763 2.908-1.382 2.3 3.113-2 2.366-3.147-1.46-6.397-.313-.97-.873-.968 1.01-4.433.877-.29-.182 4.512-5.042zm-5.987 4.71l.706.44-.307.343-.512.103-.55.092.663-.98zm-1.05 1.548l.047-.008.83.372.166.074.668-.746 1.005-.2 1.988 1.243-3.702 3.858-2.17-2.865 1.17-1.727zm-3.792-1.732l3.016 1.355-1.765.296-1.25-1.65zm1.59 2.1l1.522-.254-.81 1.193-.71-.94zm3.167 14.327l-5.552-7.925 1.7-2.508 3.825 2.922 6.055-2.34-6.028 9.85zm6.453-10.544l-6.398 2.467-3.626-2.77 1.142-1.683 2.423 3.197 4.18-4.355 2.986 1.867.06.026-.765 1.25zm.76-.286l.088-.146.107.12-.196.026zm.037-.95l1.568.73-.81.11-.758-.84zm1.157 1.286l1.24-.168 4.85 2.26 5.91-1.887 1.312.23 7.326 1.334 3.48-1.532 3.63 5.633 4.732-1.364-4.65 4.043-7.097-4.16-7.417-1.294-4.298 2.253-3.035.075-.516.65-5.468-6.075zm8.015 5.873l-1.854.974-.354-.396.423-.53 1.785-.047zm-2.524.975l.56.62 3.096-1.622 4.103-.104 6.48 7.054-6.247-3.687-.124-.075-4.315 2.433-2.89-.57-.102-.02-1.97 1.31-1.86-1.224 3.268-4.116zm-6.643 2.49l2.644 1.742-1.918 2.417-.69.036-4.903-1.354 4.867-2.84zm.31 4.684l-.403.507-6.538-1.322 1.16-.676 5.452 1.507.33-.018zm-7.46-1.954l1.004.277-1.147.67-.4-.05-.142-.036.688-.862zm-6.853 8.594l5.788-7.258.436.056.49.123 7.398 1.496.867-1.094 1.687-.087-2.737 1.82-7.273.446L1 131.57l-.956-.878zm.04 2.426l.92-.866 2.062 1.896-2.98-1.03zm1.738 4.536l3.135-1.768 1.665 1.53-4.8.238zm12.404 2.26l-7.246-2.46 6.664-2.087.406.032 7.256.177h7.25l3.59-1.41 3.66 5.16 1.194-1.68 6.126-1.763.083-.023 1.73-2.4 5.285 10.018 4.89-3.8-.153.307-4.68 4.056-6.95-4.18-.302-.207-.13.126-1.378.545-5.66-.26-7.173-3.11-.133-.18-.068.093-.044-.02-.15.28-4.792 6.408-.39-.35-1.85-1.948-1.39 2.252-.734 1.03-4.914-4.606zm-.178 1.35l3.79 5.08-1.254 1.76-2.594-.954-2.083 2.156-2.28-2.542 4.42-5.5zm2.234 7.26l-2.25 3.153-1.79-2 1.88-1.946 2.16.795zM9.31 147.16l2.248 2.508-.308.317-2.004-2.748.063-.077zm-.34-.377l-.03.037-.272-.374.303.338zm-2.045 2.546l-1.608-1.283 1.535-3.24 1.765 2.42-1.692 2.103zm-.483.25l-1.743-.23.398-.844 1.344 1.073zm-3.86-3.717l3.918-1.483-1.585 3.346-2.332-1.864zM.26 149.27l3.693.483-.866 1.83L.26 149.27zm6.526 5.335l-3.3-2.695.99-2.09 2.437.32.14-.176 2.786 1.48-3.054 3.16zm3.412-3.532l-2.83-1.503 1.553-1.93 1.977 2.708-.7.725zm.46.244l.54-.558 1.002 1.374-1.542-.817zm.89-.922l.344-.354 2.186 2.44 1.88-2.636-1.992 3.23-.757-.4-1.66-2.28zm16.99.196l-7.25.532-7.145 2.83-.26-.357.262.14 3.013-4.887 3.507 1.29.674.902.454-.842 5.455-1.928 1.29 1.362.48-.426 1.18 1.23-1.662.155zm7.27 4.972l-4.532-4.726.5-.046 3.924 3.548 1.19.122-1.082 1.102zm7.165-.978l-4.997-.515 4.995-5.083 2.445 3.42-2.442 2.177zm14.456 4.997l-6.98-.993-4.367-6.106 1.552-1.383 2.663 1.322 7.313-2.938 1.642-.056 2.548 2.888-4.37 7.267zm7.4-4.587l-2.414-2.734 1.12-1.863 1.246 2.455 1.52-2.328 1.294 1.973-2.766 2.496zm7.214 3.365l-3.794-5.778 2.825-2.552 1.132.053.134-.253 2.244 4.047-2.54 4.484zm.576-9.06l.232-.44 3.64 1.647-1.62 2.857-2.252-4.064zm13.815 10.852l-6.993 1.46-4.285-7.733 1.792-3.164 2.443 1.105.682-.91 6.498 2.073.84-.356 4.207 2.33-5.185 5.196zm5.55-5.565l-3.993-2.208 5.88-2.504 7.247-2.008 1.232-1.17 5.43-1.988.414.194.104.052 3.644-1.626 2.127 3.567-5.82 1.75-7.25 1.578-4.74 3.522-2.37-.863-.15-.055-1.755 1.76zm1.8.995l-1.346-.743 1.428-1.435 1.91.696-1.994 1.482zm36.178 7.97l-7.02-.865-7.186-10.598-.047-.07-7.458-2.526-7.248 5.98-4.19-1.526 4.345-3.243 7.216-1.57 5.958-1.793 1.214 2.036 1.604-2.622 1.884-.252 3.743 3.654 1.65-1.24 5.55 8.502 3.125-2.104 2.517 2.81-5.66 5.43zm7.426-4.208l-1.076-1.198 1.032-.99 3.188 1.538-3.145.65zm7.065.686l-2.378-1.147 2.57-.53 1.106-.47-1.298 2.148zm1.736-2.873l-1.69.718-3.16.652-4.09-1.975-1.27 1.22-2.46-2.743 3.918-2.64 6.235-7.59.722 1.182 4.675.895 2.328 1.666-5.207 8.615zm5.62-2.38l-4.833 2.048 4.81-7.953 4.253 8.053-4.23-2.15zm.35-6.267l6.822-7.104 5.328 5.91-5.373 11.08-2.127-1.08-4.65-8.806zm14.013 2.495l-7.096 10.603-1.862-3.524 1.95.99 5.506-11.355 1.492 1.653 2.636 1.768-2.625-.135zm8.013 1.873l-.68.815-.656-.438-1.59-1.505 2.164.104.107.117.07-.057.92.467-.334.5zm6.677 2.166l-5.504-2.798 3.844-4.625 1.616 1.853 1.125-1.507 4.31 6.967-5.392.11zm7.282 1.993l-1.002-1.62.89-.018 2.026.517-1.915 1.12zm7.11-.313l-3.894-.99 3.956-2.317 2.453 1.338-2.514 1.97zm2.944-2.307l-2.89-1.576-4.64 2.715-2.55-.648-.032-.01-1.253.025-4.568-7.386 2.328-3.12 3.426-1.032 6.066 3.938 1.228 1.222 1.078-1.072 6.32-.844 1.303-2.016 2.228 4.693-3.83 1.808-4.214 3.302zm4.273 2.332l-3.8-2.072 4-3.14 3.783-1.78.04.085-4.023 6.907zm7.352-1.062l-2.763-5.82.316-.546 1.2-.564 1.03 1.584.174.267.71-.755 1.103 2.264-1.77 3.57zm1.036-6.225l.065-.068 1.48 1.092-.527 1.063-1.017-2.087zm13.28 4.886l-7.006 7.997-4.98-10.23.66-1.327 4.26 3.145 5.1-3.603 2.086 3.362 1.468-1.056-1.587 1.712zm-1.558-4.31l1.75-1.24 3.014 2.056-2.943 2.117-1.82-2.935zm5.123.456l-3.378-2.306-2.01 1.42-1.183-1.903 3.13.188 3.978 2.02-.537.582zm3.84 2.62l-3.328-2.272.77-.554 2.446 1.238.844.82-.732.767zm7.22 4.838l-5.786-5.62 3.27-3.433 2.64.302 1.255-.763 2.2 2.484-3.58 7.03zm7.415-3.448l-3.234-3.654 3.03-5.947.02-.013 4.98 8.717-4.796.898zm7.155 2.226l-1.577-2.762.262-.05 1.203 1.89.693-.142-.58 1.064zm21.6-4.33l-7.1 6.938-7.177-5.562-5.688 1.162-.054-.062 2.597-4.75 3.193-1.72 2.533-1.277 4.53 4.797 7.354-1.944 2.04.254-2.228 2.163zm11.126-3.662l-.014.008-.015-.016.03.008zm-3.69-2.852l1.937 1.87-1.916-.505-1.618.186 1.6-1.552zm-2.188 2.123l2.17-.25 2.69.71.51.493-3.22 1.414-4.07-.507 1.92-1.86zm-5.166.594l4.353-.5-1.742 1.688-2.484-.31-.05-.007-7.157 1.896-4.228-4.475 3.754-1.895.467.354.317-.547 3.414.305 3.356 3.493zm7.216-4.395l.912-.01-.834.38-7.18.345-3.238-.29-2.207-2.295 5.475-9.402.376.388 6.696 10.885zm-3.79-15.447l3.864 2.698 5.955-.776-5.91 1.7-7.27-.867-7.218 2.568-4.174-1.853 2.7-2.688 1.386 1.31 4.703-.962 2.66 1.086 3.197-2.196.11-.02zm-11.696.426l1.167-1.162 3.733 1.524-3.715.76-1.184-1.122zm6.613.522l1.792-.367 2.01-.355-2.082 1.425-1.72-.704zm-5.517-5.105l7.162 1.757 2.86 1.997-2.807.494-2.53.52-4.733-1.934-1.413 1.407-3.635-3.44 5.096-.8zm-7.218-.523l1.04.984-1.127.18-1.004.24 1.09-1.403zm-1.583 2.04l1.593-.39 1.488-.23 3.904 3.695-2.827 2.815-2.666-1.185-2.472 2.65-3.457-1.644 4.437-5.712zm-.778.188l-4.12 5.308-.712-.34-1.49-.577-1.9-2.626 2.87-.5.514.308.286-.467 4.552-1.105zm-4.873.668l-.093.022-.287.05-6.54-3.916-.18-.25-.112-.155-.217.083-2.772-1.84 2.814 1.068 7.406 2.69 3.8-3.99-3.817 6.237zm5.06-8.265l-.34.355-4.776.84-7.11-.85-6.103-8.094.768-.62 5.07 6.93 7.516.44 4.532-6.902 2.534 3.64 5.02-3.71 2.24 1.813 7.235-1.992 6.798 7.105-6.684 3.186-7.23-6.05-5.002 1.203-2.26-.562-.18-.042-2.027 3.31zm3.42-2.454l-1.332.32-.07.018-.374.393.62-1.016 1.156.284zm6.026 5.283l-7.272-2.914-1.685.296 1.786-1.877 2.198-.53 4.824 1.19 5.203 3.605-5.054.23zm.1-4.27l-4.03-1.003 3.825-.92 7.03 5.882-1.043.047-5.78-4.006zm17.296 2.256l-2.998 1.42-7.126 1.293-.715-.494.7-.032 7.294-1.327 2.777-.895.068.035zm-.68-.362l-2.286.736-6.506 1.185 6.375-3.036.213.222.136-.207 2.067 1.1zm-2.238-1.757l-.067.032-7.016-7.332-.103-.106-7.275 2.003-1.94-1.568 1.99-1.47 5.228-1.184 1.88.31.075.013.496-.228 6.77 3.062 3.556-2.89 1.74 1.217-5.332 8.143zm-7.425-9.84l-.464-.077.154-.034.31.11zm3.874-1.17l3.498-.895 3.217 2.248-3.207 2.604-6.093-2.758 2.584-1.198zm8.992.146l1.37.453-1.208 1.847-1.61-1.125 1.448-1.176zm-5.43-1.798l4.866 1.61-1.31 1.063-3.43-2.396-.095-.065-1.105.282 1.074-.495zm-6.218 2.333l-.53.244-.153-.07.683-.175zm-15.585-4.995l7.187 2.894 5.998 2.162-.593.134-5.276-.87-7.26-1.262-.032-.006-5.617.473-1.104-1.587 6.697-1.938zm-7.787 2.234l.58-.15 1.037 1.488-.98.083-1.15-1.095.513-.326zm-6.745 3.68l-1.63-.514 1.782-1.44 5.002-1.31-5.153 3.264zm5.08-3.76l-5.106 1.335-2.157 1.736-3.073-.968 5.323-6.877 5.012 4.773zm2.21-1.756l-7.285-3.92-7.29 6.27-7.105-1.488-7.34-2.458-.145.062-7.058-.264-7.346-2.307-3.74 2.83-3.36-1.862-2.863-1.28.508-.532 2.324-.432 4.82-1.454 2.295.274 6.466 2.71.89.51.174-.16 7.14.75 4.108-4.082 2.898 2.18.148.11 3.845-2.835 3.272 2.16 7.37.618.054.004 5.007-1.738 2.123.82 7.37.596 2.325-.234-9.605 5.152zm10.756-5.77l-3.48.355-7.22-.578-1.538-.594 1.523-.527 6.163.063.977.315.135.044.438-.38 6.23-.426-3.227 1.73zm3.66-.37l-2.354.238 2.47-1.324.462.174.273.23-.852.68zm7.344 4.142l-5.365-4.527 5.287 1.99.09.032 4.353-1.707-4.365 4.212zm7.21-4.845l-.476-.296.535-.21.24.097-.3.408zm.61-.823l-.457-.184-.092-.036-.757.297.832-.804.867.2-.39.526zm-7.768-3.73l6.87 2.717-1.042 1.005-5.737-3.59-.187-.056.096-.078zm-.562.45l.415.126 5.604 3.505-.212.203-5.29 2.074-5.39-2.027 4.872-3.882zm-.58-.18l-4.837 3.855-.583-.22-.574-.485-.078-.064-6.22.424 6.195-5.37 6.096 1.86zm-6.13-2.674l-2.216-2.185 2.204-1.85 2.88 2.003-2.868 2.032zm7.327-4.605l1.197-.187-1.297 1.41-.646-.693.747-.53zm-1.486.472l-2.536 1.795-3.345-2.323-2.533 2.124-4.703-4.634-7.33 6.597-4.354-1.146-1.986-2.026 5.967-2.698.427.417 2.197-1.795 5.136-2.798 6.612.092.535.074 5.914 6.32zm1.405-8.738l5.094 1.115-5.147 5.876-6.572-4.774 6.625-2.217zm-14.462.85l1.305.265-1.282-.175-.074-.047.05-.043zm-.462.377l.264.165 2.82.392-2.75-.038-2.915 1.588 2.58-2.108zm-14.06-4.87l2.976.21-3.035.912-1.444-.34 1.505-.782zm-14.473 2.61l7.185-2.678 4.357 1.027-4.457 2.312-7.18 2.46-5.483-1.62 5.577-1.5zm-.082 3.646l7.363-2.526 5.005-2.596 2.143.505 4.426-1.33 2.738.19 6.494 4.09-4.514 3.686-2.004 1.092-.232.104-6.875-6.723-7.217 3.99-.04-.03-.236.1-7.094-.458-7.19 2.605-7.216-3.954-7.29.15-7.292-1.738-7.27 2.486-4.95-.407 3.89-3.923 1.122.086 2.672-.34 4.542 1.57 3.647-1.04 3.645 1.103 3.473-2.074 3.695.074 5.955 2.582 1.295 1.066.897-.242 6.415 1.9zm-14.534-7.604l4.532 3.735-4.408-1.91-3.058-.07 2.935-1.754zm-7.198 2.156l2.53.052-2.596 1.55-2.69-.814 2.756-.788zm-4.528.772l-2.75.784-3.44-1.19 1.54-.196 1.946.706.792-.683 1.912.58zm-3.567-.74l.788-.103.3.092-.33.284-.758-.273zm7.964-5.943l-6.428 5.546-.653-.197-.052-.018-1.855.24-5.377-1.95-7.265.172-7.218-.912-4.524-1.25 4.463-2.45 7.138 3.62.057.027 7.316-.185 7.305-3.956 7.18.45 6.4.455-6.484.406zm14.637 3.164l-4.043-2.244 3.918 1.052 1.38.8-1.255.392zm7.2 2.477l-4.71-2.73 4.767-1.49 6.212-.852-6.27 5.073zm7.21-5.833l-.19.153-7.07.975-5.244 1.635-1.807-1.048-5.938-1.6-1.32-.733-7.36-.547-7.325-.46-7.263 3.966-7.13.178-7.316-3.712-5.146 2.825-2.132-.588-3.168 1.724-4.045-.07-2.943-.098-4.273-3.405-4.402 1.77-2.803-.948-7.364-2.752-7.267 4.385-7.12-1.742-7.25-2.7-.057-.02-7.248.882-7.03-.88 6.725-2.958.284.095.33-.14 6.853 1.813 7.322 1.68 7.247-2.555 7.26 1.724 7.28-3.132 7.15-.07 7.298 2.93 6.168-2.408 1.08.6 1.1-.548 6.104 2.628 7.312 1.533 7.25-1.92 7.286 1.768 7.29-4.05 7.17-.594 7.26 1.228 7.185.224 7.32 4.34 7.284-3.858 3.41 1.068-3.457.317-7.094 3.138-.207-.043zm14.536 1.21l-7.172.104-6.297-1.122 6.317-2.796 4.608-.423 2.53.79 1.704.355L257.4 66.9l-4.097 1.178zm2.78-2.865l4.17.87-2.26.648-1.91-1.518zm6.386 2.855l-1.834.77-2.165-1.726 2.07-.59 1.93 1.547zm12.656-7.303l7.166.885 1.894 1.033-1.77.012-7.22-1.27-1.077-.397 1.006-.264zm-14.458 2.838l7.212-4.332 4.577 1.68-4.712 1.234-7.183 3.45-5.35-1.113-.975-.773 6.43-.145zm-6.542.693l-.71-.148-1.365-.428.948-.088.234.11.055.024.172-.004.666.533zm-15.274-2.18l7.21-1.737 6.042 2.834-1.29.12-4.65-1.46-.1-.03-7.224 3.823-7.095-4.206 7.107.655zm-21.78-2.692l7.193.084 7.116 1.89-7.01-.217-7.286-1.235-7.286.605-7.27 4.01-7.11-1.726 7.173-4.48 7.222 1.437 2.22-.292 5.04-.075zm21.71-3.1l-7.228 4.05-7.144-2.495-.048-.018-7.322.468-5.072.672-2.106.032-7.348-1.218-.055.034-7.1.224-7.306-3.025-6.033 2.78-1.24-.354-1.356.676-5.82-1.09-5.38-1.08 5.363-2.27 7.23 1.126 7.227-1.894 7.205 2.855 7.353 1.977 7.222-4.385 7.24 4.01 7.288-3.49 7.238 1.923L236.407 54l2.485.362 1.272-.883 4.918 1.515-6.298 1.328zm14.512.677l-5.762-1.784 5.735-.28 1.478 1-1.45 1.064zm-.02-5.51l5.454 1.528-3.555 2.604-1.763-1.194-7.267.358-5.457-1.673 5.44-3.787 7.147 2.165zm-14.467-8.16l.342.19-.315-.002h-.63l.602-.187zm-2.21.69h2.235l1.227.004 5.983 3.31 7.31-1.276 7.206.618 4.11.61-4.107.434-7.213.968-7.197-.28-7.34-2.007-7.258 3.307-7.2-1.81-7.27-.747-7.252-.234-3.885-.177 3.94-1.443 7.207-2.05 7.185.83 7.312 1.508 5.006-1.565zm-48.464-2.89l7.14-.75 7.19 3.29.055.025 7.313-.33 7.242-2.86 7.16 2.968 7.347.55h3.335l-3.35 1.044-7.208-1.483-7.256-.84-.048-.006-7.32 2.083-5.08 1.86-2.074-.094-.05-.002-1.908.65-5.255-.604-7.256-1.536-5.448-1.104 5.47-2.86zm-7.303 2.996l.354.072-.365.19-.25-.158.26-.104zm-79.79-.302l7.258-2 7.22 2.336 7.313-.47 7.247-.94 7.242-.776 7.26-.58 7.2-.846 7.2 2.134 7.36.17 7.183-2.454 5.945 3.734-5.928 2.368-7.172-1.977-.052-.014-7.264 1.053-7.21-.042-7.325-2.584-7.282 4.655-7.187-.716h-7.246l-7.19-.166-7.32-3.854-7.284 4.5-7.188-1.815-6.692.647-.598-.203-.217.124-2.494-1.142 2.737-.008 7.225-3.948h.088l7.17 2.814zm58.02-6.02l-4.706-.163 4.694-.88 4.737 1.056-4.724-.013zm43.502 1.19l-7.195-1.55-.05-.01-7.277 1.396-7.21.598-7.247-2.026-.117.008.108-.016 7.27-.55 7.207-1.122 7.256 1.633 7.246.256 4.455.255-4.445 1.128z"/></g></svg>