<svg xmlns="http://www.w3.org/2000/svg" width="288" height="145" viewBox="0 0 288 145"><g fill="#52E3BA"><path d="M274.566 7.555l-7.207.186-7.312-.543-7.236 1.018-7.193-.035-7.354-.914-7.232.52-7.182.232-7.325-.782-7.263.243-7.23.375-7.268.016-7.248.24-7.222.168-7.256-.292-7.24-.21-7.297-.395-14.478.547-7.268-.08-7.205.155-7.312-.47-7.175.412-7.296-.66-7.263.06-7.233.21-7.262.003-7.24.236L64.323 8l-7.348-.616-7.197.78-7.27-.785-7.223.29-14.515-.236-7.262.09-7.197.258L-.42 7.31V8.31l6.715.468 7.24-.256 7.235-.09 14.528.237 7.177-.295 7.304.793 7.208-.79 7.3.62 14.513-.206 7.23-.236h7.26l7.238-.21 7.202-.065 7.32.66 7.188-.41 7.295.47 7.233-.153 7.277.08 14.454-.548 7.263.396 7.247.21 7.284.292 7.257-.17 7.24-.237 7.277-.015 7.245-.376 7.183-.247 7.324.78 7.27-.23 7.156-.522 7.313.916 7.325.034 7.204-1.008 7.253.537 7.196-.187 7.32.703 6.572-.923v-1.01l-6.593.927M274.575 17.88l-7.216.06-7.31-.523-7.23.228-7.2-.154-7.306-1.733-7.273 1.372-7.26-1.11-7.285 1.68-7.203-.238-7.204-.026-7.324-1.54-7.284 2.08-7.184-.62-7.3-.3-7.187.424-7.22-.542-7.31-1.008-7.253.678-7.282-.885-7.245 1.563-7.232-.956-7.28.958-7.18.462-7.26-1.465-7.234.696-7.297-.598-7.212.91-7.242-1.598-7.348.618-7.187.923-7.257-.95-7.256 1.13-7.222-.758-7.313-.22-7.18.672-7.298-1.452-7.235 2.116-6.69-1.708v1.032l6.707 1.713 7.263-2.123 7.202 1.43 7.26-.684 7.214.22 7.316.768 7.243-1.126 7.244.95 7.294-.937 7.176-.604 7.262 1.602 7.28-.918 7.283.59 7.176-.682 7.242 1.462 7.347-.474 7.183-.945 7.273.962 7.252-1.565 7.22.88 7.247-.678 7.224.995 7.317.546 7.204-.424 7.228.3 7.346.634 7.223-2.064 7.134 1.5 7.34.038 7.318.243 7.226-1.668 7.24 1.107 7.233-1.364 7.15 1.696 7.385.17 7.204-.23 7.297.522 7.27-.06 7.27-.236 6.555-.378v-1l-6.6.38M274.602 26.54l-7.24-1.584-7.328.46-7.268 1.987-14.345-1.384-7.38-1.816-7.283 2.107-7.176-.883-7.322-.542-7.246 1.458-7.276-.75-7.198.66-7.207-.91-7.34-.8-7.228 1.833-7.2-1.512-7.382.382-7.167 1.318-7.18-1.12-7.354-.94-7.285 2.15-7.17.048-7.265-.08-7.224.194-7.193-.204L86 24.772l-7.233 2.67-7.09-2.164-7.414-.028-7.327.247-7.183 1.35-7.222.35-7.182-.056-7.253-2.063-7.323.048-7.314 2.384-7.15-.38-6.73-.447v1.002l6.672.444 7.343.388 7.264-2.394 7.1-.046 7.182 2.044 7.41.073 7.32-.357 7.174-1.35 7.235-.238 7.175.006 7.342 2.242 7.26-2.68 7.095 1.777 7.384.22 7.232-.194 7.255.082 7.25-.048 7.288-2.132 7.13.913 7.337 1.144 7.268-1.343 7.187-.368 7.3 1.533 7.28-1.848 7.15.78 7.308.924 7.21-.672 7.33.766 7.26-1.46 7.162.527 7.357.908 7.22-2.09 7.193 1.763 14.6 1.416 7.295-2.004 7.137-.45 7.27 1.592 7.28-.907 6.587.918v-1.01l-6.58-.917M274.622 35.23l-7.257-1.704-7.41-.62-7.226 4.012-7.063-1.437-7.33-1.652-7.407.608-7.203 1.783-7.1.293-7.156-2.788-7.445-.583-7.252.137-7.304 2.804-7.06-.994-7.445-2.08-7.29 3.924-7.157-.888-7.245 1.012-7.178-1.086-.06-.01-7.24.62-7.266-1.42-7.312-.13-7.215 1.614-7.253.24-7.213.336L93.283 37l-7.154-.13-7.286-2.91-7.337 1.015-7.178.32-7.35-1.8-7.255 3.24-7.183-1.607-7.272 1.2L28 35.322l-7.182.368-7.286-1.63-7.295 1.445-6.66-.282v1l6.737.286 7.205-1.43 7.213 1.616 7.224-.38 7.325 1.024 7.23-1.193 7.318 1.637 7.245-3.238 7.085 1.737.07.016 7.368-.33 7.12-.985 7.125 2.846 7.416.17 7.285.22 7.245-.335 7.34-.25 7.19-1.602 7.104.12 7.317 1.436 7.264-.62 7.264 1.098 7.257-1.013 7.344.91 7.214-3.882 7.122 1.984 7.382 1.044 7.293-2.833L202 34.14l7.18.544 7.28 2.837 7.36-.304 7.27-1.796 7.18-.584 7.19 1.622 7.433 1.514 7.285-4.046 7.033.585 7.328 1.727 7.382-.457 6.504-1.048V33.72l-6.613 1.067M274.63 44.6l-7.34-.738-7.274.472-7.243.728-7.158.517-7.345-2.29-7.29 3.307-7.162-1.175-7.15-.286-7.382-3.54-7.25 3.605-7.18-3.565-7.418 1.387-7.192 3.093-7.077-2.14-7.47-.336-7.18 2.433-7.148-2.425-7.34-1.522-7.255 1.202-7.31-1.44-7.213 3.018-7.242-2.56-7.366 2.885-7.107.99-7.248-1.48-7.184.94-7.238-3.363-7.378.712-7.162.552-7.278-.736-7.305-.346-7.205 1.26-7.2-.193-7.313-1.79-7.317 1.71-7.13.158-7.402-.85L-.42 46.23v1.127l6.794-3.533 7.165.817 7.25-.154 7.237-1.68 7.134 1.745 7.455.204 7.196-1.25 7.168.34 7.34.734 7.26-.553 7.117-.687 7.255 3.372 7.306-.958 7.25 1.482 7.336-1.02 7.187-2.8 7.254 2.563 7.29-3.05 7.187 1.417 7.25-1.2 7.1 1.468 7.41 2.517 7.324-2.484 7.097.305 7.367 2.23 7.368-3.185 7.036-1.315 7.327 3.638 7.256-3.61 7.035 3.374 7.39.333 7.4 1.218 7.218-3.274 7.162 2.23 7.36-.53 7.24-.73 7.173-.472 7.17.72 7.342 2.127 6.64-.36v-1l-6.526.352M274.53 53.725l-7.12.708-7.38-3.394-7.212 4.512-7.153-4.804-7.42 1.394-7.252.825-7.127 2.408-7.292-4.68-7.327 3.675-7.235-2.27-7.36 3.044-6.98.925-7.217-5.64-7.493-.212-7.253.91-7.34 2.5-6.993 2.222-7.246-5.963-7.424 2.255-7.326.93-7.156 2.086-7.2-.803-7.24.69-7.126-.997-7.417-3.212-7.243 4.202-7.206-3.167-7.217 2.887-7.198-4.292-7.436 1.34-7.193 3.57-7.094-2.61-7.25-1.892-7.33-.3-7.353-.704-7.28 2.35-7.18.215-6.682 3.02v1.095l6.814-3.12 7.148-.212 7.29-2.334 7.176.685 7.196.284 7.152 1.865 7.453 2.742 7.38-3.687 6.997-1.26 7.3 4.355 7.288-2.915 7.287 3.203 7.246-4.203 7.017 3.038 7.438 1.06 7.256-.693 7.296.813 7.27-2.125 7.33-.93L143.91 51l7.253 5.968 7.52-2.39 7.202-2.464 7.125-.9 7.088.207 7.29 5.696 7.46-.99 7.21-2.964 7.275 2.283 7.18-3.6 7.217 4.632 7.43-2.523 7.235-.825 7.053-1.324 7.35 4.937 7.304-4.57 7.134 3.282 7.386-.734 7.21-.618 6.59.076v-1l-6.626-.074M274.542 62.05l-7.294-1.647-7.25 3.996-7.083-1.864-7.26-1.56-7.49-1.49-7.196 6.078-6.997-3.21-7.434-2.756-7.347 2.876-7.123.03-7.193-.496-7.426-1.43-7.33 3.883-7.024 1.017-7.272-3.228-7.34 1.66-7.06-.535-7.46-4.458-7.364 6.43-7.11-.635-7.132.446-7.273-3.175-7.225 1.168-7.1-3.82-7.6-.81-7.197 4.245-7.18-2.164-7.405 2.177-7.2 2.288-6.98.73-7.394-6.703-7.48 5.748-6.893 1.097-7.233-6.44-7.466.666-7.38 4.305-6.996 1.212-6.776-3.448v1.122l6.62 3.368 7.413-1.284 7.323-4.29 6.922-.618L35.12 67l7.61-1.212 7.02-5.394 7.107 6.44 7.474-.78 7.34-2.32 7.11-2.09 7.314 2.205 7.293-4.3 6.986.708 7.313 3.934 7.27-1.174 7.223 3.153 7.295-.46 7.46.67 7.14-6.233 7.04 4.207 7.444.565 7.16-1.622 7.234 3.21 7.394-1.07 7.26-3.81 7.14 1.37 7.29.506 7.254-.03 7.256-2.806 7.04 2.61 7.54 3.46 7.313-6.176 7.01 1.393 7.232 1.553 7.45 1.96 7.266-4.005 7.218 1.63 7.346-2.793 6.46-.852v-1.01l-6.65.878"/><path d="M274.542 69.905l-7.206 1.586-7.357-2.02-7.22 4.787-7.108-3.117-7.254.243-7.27-3.187-7.505.8-7.087 4.76-6.977-4.434L202 67.45l-7.305 2.916-7.22-.257-7.327 1.848-7.007 1.862-7.183-5.72-7.405-.347-7.245-.448-7.5-.55-7.055 8.112-7.11-7.497-7.486 3.29-7.17 1.65-7.082-.646-7.473-3.45-7.12 6.48-7.146-7.922-7.63 3.147-7.1 4.066-7.024-1.07-7.458-2.915-7.12 5.277-7.276-7.46-7.28 6.335-7.154-6.236-7.372 3.027-7.27-2.21-7.27 3.586-6.632-1.42v1.023L6.34 73.37l7.23-3.565 7.23 2.2 7.13-2.93 7.345 6.404 7.224-6.287 7.224 7.41 7.38-5.47 6.993 2.736 7.53 1.157 7.345-4.212 6.92-2.85 7.347 8.146 7.373-6.71 6.95 3.208 7.49.714 7.416-1.718 6.93-3.036 7.384 7.786 7.45-8.565 7.004.513 7.26.448 7.09.333 7.323 5.833 7.488-1.99 7.185-1.812 7.288.26 7.203-2.878 7.018 1.714 7.46 4.743 7.425-4.99 6.996-.745 7.236 3.172 7.253-.244 7.397 3.247 7.295-4.838 7.157 1.966 7.305-1.607 7.25.536 6.557-1.167v-1.015l-6.608 1.174"/><path d="M274.584 76.792l-7.318 7.853-7.065-5.38-7.456 1.134-7.12.96-7.25-2.944-7.385.817-7.373.918-7.162 4.903-7.04-1.984-7.375-1.888-7.29 1.777-7.228-.743-7.066.915-7.406-7.345-7.47 6.452-6.87.25-7.256-6.733-7.622.468-7.242 5.813-6.883.108-7.46-6.582-7.364 7.42-7.12-2.32-7.183 2.72-7.18-4.55-7.548.613-7.022 4.947-.06-.054-.1.095-7.14-3.334-7.235 3.362-7.266-3.89-7.115 3.762-7.2-9.278-7.568 2.205-7.186 1.93h-7.176l-7.23-.118-7.356-.41-6.62 2.54v1.07l6.778-2.6 7.162.397 7.258.118h7.25l7.39-1.965 6.926-2.02 7.3 9.406 7.386-3.906 6.94 3.714-7.2 3.217-7.01 4.307-7.272-3.687-7.154 5.104-7.302-7.28-7.31 7.225-6.908-4.785-7.482-1.892-6.75.246v1l6.645-.242 7.092 1.763 7.516 5.207 7.193-7.11 7.197 7.176 7.35-5.243L49.8 94.09l7.432-4.567 6.964-3.107 7.354 6.232 7.245-6.943 7.24 6.43 7.16-6.585 7.123 9.992L107 93.73l-6.705 3.396-6.924 5.99-7.083-10.484-7.78.263-6.87 10.358-.144-.153-.538.698-6.397-.23-7.537-11.733-7.33 11.775-6.946-7.088-7.376-.27-7.54-2.603-6.846 10.075-.286-.257-.26.358-6.897-7.36-7.448 7.37-6.515-.675v1.006l6.882.714 7.05-6.98 6.328 6.75-6.48 8.932-6.802-3.065-6.98-4.734v1.207l6.493 4.397 7.62 3.44 6.844-9.432.303.322.33-.484 6.83 6.12 7.514-5.67 6.976-2.345 7.337 3.752 7.056-5.193 7.346 12.304 7.207-9.383.302.01 6.776 7.273 4.497 1.22-4.378 5.27-7.027-2.87-7.34.698-7.252.224-7.214 2.586-7.366-3.3-7.15 6.562-6.942-6.527-7.644-6.13-7.212 9.12-7.073-7.116-6.833 2.336v1.057l6.563-2.244 7.426 7.473 7.288-9.216 6.828 5.475 7.43 6.99-7.122.63-7.25.506-6.28 2.358-1.07-.394-.122.125-7.085-9.25L.35 129.41l-.775-.635v1.29l.32.263-.32.642v2.246l1.113-2.237 5.625 4.597 6.867-7.108.172.225 1.11-.422 6.307 2.318 7.14-2.52 7.15 6.465 7.633.783 5.16-4.604 1.647 2.19 7.776 1.056 2.147-3.398 4.813 5.45 5.63-5.082 1.69 2.452 1.016-1.706 5.947 10.735 7.753-1.617 7.126-7.146 7.216 2.63 7.257-5.99 6.824 2.313 7.28 10.74 7.714.95 7.17-6.886 7.35 3.55 6.972-11.532.066-.027.03.017 7.19 13.608 7.56-11.295 6.863.328 7.27 3.694 7.31-.146 7.428 1.892 7.4-5.8 6.758-3.185 7.366 15.13 7.742-8.835 7.104-7.684 1-.014 6.168 5.705 1.79-3.35 5.142 5.808 7.247-1.357 7.202 8.422 7.656.608 7.354-5.668 6.854-2.82 6.738 8.365v-1.596l-6.428-7.978-7.606 3.13-7.218 5.54-6.858-.546-7.31-8.546-7.26 1.36-5.01-5.66 4.87-9.103 6.976 10.436 7.366-1.433 7.414 5.47 14.48-13.424 6.582 6.06v-1.357l-6.583-6.063-14.554 13.485-7.103-5.237-7.146 1.39-7.53-11.27-5.483 10.247-1.5-1.695-5.867.072-1.268-1.173-7.373-3.582-.085-.005 7.24-4.694 7.232.742 6.98-3.818 7.435 11.74 7.352-12.135 7.004 6.688 7.436-1.773 7.3.82 6.514-2.582v-1.076l-6.65 2.637-7.225-.813-7.075 1.688-7.513-7.173-7.16 11.82-7.07-11.17-7.53 4.118-7.27-.746-6.99 4.533-4.682-6.805 4.548-2.732 7.31 4.236 7.477-6.666 6.834-3.506 7.242 9.023 7.6-3.473 7.147-3.064 7.19.544 7.26-.295 6.563-2.512v-1.556l-6.554-1.378-7.13.653-7.25-6-7.604.452-6.968 5.172-7.233-10.086-7.52 4.823-7.09-.368-.066-.004-7.26 1.525-7.387-.154-7.01 5.926-6.934-8.462-.113-.14-.828-.163.8-.08 7.045-8.065 7.206 6.7L224 87.18l6.954-.453 7.138 3.335 7.562.608 7.18-3.455 6.988 2.68 7.63 4.29 7.217-9.158 7.102 5.41 6.653-2.873v-1.09l-6.513 2.812-7.42-5.653-7.295 9.26-6.95-3.9-7.457-2.865-7.327 3.525-7.027-.535-7.287-3.406-7.548.49-7.045 6.146-7.302-6.79-7.462 8.546-3.707.365-3.31-.65-.587.134-6.477-6.765-7.354 1.043-7.407-3.62-7.328 6.228-7.22-1.117-7.253 4.896-6.867-.974-7.497-9.082-7.33 8.137-7.014-5.29-7.58-.18-7.31 5.31-6.825 1.85-7.376-10.348-7.33 6.74-6.426-5.71 6.607-4.654 6.943-.563 7.318 4.64 7.32-2.77 7.372 2.4 7.133-7.188 7.044 6.215 7.613-.12 7.262-5.83 6.877-.423 7.245 6.723 7.633-.276L173 77.15l7.098 7.04 7.438-.965 7.28.748 7.216-1.76 7.12 1.822 7.48 2.11 7.35-5.03 7.122-.89 7.127-.788 7.26 2.95 7.395-1 7.046-1.07 7.45 5.673 7.193-7.72 7.046 7.788 6.803-.043v-1l-6.36.04-7.48-8.263zM71.51 91.302l-6.926-5.87 6.944-3.227 6.368 2.973L71.51 91.3zm-7.18 21.12l-7.155-11.984-7.445 5.48-7.163-3.662-7.45 2.505-7.064 5.3-6.32-5.66 6.492-9.556 6.888 2.38 7.197.28 7.556 7.713 7.168-11.514L64 104.547l6.208.225-5.877 7.65zM6.237 134.214l-5.088-4.157 5.22-10.492 6.2 8.097-6.332 6.552zm231.844-7.18l1.44 1.628-1.353 2.53-4.442-4.106 4.355-.053zm-154.01-13.43l1.98.538 2.384-.863 4.853 4.323 7.344-7.076 7.138 3.04 7.217-2.9 6.943 3.897 7.284 10.062-6.803-5.168-7.527.965-7.21 2.062-7.252 1.506-7.185 5.054-6.902-3.63-7.375-5.655 5.112-6.155zm.7-.844l1.31-1.576 1.506 1.34-1.58.572-1.235-.336zm4.733.133l3.886-1.408 6.36-1.496-6.49 6.25-3.757-3.347zm47.525-8.625l1.446-1.697 5.5 2.84 7.332-2.277 6.983 1.093 7.14 6.737 7.683 4.397 7.423-7.594 6.926-1.776 7.364 4.062 7.2-5.468 6.997 5.675 5.176 3.247-3.04 5.526-2.088-.71-1.036 1.692-5.856-11.127-7.396 6.635-7.132-6.403-7.68 2.376-7.03 9.452-6.856-5.858-7.59-6.066-7.282 6.842-7.277-4.698-7.488 8.24-6.793 4.127-6.982-9.644-7.618-4.33-7.277 2.927-6.817-2.904 6.936-5.623 6.893 1.645 7.44 6.177 7.588-4.856 2.6-1.935 4.608-.722zm-2.89-.56l2.678-1.994.746.386-1.054 1.237-2.37.37zm76.533 16.215l-1.37 2.494-.723-1.37.93-1.52 1.164.396zm-168.31 14.35l-6.87-.707-7.35-6.644-7.36 2.6-4.887-1.796 4.99-1.892 7.188-.5 7.302-.65 6.944-1.354 4.94 6.576-4.897 4.367zm14.417-1.397l-6.725-.912-1.445-1.925 1.396-1.246 6.834-1.173 1.9 2.153-1.96 3.103zm7.542 1.71l-4.337-4.912 4.314-6.83 5 7.25-4.978 4.493zm7.18-3.06l-.88-1.277.778-.705.617 1.113-.516.867zm.162-3.568l-1.617 1.46-5.784-8.39-4.967 7.864-2.075-2.353-7.667 1.314-1.546 1.38-5.265-7.01-7.24 1.415 7.122-6.536 7.134 3.195 7.366-2.668 7.204-.222 7.128-.678 7.11 2.904-5.958 10.02-.944-1.698zm72.166 11.694l-7.155-3.453-7.327 7.036-6.79-.838-7.215-10.643-7.67-2.602-7.244 5.98-7.28-2.652-7.364 7.388-6.74 1.406-5.872-10.602 5.757-9.68 6.87 5.26 7.52 3.962 7.412-5.268 7.184-1.492 7.172-2.058 7.046-.897 7.026 5.33 7.438 7.9 7.614-1.506 5.433-2.188-5.815 9.616zm50.84-3.254l-7.082-1.803-7.195.145-7.14-3.63-7.736-.415-6.94 10.37-5.772-10.925 5.943 2.873 7.154-14.05 7.08 7.29 7.175-5.63 7.21 11.097 7.427-4.142 6.704 3.48-6.83 5.34zm7.184-6.276l-7.078-3.677-7.08 3.947-7.297-11.23-7.326 5.748-7.425-7.647-7.348 14.424-6.283-3.04-.715-1.353-.8 1.32-6.577 2.658-6.98 1.373-7.12-7.557-.36-.27 7.564-4.595 7.077-7.76 7.223 4.662 7.22-6.78 6.898 5.513 7.66 6.543 7.474-10.046 6.825-2.112 7.377 6.625 7.108-6.377 5.537 10.52-5.575 9.112zm28.914-4.41l.438.404-.374.005-7.406 8.01-6.76 7.714-7.14-14.666-6.6 3.11 5.047-8.248 1.31 2.487 2.354-4.278 4.75 1.61 7.287.43 7.096 3.422zm-7.243-4.398l-6.885-.42-4.518-1.533 2.926-5.32 1.49.937 1.86-1.117 5.127 7.454zm-7.994-8.15l1.06-1.932 1.238 1.8-1.28.77-1.02-.64zm-20.94-17.34l3.445-.34 3.727.735 7.463 9.108 7.498-6.34 7.123.15 7.242-1.522 7.35.38 6.988-4.483 7.272 10.14 7.545-5.6 6.91-.41 7.265 6.01 7.393-.677 5.716 1.2-5.79 2.237-7.118.292-7.378-.562-7.382 3.166-6.9 3.153-7.266-9.053-7.617 3.904-7.088 6.3-7.192-4.17-5.106 3.07-2.19-3.19-1.814 3.3-5.076-3.184-7.56-6.133-7.307 5.55-7.144-3.94-7.58 1.944-7.08 7.24-6.865-3.912-7.32-6.91-7.52-1.176-7.166 2.226-4.93-2.546 5.077-5.963 6.97 1.2.096.016 7.217-1.555 7.125 2.23.077.023 7.135-.127 7.47 6.813 7.485-7.98 6.067-1.39.73.774zm-79.412-7.585l6.918.164 7.49 5.646 7.166-7.953 7.006 8.485 7.633 1.082 7.25-4.894 7.28 1.13 7.18-6.104 7.094 3.47 7.152-1.014 5.705 5.96-5.782 1.325-7.02 7.48-7.033-6.418-7.37.132-7.3-2.28-7.286 1.567-7.436-1.28-5.597 6.572-1.507-.778-4.7 3.5-2.263.354-7.46-11.104-7.272 9.46-7.002-9.348 7.155-5.157zm-7.553 6.296l7.39 9.866L122.243 95l7.042 10.478 1.018-.16-1.05.783-6.944 4.442-7.057-5.857-7.6-1.813-7.353 5.962-7.192 1.695-4.448 1.608-2.682-2.39-2.263 2.724-4.66-1.264-6.713-7.204 6.717-10.128 6.713-.23 7.407 10.962 7.627-6.62 6.82-3.452z"/></g></svg>