<svg xmlns="http://www.w3.org/2000/svg" width="215.35" height="26.064" viewBox="0 0 215.35 26.064"><g fill="#FFF"><path d="M0 6.264C0 5.232.18 4.32.54 3.528c.36-.792.834-1.445 1.422-1.962C2.55 1.05 3.21.66 3.942.396 4.674.132 5.412 0 6.156 0 6.9 0 7.636.132 8.37.396c.732.265 1.392.654 1.98 1.17.588.517 1.062 1.17 1.422 1.962.36.792.54 1.704.54 2.736V7.56H8.64V6.264c0-.888-.246-1.542-.738-1.962-.492-.42-1.074-.63-1.746-.63-.672 0-1.254.21-1.746.63-.492.42-.738 1.074-.738 1.962V19.8c0 .888.246 1.542.738 1.962.492.42 1.074.63 1.746.63.672 0 1.254-.21 1.746-.63.492-.42.738-1.074.738-1.962v-4.824H5.724v-3.24h6.588V19.8c0 1.056-.18 1.974-.54 2.754-.36.78-.834 1.43-1.422 1.944-.588.516-1.248.906-1.98 1.17-.732.264-1.47.396-2.214.396s-1.482-.132-2.214-.396-1.392-.654-1.98-1.17C1.374 23.983.9 23.334.54 22.554.18 21.774 0 20.856 0 19.8V6.264zM18.972.216h5.904c4.32 0 6.48 2.508 6.48 7.524 0 1.488-.234 2.766-.702 3.834-.468 1.068-1.29 1.926-2.466 2.574l3.96 11.7H28.26l-3.42-10.944h-2.196v10.944h-3.672V.216zm3.672 11.448h2.088c.648 0 1.164-.09 1.548-.27.383-.18.678-.438.882-.774.204-.336.342-.75.414-1.242.072-.49.108-1.062.108-1.71s-.036-1.218-.108-1.71c-.072-.492-.222-.912-.45-1.26s-.546-.606-.954-.774c-.41-.168-.95-.252-1.62-.252h-1.908v7.992zM37.368.216h10.944v3.456H41.04v7.524h6.336v3.456H41.04v7.524h7.272v3.672H37.368V.216zM58.355.216h3.06l5.724 25.632h-3.673l-1.08-5.508h-5.004l-1.08 5.508H52.63L58.356.216zm1.548 7.38h-.072l-1.8 9.288h3.673l-1.8-9.288zM73.332 3.672h-4.248V.216h12.168v3.456h-4.248v22.176h-3.672V3.672zM108.43 20.124c0 .793-.15 1.55-.45 2.27-.3.72-.714 1.35-1.242 1.89-.528.54-1.146.972-1.854 1.296-.708.324-1.47.485-2.286.485-.696 0-1.404-.097-2.124-.288-.72-.19-1.368-.52-1.944-.99-.576-.467-1.05-1.085-1.422-1.854-.372-.768-.558-1.74-.558-2.916V5.904c0-.84.144-1.62.432-2.34.288-.72.696-1.344 1.224-1.872S99.364.75 100.096.45c.732-.3 1.542-.45 2.43-.45.84 0 1.62.15 2.34.45.72.3 1.344.72 1.872 1.26.527.54.94 1.188 1.242 1.944.3.756.45 1.578.45 2.466v1.44h-3.672V6.336c0-.72-.205-1.344-.612-1.872-.408-.528-.96-.792-1.656-.792-.913 0-1.52.282-1.818.846-.3.564-.45 1.278-.45 2.142v13.104c0 .744.162 1.368.486 1.872.324.504.906.756 1.746.756.24 0 .498-.042.774-.126.276-.084.528-.222.756-.414.228-.19.414-.455.558-.792.144-.336.216-.756.216-1.26v-1.26h3.672v1.584zM118.546.216h3.06l5.725 25.632h-3.67l-1.08-5.508h-5.005l-1.08 5.508h-3.672L118.546.216zm1.548 7.38h-.072l-1.8 9.288h3.673l-1.8-9.288zM144.07 7.596h-3.672v-.828c0-.84-.2-1.566-.595-2.178-.396-.612-1.062-.918-1.997-.918-.505 0-.92.096-1.242.288-.324.192-.576.438-.756.738-.18.3-.307.648-.38 1.044s-.106.81-.106 1.242c0 .504.018.93.054 1.278.036.348.126.648.27.9.145.252.355.474.63.666.276.192.654.384 1.135.576l2.81 1.116c.814.312 1.475.68 1.978 1.098.505.42.895.913 1.17 1.476.276.564.463 1.212.56 1.943.095.732.144 1.566.144 2.502 0 1.08-.108 2.082-.324 3.006-.217.924-.57 1.716-1.062 2.376s-1.146 1.182-1.962 1.566c-.815.383-1.812.575-2.987.575-.89 0-1.717-.156-2.484-.468-.77-.312-1.428-.738-1.98-1.277-.552-.54-.99-1.183-1.313-1.927-.324-.742-.486-1.547-.486-2.41v-1.37h3.673v1.153c0 .672.197 1.277.594 1.818.397.54 1.063.81 2 .81.622 0 1.108-.09 1.456-.27.348-.18.612-.432.793-.756.18-.324.292-.725.34-1.205.048-.48.073-1.01.073-1.585 0-.672-.025-1.225-.072-1.656-.048-.433-.15-.78-.306-1.046-.156-.263-.372-.48-.647-.647-.276-.167-.643-.348-1.1-.54l-2.626-1.08c-1.583-.648-2.645-1.505-3.186-2.574-.54-1.068-.81-2.406-.81-4.014 0-.96.13-1.873.396-2.737.264-.864.653-1.607 1.17-2.232.517-.623 1.17-1.12 1.962-1.493.788-.37 1.712-.557 2.767-.557.91 0 1.745.168 2.502.504.756.336 1.403.78 1.944 1.332.54.553.953 1.17 1.24 1.854.29.684.434 1.386.434 2.106v1.8zM161.89 20.124c0 .793-.15 1.55-.45 2.27-.3.72-.715 1.35-1.242 1.89-.527.54-1.146.972-1.854 1.296-.71.324-1.47.485-2.286.485-.696 0-1.404-.097-2.124-.288-.72-.19-1.368-.52-1.943-.99-.575-.467-1.05-1.085-1.422-1.854-.372-.768-.558-1.74-.558-2.916V5.904c0-.84.144-1.62.432-2.34.288-.72.695-1.344 1.225-1.872.527-.528 1.157-.942 1.89-1.242.73-.3 1.542-.45 2.43-.45.84 0 1.62.15 2.34.45.72.3 1.345.72 1.872 1.26s.94 1.188 1.24 1.944c.3.756.45 1.578.45 2.466v1.44h-3.67V6.336c0-.72-.205-1.344-.613-1.872s-.96-.792-1.656-.792c-.91 0-1.517.282-1.817.846-.3.564-.45 1.278-.45 2.142v13.104c0 .744.163 1.368.487 1.872s.905.756 1.746.756c.24 0 .497-.042.773-.126.274-.084.526-.222.755-.414.23-.19.414-.455.56-.792.143-.336.215-.756.215-1.26v-1.26h3.672v1.584zM172.006.216h3.06l5.724 25.632h-3.672l-1.08-5.508h-5.004l-1.08 5.508h-3.672L172.006.216zm1.548 7.38h-.072l-1.8 9.288h3.672l-1.8-9.288zM186.01.216h5.436c2.088 0 3.684.582 4.79 1.746 1.103 1.165 1.654 2.79 1.654 4.878v11.988c0 2.4-.582 4.17-1.746 5.31s-2.84 1.71-5.022 1.71h-5.11V.216zm3.672 22.176h1.69c1.033 0 1.766-.258 2.198-.774.432-.516.647-1.325.647-2.43V6.84c0-1.008-.204-1.788-.612-2.34-.408-.552-1.152-.828-2.232-.828h-1.69v18.72zM204.405.216h10.944v3.456h-7.273v7.524h6.336v3.456h-6.336v7.524h7.272v3.672h-10.945V.216z"/></g></svg>