<svg xmlns="http://www.w3.org/2000/svg" width="177.117" height="26.063" viewBox="0 0 177.117 26.063"><g fill="#FFF"><path d="M0 6.264C0 5.232.18 4.32.54 3.528c.36-.792.834-1.445 1.422-1.962C2.55 1.05 3.21.66 3.942.396 4.674.132 5.412 0 6.156 0 6.9 0 7.636.132 8.37.396c.732.265 1.392.654 1.98 1.17.588.517 1.062 1.17 1.422 1.962.36.792.54 1.704.54 2.736V7.56H8.64V6.264c0-.888-.246-1.542-.738-1.962-.492-.42-1.074-.63-1.746-.63-.672 0-1.254.21-1.746.63-.492.42-.738 1.074-.738 1.962V19.8c0 .89.246 1.543.738 1.963.492.42 1.074.63 1.746.63.672 0 1.254-.21 1.746-.63.492-.42.738-1.074.738-1.963v-4.824H5.724v-3.24h6.588V19.8c0 1.057-.18 1.975-.54 2.754-.36.78-.834 1.43-1.422 1.944-.588.517-1.248.906-1.98 1.17-.732.265-1.47.396-2.214.396s-1.482-.13-2.214-.396c-.732-.264-1.392-.653-1.98-1.17C1.374 23.982.9 23.335.54 22.554.18 21.774 0 20.856 0 19.8V6.264zM15.66.216h5.904c4.32 0 6.48 2.508 6.48 7.524 0 1.488-.234 2.766-.702 3.834-.468 1.068-1.29 1.926-2.466 2.574l3.96 11.7h-3.888l-3.42-10.943h-2.196V25.85H15.66V.215zm3.672 11.448h2.088c.648 0 1.164-.09 1.548-.27.383-.18.678-.438.882-.774.204-.336.342-.75.414-1.242.072-.49.108-1.062.108-1.71s-.036-1.218-.108-1.71c-.072-.492-.222-.912-.45-1.26s-.546-.606-.954-.774c-.41-.168-.95-.252-1.62-.252h-1.908v7.992zM30.815.216H41.76v3.456h-7.273v7.524h6.336v3.456h-6.336v7.524h7.272v3.672H30.814V.216zM48.743.216h3.06l5.724 25.632h-3.672l-1.08-5.508H47.77l-1.08 5.508h-3.67L48.742.216zm1.55 7.38h-.073l-1.8 9.288h3.672l-1.8-9.288zM61.2 3.672h-4.25V.216h12.17v3.456h-4.25v22.176H61.2V3.672zM89.818 20.124c0 .792-.15 1.55-.45 2.268-.3.72-.714 1.35-1.242 1.89-.528.54-1.146.973-1.854 1.297-.708.323-1.47.484-2.286.484-.696 0-1.404-.096-2.124-.287-.72-.19-1.368-.522-1.944-.99-.576-.468-1.05-1.086-1.422-1.854s-.558-1.74-.558-2.916V5.904c0-.84.144-1.62.432-2.34.288-.72.696-1.344 1.224-1.872S80.752.75 81.484.45c.732-.3 1.542-.45 2.43-.45.84 0 1.62.15 2.34.45.72.3 1.344.72 1.872 1.26.527.54.94 1.188 1.242 1.944.3.756.45 1.578.45 2.466v1.44h-3.672V6.336c0-.72-.205-1.344-.612-1.872-.408-.528-.96-.792-1.656-.792-.913 0-1.52.282-1.818.846-.3.564-.45 1.278-.45 2.142v13.104c0 .744.162 1.367.486 1.87.324.505.906.757 1.746.757.24 0 .498-.04.774-.124.276-.084.528-.223.756-.414.228-.192.414-.456.558-.793.144-.337.216-.757.216-1.26v-1.26h3.672v1.584zM96.693.216h3.06l5.726 25.632h-3.673l-1.08-5.508h-5.004l-1.08 5.508H90.97L96.693.216zm1.55 7.38h-.073l-1.8 9.288h3.672l-1.8-9.288zM118.87 7.596h-3.672v-.828c0-.84-.198-1.566-.595-2.178-.396-.612-1.062-.918-1.997-.918-.505 0-.92.096-1.242.288-.324.192-.576.438-.756.738-.18.3-.306.648-.378 1.044s-.108.81-.108 1.242c0 .504.02.93.054 1.278.037.348.127.648.27.9s.355.474.63.666c.276.192.655.384 1.136.576l2.807 1.116c.815.312 1.476.68 1.98 1.098.503.42.894.913 1.17 1.476.274.564.46 1.212.558 1.944.096.732.144 1.566.144 2.502 0 1.08-.108 2.082-.323 3.006-.218.924-.57 1.717-1.063 2.377s-1.146 1.182-1.963 1.565c-.815.384-1.812.575-2.987.575-.888 0-1.716-.156-2.483-.467-.77-.312-1.43-.738-1.98-1.278-.553-.54-.99-1.183-1.314-1.927-.324-.742-.486-1.546-.486-2.41V18.61h3.673v1.152c0 .672.198 1.277.594 1.817s1.063.81 2 .81c.623 0 1.11-.09 1.457-.27s.61-.43.792-.755.293-.726.34-1.206c.05-.48.073-1.01.073-1.585 0-.672-.024-1.224-.072-1.656-.047-.433-.148-.78-.305-1.045-.156-.264-.373-.48-.648-.648-.275-.167-.643-.348-1.098-.54l-2.63-1.08c-1.583-.648-2.645-1.505-3.186-2.574-.54-1.068-.81-2.406-.81-4.014 0-.96.132-1.873.396-2.737.264-.864.654-1.607 1.17-2.232.517-.623 1.17-1.12 1.963-1.493.787-.37 1.71-.557 2.767-.557.912 0 1.746.168 2.502.504.756.336 1.404.78 1.944 1.332.54.553.954 1.17 1.24 1.854.29.684.434 1.386.434 2.106v1.8zM133.45 20.124c0 .792-.15 1.55-.45 2.268-.3.72-.715 1.35-1.242 1.89-.528.54-1.146.973-1.854 1.297-.71.323-1.47.484-2.287.484-.695 0-1.404-.096-2.123-.287-.72-.19-1.37-.522-1.944-.99-.576-.468-1.05-1.086-1.423-1.854-.37-.768-.557-1.74-.557-2.916V5.904c0-.84.143-1.62.432-2.34.287-.72.695-1.344 1.224-1.872s1.157-.942 1.89-1.242c.732-.3 1.542-.45 2.43-.45.84 0 1.62.15 2.34.45.72.3 1.345.72 1.873 1.26.526.54.94 1.188 1.24 1.944.3.756.45 1.578.45 2.466v1.44h-3.672V6.336c0-.72-.204-1.344-.61-1.872-.41-.528-.962-.792-1.657-.792-.91 0-1.518.282-1.817.846-.3.564-.45 1.278-.45 2.142v13.104c0 .744.163 1.367.486 1.87.323.505.904.757 1.745.757.24 0 .497-.04.774-.124.274-.084.526-.223.755-.414.228-.192.414-.456.558-.793.144-.337.216-.757.216-1.26v-1.26h3.67v1.584zM140.326.216h3.06l5.724 25.632h-3.672l-1.08-5.508h-5.004l-1.08 5.508h-3.672L140.326.216zm1.548 7.38h-.072l-1.8 9.288h3.672l-1.8-9.288zM151.018.216h5.436c2.088 0 3.684.582 4.79 1.746 1.103 1.165 1.654 2.79 1.654 4.878v11.988c0 2.4-.582 4.17-1.746 5.31-1.164 1.14-2.84 1.71-5.022 1.71h-5.11V.217zm3.67 22.176h1.692c1.032 0 1.765-.258 2.197-.773.432-.517.647-1.327.647-2.43V6.84c0-1.008-.204-1.788-.612-2.34-.408-.552-1.152-.828-2.232-.828h-1.69v18.72zM166.174.216h10.943v3.456h-7.27v7.524h6.335v3.456h-6.336v7.524h7.27v3.672h-10.942V.216z"/></g></svg>