<svg xmlns="http://www.w3.org/2000/svg" width="129.146" height="68.201" viewBox="0 0 129.146 68.201"><g fill="#FFF"><path d="M28.04 14.125h7.1v1.127c0 5.647-.495 9.46-1.484 11.438-.977 2.03-2.805 3.043-5.484 3.043-2.768 0-4.74-1.127-5.917-3.38-1.165-2.255-1.747-6.043-1.747-11.365 0-6.085.64-10.136 1.916-12.152C23.624.946 25.472 0 27.964 0c1.903 0 3.388.458 4.45 1.372 1.078.927 1.917 2.448 2.52 4.564l-3.646 1.52c-.163-.763-.344-1.405-.544-1.924-.2-.52-.42-.923-.658-1.21-.476-.59-1.188-.884-2.14-.884-1.303 0-2.192.8-2.668 2.404-.477 1.678-.714 4.69-.714 9.034 0 4.396.244 7.37.73 8.922.49 1.553 1.41 2.33 2.763 2.33 1.24 0 2.11-.552 2.61-1.654.514-1.177.77-3.068.77-5.672v-1.37h-3.4l.002-3.307zM42.874.376h5.146c2.128 0 3.712.507 4.752 1.52 1.313 1.315 1.972 3.325 1.972 6.03 0 2.08-.348 3.747-1.042 5.005-.694 1.26-1.688 2.04-2.977 2.34l5.334 14.105h-3.964l-5.315-14.2v14.2h-3.906v-29zm3.906 12.847c1.515 0 2.585-.35 3.212-1.052.626-.7.94-1.883.94-3.55 0-.9-.067-1.67-.198-2.31s-.338-1.158-.62-1.56-.645-.694-1.09-.882c-.444-.188-.974-.282-1.586-.282h-.658v9.637zM62.93.376h10.387v3.306h-6.48v9.185h5.748v3.306h-5.748v9.898h6.48v3.307H62.93v-29zM84.883.376h3.043l6.22 29h-3.87l-1.09-5.654h-5.748l-1.107 5.654h-3.757l6.31-29zM88.62 20.7l-.863-4.622c-.575-3.143-1.046-6.5-1.407-10.067-.177 1.742-.4 3.504-.678 5.288-.274 1.785-.6 3.68-.977 5.682l-.714 3.72h4.64zM97.35.376h12.718v3.418h-4.377v25.582h-3.83V3.794h-4.51V.376zM11.965 39.313v3.512c-1.002-.488-1.84-.732-2.517-.732-.927 0-1.722.23-2.385.686-.664.456-1.21 1.16-1.645 2.112-.433.95-.75 2.157-.958 3.615-.207 1.46-.31 3.184-.31 5.176 0 7.162 1.834 10.743 5.503 10.743.64 0 1.41-.2 2.31-.6v3.586c-.937.526-1.99.79-3.154.79C2.936 68.2 0 63.404 0 53.81c0-5.184.717-9.04 2.15-11.57 1.435-2.528 3.63-3.793 6.584-3.793 1.09 0 2.166.287 3.23.863zM24.3 38.843h3.045l6.217 29h-3.87l-1.09-5.652h-5.747l-1.108 5.654H17.99l6.31-29zm3.74 20.324l-.865-4.62c-.575-3.144-1.046-6.5-1.408-10.067-.177 1.74-.4 3.502-.677 5.287-.274 1.783-.6 3.678-.977 5.683l-.713 3.717h4.64zM49.373 39.444v3.812c-1.188-.852-2.26-1.277-3.212-1.277-1.026 0-1.865.362-2.516 1.09-.65.687-.978 1.607-.978 2.76 0 1.015.232 1.886.695 2.61.24.39.63.89 1.175 1.504.544.613 1.25 1.352 2.113 2.217 1.59 1.616 2.673 3.013 3.25 4.19.576 1.14.864 2.535.864 4.188 0 2.24-.634 4.088-1.897 5.54-1.265 1.415-2.887 2.123-4.865 2.123-1.666 0-3.087-.456-4.264-1.37v-3.87c1.39 1.016 2.654 1.52 3.794 1.52 1.064 0 1.897-.353 2.498-1.06s.9-1.67.9-2.884c0-1.054-.23-1.998-.694-2.836-.238-.4-.57-.86-.996-1.382-.426-.52-.958-1.1-1.596-1.737-.99-.977-1.81-1.84-2.46-2.59-.652-.752-1.135-1.41-1.447-1.973-.602-1.104-.902-2.492-.902-4.17 0-2.268.588-4.063 1.767-5.392 1.188-1.34 2.786-2.01 4.79-2.01 1.39.004 2.718.336 3.983 1zM69.28 39.313v3.512c-1.003-.488-1.842-.732-2.518-.732-.928 0-1.723.23-2.386.686-.664.456-1.21 1.16-1.644 2.112-.434.95-.75 2.157-.958 3.615-.207 1.46-.31 3.184-.31 5.176 0 7.162 1.833 10.743 5.502 10.743.64 0 1.41-.2 2.312-.6v3.586c-.94.526-1.99.79-3.156.79-5.873 0-8.81-4.797-8.81-14.39 0-5.184.718-9.04 2.15-11.57 1.436-2.528 3.63-3.793 6.584-3.793 1.09 0 2.168.287 3.233.863zM81.614 38.843h3.043l6.218 29h-3.87l-1.09-5.652H80.17l-1.108 5.654h-3.757l6.31-29zm3.74 20.324l-.864-4.62c-.576-3.144-1.047-6.5-1.41-10.067-.175 1.74-.4 3.502-.676 5.287-.276 1.783-.6 3.678-.978 5.683l-.713 3.72 4.64-.003zM97.013 38.843h4.81c1.464 0 2.697.163 3.7.488.926.313 1.752.87 2.478 1.672 1.09 1.203 1.866 2.77 2.33 4.696.463 1.865.694 4.54.694 8.02 0 3.194-.256 5.8-.77 7.814-.502 1.93-1.33 3.398-2.48 4.414-1.415 1.265-3.95 1.896-7.606 1.896h-3.155v-29zm3.907 25.582c2.38 0 3.97-.72 4.77-2.16.827-1.438 1.24-4.238 1.24-8.396 0-4.473-.395-7.546-1.184-9.225-.79-1.678-2.234-2.518-4.34-2.518h-.487v22.298zM118.76 38.843h10.388v3.307h-6.48v9.185h5.748v3.306h-5.747v9.9h6.478v3.306H118.76V38.843z"/></g></svg>