<svg xmlns="http://www.w3.org/2000/svg" width="281.382" height="22.686" viewBox="0 0 281.382 22.686"><g fill="#FFF"><path d="M11.945 10.35H22.1c-.163 5.47-2.278 8.17-3.353 9.276-2.473 2.57-5.305 3.06-8.006 3.06-2.766 0-5.662-.65-7.973-3.06C.52 17.282 0 14.42 0 12.106c0-4.1 1.498-6.898 3.255-8.754C5.99.488 9.08 0 12.14 0c1.953 0 4.166.326 6.12 1.595 1.43.944 2.7 2.474 3.514 3.906l-4.622 2.44c-.39-.878-1.106-1.853-2.018-2.473-1.14-.78-2.376-.91-3.32-.91-1.758 0-3.222.422-4.557 1.822-1.432 1.496-2.116 3.644-2.116 5.53 0 1.66.62 3.517 1.79 4.655 1.368 1.367 3.126 1.562 4.46 1.562 1.01 0 2.376-.195 3.45-.977.78-.553 1.53-1.562 1.855-2.8h-5.24l.49-4zM37.366.488c2.083 0 4.133.195 5.76 1.953.75.782 1.563 2.182 1.563 4.427 0 2.05-.717 3.68-1.792 4.752-.944.91-2.246 1.53-3.45 1.757l5.598 8.82h-5.858l-5.24-8.56-1.042 8.56h-5.012l2.67-21.71h6.802zM34.34 10.35h1.236c.813 0 2.05-.097 2.93-.78s1.105-1.628 1.105-2.54c0-.683-.162-1.56-1.04-2.114-.652-.423-1.596-.52-2.735-.52h-.75l-.746 5.955zM65.032 4.72h-7.095l-.52 4.198h6.834l-.52 4.23h-6.835l-.586 4.817h7.225l-.52 4.23H50.906L53.577.488h11.976l-.52 4.233zM83.943 18.097H75.74l-2.05 4.1h-5.403L79.744.488h4.622l5.826 21.71H85.05l-1.107-4.1zm-.91-3.84l-1.76-7.65-3.644 7.65h5.402zM104.253 4.72l-2.148 17.478h-5.013l2.15-17.478h-4.72l.52-4.23h14.452l-.52 4.23h-4.72zM139.73 21.514c-.716.358-2.474 1.172-5.272 1.172-4.1 0-6.477-1.758-7.648-2.896-1.4-1.4-2.93-3.743-2.93-7.52s1.432-6.866 3.45-8.885C129.153 1.562 132.05 0 136.02 0c3.353 0 5.37 1.106 6.15 1.562l-.617 5.305c-.88-.878-2.54-2.18-5.436-2.18-2.083 0-3.775.553-5.142 2.05-1.334 1.433-1.953 3.385-1.953 5.11 0 1.822.716 3.482 1.692 4.46.977.975 2.604 1.69 4.59 1.69 2.147 0 3.872-.91 5.076-1.887l-.65 5.404zM159.943 18.097h-8.2l-2.052 4.1h-5.402L155.744.49h4.622l5.826 21.708h-5.143l-1.107-4.1zm-.91-3.84l-1.76-7.65-3.645 7.65h5.404zM185.038 5.794c-1.367-1.237-2.67-1.562-3.646-1.562-.618 0-1.497.098-2.05.553-.456.358-.75.977-.75 1.562 0 .65.294 1.106.75 1.465.455.39 1.04.65 2.115 1.14l1.27.585c1.04.488 2.018 1.042 2.864 2.083.782.977 1.107 1.985 1.107 3.385 0 2.278-.91 4.297-2.18 5.566-1.76 1.726-4.005 2.116-6.218 2.116-1.596 0-2.865-.195-4.33-.977-1.073-.587-2.115-1.466-2.896-2.312l2.8-3.58c.455.618 1.172 1.302 1.822 1.725.684.423 1.595.716 2.54.716.747 0 1.788-.23 2.407-.685.586-.455.91-1.204.91-2.018 0-.78-.357-1.236-.617-1.497-.163-.163-.586-.52-1.725-.977l-1.27-.52c-.357-.13-2.018-.848-3.06-1.92-1.04-1.075-1.432-2.313-1.432-3.68 0-2.245.912-3.873 1.953-4.914C177.163.325 179.408 0 181.264 0c1.854 0 4.003.358 6.282 2.148l-2.507 3.646zM209.124 21.514c-.716.358-2.474 1.172-5.272 1.172-4.102 0-6.477-1.758-7.648-2.896-1.4-1.4-2.93-3.743-2.93-7.52s1.432-6.866 3.45-8.885c1.823-1.822 4.72-3.385 8.69-3.385 3.352 0 5.37 1.106 6.15 1.562l-.617 5.305c-.88-.878-2.54-2.18-5.436-2.18-2.083 0-3.774.553-5.142 2.05-1.334 1.433-1.953 3.385-1.953 5.11 0 1.822.717 3.482 1.692 4.46.977.975 2.604 1.69 4.59 1.69 2.147 0 3.872-.91 5.077-1.887l-.65 5.404zM229.337 18.097h-8.202l-2.05 4.1h-5.403L225.14.49h4.62l5.826 21.708h-5.143l-1.106-4.1zm-.91-3.84l-1.76-7.65-3.644 7.65h5.403zM250.2.488c2.246 0 5.858.325 8.3 2.767 1.432 1.432 2.604 3.808 2.604 7.226 0 4.98-2.277 7.682-3.385 8.724-2.507 2.376-5.925 2.994-9.862 2.994h-6.672l2.668-21.71h6.347zm-3.482 17.478h1.53c1.465 0 3.775-.098 5.533-1.66 1.237-1.106 2.18-3.124 2.18-5.695 0-1.92-.617-3.45-1.56-4.36-1.042-1.01-2.832-1.53-4.524-1.53h-1.53l-1.628 13.246zM280.86 4.72h-7.095l-.52 4.198h6.834l-.522 4.23h-6.835l-.586 4.817h7.226l-.52 4.23h-12.108L269.403.488h11.978l-.52 4.233z"/></g></svg>