<svg xmlns="http://www.w3.org/2000/svg" width="192.624" height="60.281" viewBox="0 0 192.624 60.281"><g fill="#FFF"><path d="M49.05 23.695c-1.507.37-3.15.554-4.93.554-1.845 0-3.542-.294-5.094-.88-1.552-.586-2.886-1.41-4.003-2.474-1.118-1.062-1.99-2.338-2.62-3.824-.63-1.486-.944-3.142-.944-4.964 0-1.845.32-3.516.96-5.013.64-1.497 1.523-2.77 2.652-3.824C36.2 2.22 37.524 1.41 39.042.847 40.563.282 42.2 0 43.96 0c1.823 0 3.515.276 5.078.83s2.832 1.297 3.808 2.23L49.33 7.062c-.543-.63-1.26-1.145-2.15-1.547-.89-.4-1.898-.602-3.026-.602-.977 0-1.877.18-2.702.537-.826.36-1.542.86-2.15 1.5-.607.64-1.08 1.398-1.415 2.277-.337.88-.504 1.84-.504 2.88 0 1.064.15 2.04.456 2.93.303.89.752 1.655 1.35 2.295.597.64 1.334 1.14 2.213 1.497.88.357 1.882.536 3.01.536.652 0 1.27-.05 1.856-.146s1.127-.254 1.626-.472V14.55h-4.394v-4.492h9.504v12.206c-1.13.586-2.447 1.063-3.955 1.43zM76.41 23.663l-5.004-9.146H69.51v9.146h-5.437V.618h8.788c1.108 0 2.187.114 3.24.342 1.052.23 1.996.613 2.832 1.155.835.543 1.502 1.26 2 2.148.5.89.75 1.997.75 3.32 0 1.562-.423 2.875-1.27 3.938-.846 1.064-2.017 1.823-3.515 2.28l6.02 9.86H76.41zm-.23-15.98c0-.543-.114-.982-.343-1.32-.23-.335-.523-.596-.883-.78-.36-.184-.764-.31-1.21-.374-.447-.066-.878-.1-1.292-.1h-2.976v5.37h2.65c.457 0 .926-.036 1.406-.112.48-.076.916-.212 1.308-.407s.714-.476.965-.846c.25-.37.376-.846.376-1.432zM92.162 23.663V.618h15.493v4.688H97.533v4.36h9.57v4.46h-9.57v4.785h10.71v4.753h-16.08zM134.052 23.663l-1.79-4.524h-8.92l-1.69 4.523h-6.055L125.264.618h5.403l9.57 23.045h-6.185zM127.87 6.77l-2.93 7.91h5.792l-2.863-7.91zM156.576 5.37v18.293h-5.566V5.37h-6.51V.618h18.586V5.37h-6.51zM17.577 59.256c-1.497.684-3.222 1.025-5.175 1.025-1.78 0-3.423-.292-4.93-.878-1.51-.586-2.816-1.416-3.923-2.49-1.107-1.073-1.976-2.36-2.605-3.856C.315 51.56 0 49.91 0 48.108c0-1.845.32-3.516.96-5.013.64-1.497 1.524-2.77 2.653-3.824 1.128-1.052 2.452-1.86 3.97-2.424C9.104 36.282 10.742 36 12.5 36c1.626 0 3.227.288 4.8.862 1.573.575 2.848 1.416 3.825 2.522L17.35 43.16c-.522-.717-1.205-1.248-2.05-1.596-.847-.347-1.715-.52-2.605-.52-.977 0-1.872.178-2.686.536-.814.358-1.514.852-2.1 1.48-.586.63-1.042 1.373-1.367 2.23-.325.857-.488 1.796-.488 2.815 0 1.04.163 1.996.488 2.864.326.867.775 1.61 1.35 2.228.575.618 1.265 1.102 2.067 1.448.803.348 1.682.52 2.637.52 1.106 0 2.072-.215 2.897-.65.824-.433 1.486-.997 1.985-1.69l3.873 3.645c-1.02 1.176-2.28 2.102-3.776 2.786zM45.47 59.663l-1.79-4.524h-8.917l-1.692 4.523h-6.053l9.667-23.045h5.403l9.57 23.045H45.47zM39.288 42.77l-2.93 7.91h5.794l-2.863-7.91zM72.26 42.607c-.48-.607-1.103-1.09-1.873-1.448-.77-.36-1.514-.538-2.23-.538-.368 0-.743.032-1.122.098-.38.065-.722.19-1.025.374-.304.185-.56.423-.765.716-.207.293-.31.668-.31 1.123 0 .39.082.717.245.977.163.26.4.488.716.684.314.195.688.374 1.123.537.433.164.92.332 1.464.506.78.26 1.595.548 2.44.862s1.617.732 2.312 1.253c.694.522 1.27 1.168 1.725 1.938.457.77.685 1.73.685 2.88 0 1.325-.244 2.47-.732 3.435-.488.966-1.145 1.764-1.97 2.393-.824.63-1.768 1.096-2.83 1.4-1.064.303-2.16.455-3.29.455-1.648 0-3.243-.287-4.784-.86-1.542-.576-2.822-1.396-3.842-2.46l3.646-3.71c.564.695 1.307 1.275 2.23 1.742.92.467 1.838.7 2.75.7.41 0 .812-.044 1.203-.13.39-.087.732-.23 1.025-.424s.526-.456.7-.78c.173-.326.26-.717.26-1.173 0-.434-.108-.803-.325-1.106-.217-.305-.526-.58-.928-.83-.403-.25-.9-.48-1.498-.685-.597-.206-1.275-.43-2.034-.667-.738-.24-1.46-.52-2.165-.847-.706-.324-1.334-.742-1.888-1.252-.553-.51-.998-1.128-1.334-1.855-.335-.727-.503-1.61-.503-2.652 0-1.28.26-2.375.78-3.287.522-.91 1.205-1.66 2.05-2.245.848-.586 1.802-1.015 2.866-1.286 1.062-.27 2.137-.407 3.222-.407 1.302 0 2.63.24 3.987.717 1.356.478 2.544 1.183 3.564 2.115l-3.547 3.74zM102.333 59.256c-1.497.684-3.222 1.025-5.175 1.025-1.78 0-3.423-.292-4.93-.878-1.51-.586-2.816-1.416-3.923-2.49-1.106-1.073-1.975-2.36-2.604-3.856-.63-1.497-.943-3.146-.943-4.947 0-1.846.32-3.517.96-5.014.64-1.497 1.524-2.77 2.653-3.824 1.128-1.053 2.452-1.86 3.97-2.425C93.86 36.282 95.5 36 97.257 36c1.627 0 3.228.288 4.8.862 1.574.575 2.85 1.416 3.826 2.522l-3.776 3.776c-.52-.717-1.204-1.248-2.05-1.596-.846-.347-1.714-.52-2.604-.52-.977 0-1.872.178-2.686.536-.813.358-1.513.852-2.1 1.48-.585.63-1.04 1.373-1.366 2.23-.325.857-.488 1.796-.488 2.815 0 1.04.163 1.996.488 2.864.326.867.775 1.61 1.35 2.228.575.618 1.265 1.102 2.067 1.448.803.348 1.682.52 2.637.52 1.106 0 2.072-.215 2.897-.65.825-.433 1.487-.997 1.986-1.69l3.874 3.645c-1.02 1.176-2.28 2.102-3.777 2.786zM130.228 59.663l-1.79-4.524h-8.92l-1.69 4.523h-6.055l9.667-23.045h5.403l9.57 23.045h-6.185zm-6.184-16.892l-2.93 7.91h5.793l-2.863-7.91zM166.357 48.075c0 2.02-.374 3.76-1.123 5.225-.748 1.465-1.736 2.67-2.96 3.613-1.228.943-2.61 1.64-4.15 2.083-1.542.444-3.105.667-4.69.667h-8.592V36.618h8.333c1.627 0 3.232.19 4.816.57s2.996 1.01 4.233 1.888c1.236.88 2.234 2.056 2.994 3.53s1.14 3.3 1.14 5.47zm-5.793 0c0-1.302-.212-2.38-.635-3.238-.425-.856-.99-1.54-1.694-2.05-.705-.51-1.508-.874-2.408-1.09s-1.828-.327-2.784-.327h-2.767v13.476h2.637c.997 0 1.958-.114 2.88-.342.923-.228 1.736-.602 2.44-1.123.706-.52 1.27-1.214 1.694-2.082.424-.867.636-1.942.636-3.223zM176.544 59.663V36.618h15.493v4.688h-10.122v4.36h9.568v4.46h-9.568v4.785h10.708v4.753h-16.08z"/></g></svg>