<svg xmlns="http://www.w3.org/2000/svg" width="183.598" height="26.063" viewBox="0 0 183.598 26.063"><g fill="#FFF"><path d="M0 6.264C0 5.232.18 4.32.54 3.528c.36-.792.834-1.445 1.422-1.962C2.55 1.05 3.21.66 3.942.396 4.674.132 5.412 0 6.156 0 6.9 0 7.636.132 8.37.396c.732.265 1.392.654 1.98 1.17.588.517 1.062 1.17 1.422 1.962.36.792.54 1.704.54 2.736V7.56H8.64V6.264c0-.888-.246-1.542-.738-1.962-.492-.42-1.074-.63-1.746-.63-.672 0-1.254.21-1.746.63-.492.42-.738 1.074-.738 1.962V19.8c0 .89.246 1.543.738 1.963.492.42 1.074.63 1.746.63.672 0 1.254-.21 1.746-.63.492-.42.738-1.074.738-1.963v-4.824H5.724v-3.24h6.588V19.8c0 1.057-.18 1.975-.54 2.754-.36.78-.834 1.43-1.422 1.944-.588.517-1.248.906-1.98 1.17-.732.265-1.47.396-2.214.396s-1.482-.13-2.214-.396c-.732-.264-1.392-.653-1.98-1.17C1.374 23.982.9 23.335.54 22.554.18 21.774 0 20.856 0 19.8V6.264zM16.2.216h5.904c4.32 0 6.48 2.508 6.48 7.524 0 1.488-.234 2.766-.702 3.834-.468 1.068-1.29 1.926-2.466 2.574l3.96 11.7h-3.888l-3.42-10.943h-2.196V25.85H16.2V.215zm3.672 11.448h2.088c.648 0 1.164-.09 1.548-.27.383-.18.678-.438.882-.774.204-.336.342-.75.414-1.242.072-.49.108-1.062.108-1.71s-.036-1.218-.108-1.71c-.072-.492-.222-.912-.45-1.26s-.546-.606-.954-.774c-.41-.168-.95-.252-1.62-.252h-1.908v7.992zM31.896.216H42.84v3.456h-7.272v7.524h6.336v3.456h-6.336v7.524h7.272v3.672H31.896V.216zM50.363.216h3.06l5.724 25.632h-3.672l-1.08-5.508H49.39l-1.08 5.508h-3.67L50.362.216zm1.55 7.38h-.073l-1.8 9.288h3.672l-1.8-9.288zM63.36 3.672h-4.25V.216h12.17v3.456h-4.25v22.176h-3.67V3.672zM93.058 20.124c0 .792-.15 1.55-.45 2.268-.3.72-.714 1.35-1.242 1.89-.528.54-1.146.973-1.854 1.297-.708.323-1.47.484-2.286.484-.696 0-1.404-.096-2.124-.287-.72-.19-1.368-.522-1.944-.99-.576-.468-1.05-1.086-1.422-1.854s-.558-1.74-.558-2.916V5.904c0-.84.144-1.62.432-2.34.288-.72.696-1.344 1.224-1.872S83.992.75 84.724.45c.732-.3 1.542-.45 2.43-.45.84 0 1.62.15 2.34.45.72.3 1.344.72 1.872 1.26.527.54.94 1.188 1.242 1.944.3.756.45 1.578.45 2.466v1.44h-3.672V6.336c0-.72-.205-1.344-.612-1.872-.408-.528-.96-.792-1.656-.792-.913 0-1.52.282-1.818.846-.3.565-.45 1.278-.45 2.142v13.104c0 .744.162 1.367.486 1.87.324.505.906.757 1.746.757.24 0 .498-.04.774-.124.276-.084.528-.223.756-.414.228-.192.414-.456.558-.793.144-.337.216-.757.216-1.26v-1.26h3.672v1.584zM100.475.216h3.06l5.724 25.632h-3.673l-1.08-5.508h-5.003l-1.08 5.508H94.75L100.475.216zm1.547 7.38h-.072l-1.8 9.288h3.672l-1.8-9.288zM123.19 7.596h-3.673v-.828c0-.84-.197-1.566-.594-2.178-.396-.612-1.062-.918-1.998-.918-.504 0-.918.096-1.242.288-.324.192-.576.438-.756.738-.18.3-.306.648-.378 1.044-.072.396-.11.81-.11 1.242 0 .504.02.93.056 1.278.036.348.126.648.27.9.145.252.354.474.63.666.276.192.654.384 1.135.576l2.81 1.116c.815.312 1.476.68 1.98 1.098.503.42.893.913 1.17 1.476.274.564.46 1.212.557 1.944.096.732.144 1.566.144 2.502 0 1.08-.106 2.082-.322 3.006s-.57 1.717-1.062 2.377c-.492.66-1.146 1.182-1.963 1.565s-1.812.575-2.988.575c-.888 0-1.716-.156-2.483-.467-.77-.312-1.43-.738-1.98-1.278-.552-.54-.99-1.183-1.313-1.927-.325-.742-.487-1.546-.487-2.41V18.61h3.672v1.152c0 .672.198 1.277.594 1.817.395.54 1.06.81 1.997.81.625 0 1.11-.09 1.46-.27.347-.18.61-.43.79-.755.18-.324.294-.726.342-1.206.048-.48.07-1.01.07-1.585 0-.672-.022-1.224-.07-1.656-.05-.433-.15-.78-.306-1.045-.156-.264-.373-.48-.648-.648-.276-.167-.643-.348-1.098-.54l-2.63-1.08c-1.583-.648-2.645-1.505-3.185-2.574-.54-1.068-.81-2.406-.81-4.014 0-.96.132-1.873.395-2.737.264-.864.654-1.607 1.17-2.232.516-.623 1.17-1.12 1.962-1.493.79-.37 1.714-.557 2.77-.557.912 0 1.746.168 2.502.504.756.336 1.404.78 1.943 1.332.54.553.955 1.17 1.242 1.854.288.684.432 1.386.432 2.106v1.8zM138.31 20.124c0 .792-.15 1.55-.45 2.268-.3.72-.714 1.35-1.24 1.89-.53.54-1.147.973-1.855 1.297s-1.47.484-2.285.484c-.697 0-1.404-.096-2.125-.287-.72-.19-1.367-.522-1.943-.99s-1.05-1.086-1.422-1.854c-.373-.768-.56-1.74-.56-2.916V5.904c0-.84.146-1.62.433-2.34.29-.72.696-1.344 1.225-1.872.527-.528 1.158-.942 1.89-1.242.732-.3 1.542-.45 2.43-.45.84 0 1.62.15 2.34.45.72.3 1.345.72 1.873 1.26s.942 1.188 1.242 1.944c.3.756.45 1.578.45 2.466v1.44h-3.67V6.336c0-.72-.206-1.344-.614-1.872s-.96-.792-1.655-.792c-.913 0-1.52.282-1.818.846-.3.564-.45 1.278-.45 2.142v13.104c0 .744.162 1.367.486 1.87s.907.757 1.747.757c.24 0 .498-.04.773-.124.276-.084.528-.223.756-.414.23-.192.414-.456.56-.793.144-.337.216-.757.216-1.26v-1.26h3.672v1.584zM145.726.216h3.06l5.725 25.632h-3.67l-1.08-5.508h-5.005l-1.08 5.508h-3.672L145.726.216zm1.547 7.38h-.072l-1.798 9.288h3.672l-1.8-9.288zM156.957.216h5.437c2.088 0 3.684.582 4.788 1.746 1.104 1.165 1.656 2.79 1.656 4.878v11.988c0 2.4-.582 4.17-1.746 5.31-1.164 1.14-2.84 1.71-5.022 1.71h-5.112V.217zm3.672 22.176h1.69c1.033 0 1.766-.258 2.197-.773s.648-1.327.648-2.43V6.84c0-1.008-.205-1.788-.612-2.34-.41-.552-1.152-.828-2.232-.828h-1.69v18.72zM172.653.216h10.944v3.456h-7.272v7.524h6.336v3.456h-6.335v7.524h7.272v3.672h-10.944V.216z"/></g></svg>